%TF.GenerationSoftware,KiCad,Pcbnew,4.0.1-stable*%
%TF.CreationDate,2016-01-09T00:07:18+09:00*%
%TF.ProjectId,BatteryBoard_v1,42617474657279426F6172645F76312E,rev?*%
%TF.FileFunction,Legend,Top*%
%FSLAX46Y46*%
G04 Gerber Fmt 4.6, Leading zero omitted, Abs format (unit mm)*
G04 Created by KiCad (PCBNEW 4.0.1-stable) date 2016/01/09 0:07:18*
%MOMM*%
G01*
G04 APERTURE LIST*
%ADD10C,0.100000*%
%ADD11C,0.300000*%
%ADD12C,2.600000*%
G04 APERTURE END LIST*
D10*
%LPC*%
D11*
X201614287Y-156792857D02*
X201828573Y-156864286D01*
X201900001Y-156935714D01*
X201971430Y-157078571D01*
X201971430Y-157292857D01*
X201900001Y-157435714D01*
X201828573Y-157507143D01*
X201685715Y-157578571D01*
X201114287Y-157578571D01*
X201114287Y-156078571D01*
X201614287Y-156078571D01*
X201757144Y-156150000D01*
X201828573Y-156221429D01*
X201900001Y-156364286D01*
X201900001Y-156507143D01*
X201828573Y-156650000D01*
X201757144Y-156721429D01*
X201614287Y-156792857D01*
X201114287Y-156792857D01*
X203257144Y-157578571D02*
X203257144Y-156792857D01*
X203185715Y-156650000D01*
X203042858Y-156578571D01*
X202757144Y-156578571D01*
X202614287Y-156650000D01*
X203257144Y-157507143D02*
X203114287Y-157578571D01*
X202757144Y-157578571D01*
X202614287Y-157507143D01*
X202542858Y-157364286D01*
X202542858Y-157221429D01*
X202614287Y-157078571D01*
X202757144Y-157007143D01*
X203114287Y-157007143D01*
X203257144Y-156935714D01*
X203757144Y-156578571D02*
X204328573Y-156578571D01*
X203971430Y-156078571D02*
X203971430Y-157364286D01*
X204042858Y-157507143D01*
X204185716Y-157578571D01*
X204328573Y-157578571D01*
X204614287Y-156578571D02*
X205185716Y-156578571D01*
X204828573Y-156078571D02*
X204828573Y-157364286D01*
X204900001Y-157507143D01*
X205042859Y-157578571D01*
X205185716Y-157578571D01*
X206257144Y-157507143D02*
X206114287Y-157578571D01*
X205828573Y-157578571D01*
X205685716Y-157507143D01*
X205614287Y-157364286D01*
X205614287Y-156792857D01*
X205685716Y-156650000D01*
X205828573Y-156578571D01*
X206114287Y-156578571D01*
X206257144Y-156650000D01*
X206328573Y-156792857D01*
X206328573Y-156935714D01*
X205614287Y-157078571D01*
X206971430Y-157578571D02*
X206971430Y-156578571D01*
X206971430Y-156864286D02*
X207042858Y-156721429D01*
X207114287Y-156650000D01*
X207257144Y-156578571D01*
X207400001Y-156578571D01*
X207757144Y-156578571D02*
X208114287Y-157578571D01*
X208471429Y-156578571D02*
X208114287Y-157578571D01*
X207971429Y-157935714D01*
X207900001Y-158007143D01*
X207757144Y-158078571D01*
X209542858Y-156792857D02*
X209757144Y-156864286D01*
X209828572Y-156935714D01*
X209900001Y-157078571D01*
X209900001Y-157292857D01*
X209828572Y-157435714D01*
X209757144Y-157507143D01*
X209614286Y-157578571D01*
X209042858Y-157578571D01*
X209042858Y-156078571D01*
X209542858Y-156078571D01*
X209685715Y-156150000D01*
X209757144Y-156221429D01*
X209828572Y-156364286D01*
X209828572Y-156507143D01*
X209757144Y-156650000D01*
X209685715Y-156721429D01*
X209542858Y-156792857D01*
X209042858Y-156792857D01*
X210757144Y-157578571D02*
X210614286Y-157507143D01*
X210542858Y-157435714D01*
X210471429Y-157292857D01*
X210471429Y-156864286D01*
X210542858Y-156721429D01*
X210614286Y-156650000D01*
X210757144Y-156578571D01*
X210971429Y-156578571D01*
X211114286Y-156650000D01*
X211185715Y-156721429D01*
X211257144Y-156864286D01*
X211257144Y-157292857D01*
X211185715Y-157435714D01*
X211114286Y-157507143D01*
X210971429Y-157578571D01*
X210757144Y-157578571D01*
X212542858Y-157578571D02*
X212542858Y-156792857D01*
X212471429Y-156650000D01*
X212328572Y-156578571D01*
X212042858Y-156578571D01*
X211900001Y-156650000D01*
X212542858Y-157507143D02*
X212400001Y-157578571D01*
X212042858Y-157578571D01*
X211900001Y-157507143D01*
X211828572Y-157364286D01*
X211828572Y-157221429D01*
X211900001Y-157078571D01*
X212042858Y-157007143D01*
X212400001Y-157007143D01*
X212542858Y-156935714D01*
X213257144Y-157578571D02*
X213257144Y-156578571D01*
X213257144Y-156864286D02*
X213328572Y-156721429D01*
X213400001Y-156650000D01*
X213542858Y-156578571D01*
X213685715Y-156578571D01*
X214828572Y-157578571D02*
X214828572Y-156078571D01*
X214828572Y-157507143D02*
X214685715Y-157578571D01*
X214400001Y-157578571D01*
X214257143Y-157507143D01*
X214185715Y-157435714D01*
X214114286Y-157292857D01*
X214114286Y-156864286D01*
X214185715Y-156721429D01*
X214257143Y-156650000D01*
X214400001Y-156578571D01*
X214685715Y-156578571D01*
X214828572Y-156650000D01*
X215185715Y-157721429D02*
X216328572Y-157721429D01*
X216542858Y-156578571D02*
X216900001Y-157578571D01*
X217257143Y-156578571D01*
X218614286Y-157578571D02*
X217757143Y-157578571D01*
X218185715Y-157578571D02*
X218185715Y-156078571D01*
X218042858Y-156292857D01*
X217900000Y-156435714D01*
X217757143Y-156507143D01*
X215528572Y-151507143D02*
X216671429Y-151507143D01*
X203328572Y-151507143D02*
X204471429Y-151507143D01*
X203900000Y-152078571D02*
X203900000Y-150935714D01*
D12*
X216100000Y-148500000D03*
X203900000Y-148500000D03*
X216100000Y-141500000D03*
X203900000Y-141500000D03*
M02*
