G04 #@! TF.FileFunction,Legend,Top*
%FSLAX46Y46*%
G04 Gerber Fmt 4.6, Leading zero omitted, Abs format (unit mm)*
G04 Created by KiCad (PCBNEW 4.0.1-stable) date 2016/01/11 17:04:36*
%MOMM*%
G01*
G04 APERTURE LIST*
%ADD10C,0.100000*%
%ADD11C,0.127000*%
G04 APERTURE END LIST*
D10*
D11*
X132820000Y-87010000D02*
X130915000Y-87010000D01*
X130915000Y-92090000D02*
X132820000Y-92090000D01*
X132820000Y-92090000D02*
X132820000Y-87010000D01*
X130920000Y-86950000D02*
X130920000Y-86375000D01*
X130920000Y-86375000D02*
X129020000Y-86375000D01*
X127420000Y-86350000D02*
X126020000Y-86350000D01*
X124420000Y-86350000D02*
X121220000Y-86350000D01*
X119720000Y-86350000D02*
X118820000Y-86350000D01*
X118820000Y-86350000D02*
X118820000Y-91150000D01*
X120220000Y-92750000D02*
X120720000Y-92750000D01*
X122320000Y-92750000D02*
X127320000Y-92750000D01*
X128920000Y-92750000D02*
X130920000Y-92750000D01*
X130920000Y-92750000D02*
X130920000Y-92050000D01*
X117653000Y-81765000D02*
X120447000Y-81765000D01*
X120447000Y-81765000D02*
X120447000Y-83035000D01*
X120447000Y-83035000D02*
X117653000Y-83035000D01*
X117653000Y-83035000D02*
X117653000Y-81765000D01*
X122265000Y-84547000D02*
X122265000Y-81753000D01*
X122265000Y-81753000D02*
X123535000Y-81753000D01*
X123535000Y-81753000D02*
X123535000Y-84547000D01*
X123535000Y-84547000D02*
X122265000Y-84547000D01*
M02*
