G04 #@! TF.FileFunction,Legend,Top*
%FSLAX46Y46*%
G04 Gerber Fmt 4.6, Leading zero omitted, Abs format (unit mm)*
G04 Created by KiCad (PCBNEW 4.0.1-stable) date 2016/07/21 14:16:31*
%MOMM*%
G01*
G04 APERTURE LIST*
%ADD10C,0.100000*%
%ADD11C,0.127000*%
%ADD12C,0.050000*%
%ADD13R,1.670000X3.702000*%
%ADD14R,1.670000X2.686000*%
%ADD15R,1.670000X3.194000*%
%ADD16R,1.289000X1.289000*%
G04 APERTURE END LIST*
D10*
D11*
X132820000Y-87010000D02*
X130915000Y-87010000D01*
X130915000Y-92090000D02*
X132820000Y-92090000D01*
X132820000Y-92090000D02*
X132820000Y-87010000D01*
X130920000Y-86950000D02*
X130920000Y-86375000D01*
X130920000Y-86375000D02*
X129020000Y-86375000D01*
X127420000Y-86350000D02*
X126020000Y-86350000D01*
X124420000Y-86350000D02*
X121220000Y-86350000D01*
X119720000Y-86350000D02*
X118820000Y-86350000D01*
X118820000Y-86350000D02*
X118820000Y-91150000D01*
X120220000Y-92750000D02*
X120720000Y-92750000D01*
X122320000Y-92750000D02*
X127320000Y-92750000D01*
X128920000Y-92750000D02*
X130920000Y-92750000D01*
X130920000Y-92750000D02*
X130920000Y-92050000D01*
X117653000Y-81765000D02*
X120447000Y-81765000D01*
X120447000Y-81765000D02*
X120447000Y-83035000D01*
X120447000Y-83035000D02*
X117653000Y-83035000D01*
X117653000Y-83035000D02*
X117653000Y-81765000D01*
X122265000Y-84547000D02*
X122265000Y-81753000D01*
X122265000Y-81753000D02*
X123535000Y-81753000D01*
X123535000Y-81753000D02*
X123535000Y-84547000D01*
X123535000Y-84547000D02*
X122265000Y-84547000D01*
D12*
X114166667Y-88966667D02*
X114166667Y-89466667D01*
X114133333Y-89566667D01*
X114066667Y-89633333D01*
X113966667Y-89666667D01*
X113900000Y-89666667D01*
X114866666Y-89666667D02*
X114466666Y-89666667D01*
X114666666Y-89666667D02*
X114666666Y-88966667D01*
X114600000Y-89066667D01*
X114533333Y-89133333D01*
X114466666Y-89166667D01*
X111199999Y-90983333D02*
X111299999Y-91016667D01*
X111466666Y-91016667D01*
X111533333Y-90983333D01*
X111566666Y-90950000D01*
X111599999Y-90883333D01*
X111599999Y-90816667D01*
X111566666Y-90750000D01*
X111533333Y-90716667D01*
X111466666Y-90683333D01*
X111333333Y-90650000D01*
X111266666Y-90616667D01*
X111233333Y-90583333D01*
X111199999Y-90516667D01*
X111199999Y-90450000D01*
X111233333Y-90383333D01*
X111266666Y-90350000D01*
X111333333Y-90316667D01*
X111499999Y-90316667D01*
X111599999Y-90350000D01*
X111800000Y-90316667D02*
X112200000Y-90316667D01*
X112000000Y-91016667D02*
X112000000Y-90316667D01*
X112433333Y-90750000D02*
X112966666Y-90750000D01*
X113300000Y-91016667D02*
X113300000Y-90316667D01*
X113566666Y-90316667D01*
X113633333Y-90350000D01*
X113666666Y-90383333D01*
X113700000Y-90450000D01*
X113700000Y-90550000D01*
X113666666Y-90616667D01*
X113633333Y-90650000D01*
X113566666Y-90683333D01*
X113300000Y-90683333D01*
X114200000Y-90316667D02*
X114200000Y-90816667D01*
X114166666Y-90916667D01*
X114100000Y-90983333D01*
X114000000Y-91016667D01*
X113933333Y-91016667D01*
X114533333Y-90750000D02*
X115066666Y-90750000D01*
X115333333Y-90316667D02*
X115766666Y-90316667D01*
X115533333Y-90583333D01*
X115633333Y-90583333D01*
X115700000Y-90616667D01*
X115733333Y-90650000D01*
X115766666Y-90716667D01*
X115766666Y-90883333D01*
X115733333Y-90950000D01*
X115700000Y-90983333D01*
X115633333Y-91016667D01*
X115433333Y-91016667D01*
X115366666Y-90983333D01*
X115333333Y-90950000D01*
X116433333Y-91016667D02*
X116033333Y-91016667D01*
X116233333Y-91016667D02*
X116233333Y-90316667D01*
X116166667Y-90416667D01*
X116100000Y-90483333D01*
X116033333Y-90516667D01*
X116700000Y-90383333D02*
X116733334Y-90350000D01*
X116800000Y-90316667D01*
X116966667Y-90316667D01*
X117033334Y-90350000D01*
X117066667Y-90383333D01*
X117100000Y-90450000D01*
X117100000Y-90516667D01*
X117066667Y-90616667D01*
X116666667Y-91016667D01*
X117100000Y-91016667D01*
X118083334Y-81116667D02*
X117850000Y-80783333D01*
X117683334Y-81116667D02*
X117683334Y-80416667D01*
X117950000Y-80416667D01*
X118016667Y-80450000D01*
X118050000Y-80483333D01*
X118083334Y-80550000D01*
X118083334Y-80650000D01*
X118050000Y-80716667D01*
X118016667Y-80750000D01*
X117950000Y-80783333D01*
X117683334Y-80783333D01*
X118750000Y-81116667D02*
X118350000Y-81116667D01*
X118550000Y-81116667D02*
X118550000Y-80416667D01*
X118483334Y-80516667D01*
X118416667Y-80583333D01*
X118350000Y-80616667D01*
X120016667Y-81026190D02*
X119730953Y-81026190D01*
X119873810Y-81026190D02*
X119873810Y-80526190D01*
X119826191Y-80597619D01*
X119778572Y-80645238D01*
X119730953Y-80669048D01*
X120326191Y-80526190D02*
X120373810Y-80526190D01*
X120421429Y-80550000D01*
X120445238Y-80573810D01*
X120469048Y-80621429D01*
X120492857Y-80716667D01*
X120492857Y-80835714D01*
X120469048Y-80930952D01*
X120445238Y-80978571D01*
X120421429Y-81002381D01*
X120373810Y-81026190D01*
X120326191Y-81026190D01*
X120278572Y-81002381D01*
X120254762Y-80978571D01*
X120230953Y-80930952D01*
X120207143Y-80835714D01*
X120207143Y-80716667D01*
X120230953Y-80621429D01*
X120254762Y-80573810D01*
X120278572Y-80550000D01*
X120326191Y-80526190D01*
X120802381Y-80526190D02*
X120850000Y-80526190D01*
X120897619Y-80550000D01*
X120921428Y-80573810D01*
X120945238Y-80621429D01*
X120969047Y-80716667D01*
X120969047Y-80835714D01*
X120945238Y-80930952D01*
X120921428Y-80978571D01*
X120897619Y-81002381D01*
X120850000Y-81026190D01*
X120802381Y-81026190D01*
X120754762Y-81002381D01*
X120730952Y-80978571D01*
X120707143Y-80930952D01*
X120683333Y-80835714D01*
X120683333Y-80716667D01*
X120707143Y-80621429D01*
X120730952Y-80573810D01*
X120754762Y-80550000D01*
X120802381Y-80526190D01*
X121469047Y-81026190D02*
X121302380Y-80788095D01*
X121183333Y-81026190D02*
X121183333Y-80526190D01*
X121373809Y-80526190D01*
X121421428Y-80550000D01*
X121445237Y-80573810D01*
X121469047Y-80621429D01*
X121469047Y-80692857D01*
X121445237Y-80740476D01*
X121421428Y-80764286D01*
X121373809Y-80788095D01*
X121183333Y-80788095D01*
X123266667Y-80916666D02*
X122933333Y-81150000D01*
X123266667Y-81316666D02*
X122566667Y-81316666D01*
X122566667Y-81050000D01*
X122600000Y-80983333D01*
X122633333Y-80950000D01*
X122700000Y-80916666D01*
X122800000Y-80916666D01*
X122866667Y-80950000D01*
X122900000Y-80983333D01*
X122933333Y-81050000D01*
X122933333Y-81316666D01*
X122633333Y-80650000D02*
X122600000Y-80616666D01*
X122566667Y-80550000D01*
X122566667Y-80383333D01*
X122600000Y-80316666D01*
X122633333Y-80283333D01*
X122700000Y-80250000D01*
X122766667Y-80250000D01*
X122866667Y-80283333D01*
X123266667Y-80683333D01*
X123266667Y-80250000D01*
X124476190Y-81195238D02*
X124476190Y-81480952D01*
X124476190Y-81338095D02*
X123976190Y-81338095D01*
X124047619Y-81385714D01*
X124095238Y-81433333D01*
X124119048Y-81480952D01*
X123976190Y-80885714D02*
X123976190Y-80838095D01*
X124000000Y-80790476D01*
X124023810Y-80766667D01*
X124071429Y-80742857D01*
X124166667Y-80719048D01*
X124285714Y-80719048D01*
X124380952Y-80742857D01*
X124428571Y-80766667D01*
X124452381Y-80790476D01*
X124476190Y-80838095D01*
X124476190Y-80885714D01*
X124452381Y-80933333D01*
X124428571Y-80957143D01*
X124380952Y-80980952D01*
X124285714Y-81004762D01*
X124166667Y-81004762D01*
X124071429Y-80980952D01*
X124023810Y-80957143D01*
X124000000Y-80933333D01*
X123976190Y-80885714D01*
X124476190Y-80504762D02*
X123976190Y-80504762D01*
X124476190Y-80219048D02*
X124190476Y-80433334D01*
X123976190Y-80219048D02*
X124261905Y-80504762D01*
%LPC*%
D13*
X119485000Y-92979000D03*
D14*
X121517000Y-93487000D03*
D15*
X128121000Y-93233000D03*
D14*
X120501000Y-85613000D03*
X125200000Y-85613000D03*
X128248000Y-85613000D03*
D16*
X118288000Y-82400000D03*
X119812000Y-82400000D03*
X122900000Y-83912000D03*
X122900000Y-82388000D03*
M02*
