M48
;DRILL file {KiCad 4.0.1-stable} date 2016/06/15 21:35:04
;FORMAT={-:-/ absolute / metric / decimal}
FMAT,2
METRIC,TZ
T1C0.500
T2C0.762
T3C0.900
T4C1.000
T5C1.016
T6C2.000
%
G90
G05
M71
T1
X109.131Y-94.844
X111.036Y-121.514
X112.941Y-111.354
X114.846Y-131.039
X116.751Y-129.134
X123.101Y-127.229
X124.371Y-111.989
X128.816Y-96.749
X133.896Y-103.734
X136.436Y-103.099
X140.881Y-121.514
X143.421Y-113.894
X146.596Y-111.989
T2
X140.881Y-118.974
T3
X140.881Y-96.114
X140.881Y-98.654
X140.881Y-101.194
X140.881Y-103.734
X140.881Y-106.274
X140.881Y-108.814
X140.881Y-111.354
X140.881Y-113.894
X140.881Y-116.434
X140.881Y-118.974
X156.121Y-96.114
X156.121Y-98.654
X156.121Y-101.194
X156.121Y-103.734
X156.121Y-111.354
X156.121Y-113.894
X156.121Y-116.434
X156.121Y-118.974
X156.121Y-121.514
X156.121Y-124.054
X156.121Y-126.594
X156.121Y-129.134
X156.121Y-131.674
T4
X98.971Y-102.718
X104.051Y-102.718
X108.623Y-127.864
X108.877Y-115.926
X110.401Y-102.718
X111.417Y-115.926
X113.703Y-127.864
X113.957Y-115.926
X115.481Y-102.718
X123.101Y-102.718
X128.181Y-102.718
T5
X113.576Y-133.579
X113.576Y-136.119
X113.576Y-138.659
X116.751Y-133.579
X116.751Y-136.119
X116.751Y-138.659
X119.926Y-133.579
X119.926Y-136.119
X119.926Y-138.659
X147.866Y-133.579
X147.866Y-138.659
X152.946Y-133.579
X152.946Y-138.659
T4
X116.731Y-86.669G85X114.231Y-86.669
G05
X116.731Y-92.669G85X114.231Y-92.669
G05
T6
X146.001Y-96.379G85X146.001Y-96.379
G05
X151.001Y-94.579G85X151.001Y-94.579
G05
X151.001Y-103.979G85X151.001Y-103.979
G05
T0
M30
