G04 #@! TF.FileFunction,Copper,L2,Bot,Signal*
%FSLAX46Y46*%
G04 Gerber Fmt 4.6, Leading zero omitted, Abs format (unit mm)*
G04 Created by KiCad (PCBNEW 4.0.1-stable) date 2016/06/15 21:34:56*
%MOMM*%
G01*
G04 APERTURE LIST*
%ADD10C,0.100000*%
%ADD11R,1.727200X1.727200*%
%ADD12O,1.727200X1.727200*%
%ADD13C,1.524000*%
%ADD14R,1.727200X2.032000*%
%ADD15O,1.727200X2.032000*%
%ADD16R,4.500000X2.000000*%
%ADD17R,2.032000X1.727200*%
%ADD18O,2.032000X1.727200*%
%ADD19R,2.500000X2.500000*%
%ADD20C,1.000000*%
%ADD21C,1.000000*%
%ADD22C,0.500000*%
%ADD23C,0.254000*%
G04 APERTURE END LIST*
D10*
D11*
X152946100Y-138658600D03*
D12*
X152946100Y-133578600D03*
X147866100Y-138658600D03*
X147866100Y-133578600D03*
D13*
X140881100Y-103733600D03*
X140881100Y-118973600D03*
X156121100Y-131673600D03*
X156121100Y-129133600D03*
X156121100Y-126593600D03*
X156121100Y-124053600D03*
X156121100Y-121513600D03*
X156121100Y-118973600D03*
X156121100Y-96113600D03*
X156121100Y-98653600D03*
X156121100Y-101193600D03*
X156121100Y-103733600D03*
X156121100Y-111353600D03*
X156121100Y-113893600D03*
X156121100Y-116433600D03*
X140881100Y-118973600D03*
X140881100Y-116433600D03*
X140881100Y-113893600D03*
X140881100Y-111353600D03*
X140881100Y-108813600D03*
X140881100Y-106273600D03*
X140881100Y-101193600D03*
X140881100Y-98653600D03*
X140881100Y-96113600D03*
X98971100Y-102717600D03*
X104051100Y-102717600D03*
X110401100Y-102717600D03*
X115481100Y-102717600D03*
X123101100Y-102717600D03*
X128181100Y-102717600D03*
X108623100Y-127863600D03*
X113703100Y-127863600D03*
D14*
X108877100Y-115925600D03*
D15*
X111417100Y-115925600D03*
X113957100Y-115925600D03*
D16*
X115481100Y-86668600D03*
X115481100Y-92668600D03*
D17*
X119926100Y-133578600D03*
D18*
X119926100Y-136118600D03*
X119926100Y-138658600D03*
D17*
X116751100Y-133578600D03*
D18*
X116751100Y-136118600D03*
X116751100Y-138658600D03*
D17*
X113576100Y-133578600D03*
D18*
X113576100Y-136118600D03*
X113576100Y-138658600D03*
D19*
X146001100Y-96378600D03*
X151001100Y-94578600D03*
X151001100Y-103978600D03*
D20*
X112941100Y-111353600D03*
X111036100Y-121513600D03*
X123101100Y-127228600D03*
X140881100Y-121513600D03*
X143421100Y-113893600D03*
X116751100Y-129133600D03*
X114846100Y-131038600D03*
X146596100Y-111988600D03*
X128816100Y-96748600D03*
X109131100Y-94843600D03*
X136436100Y-103098600D03*
X133896100Y-103733600D03*
X124371100Y-111988600D03*
D21*
X112941100Y-111353600D02*
X111417100Y-112877600D01*
X111417100Y-112877600D02*
X111417100Y-115925600D01*
X108877100Y-115925600D02*
X108877100Y-119354600D01*
X108877100Y-119354600D02*
X111036100Y-121513600D01*
D22*
X125641100Y-129768600D02*
X123101100Y-127228600D01*
X125641100Y-133578600D02*
X125641100Y-129768600D01*
X126911100Y-134848600D02*
X125641100Y-133578600D01*
X139611100Y-134848600D02*
X126911100Y-134848600D01*
X140881100Y-133578600D02*
X139611100Y-134848600D01*
X140881100Y-121513600D02*
X140881100Y-133578600D01*
X120561100Y-129133600D02*
X117386100Y-129133600D01*
X143421100Y-113893600D02*
X143421100Y-114528600D01*
X143421100Y-114528600D02*
X143421100Y-134213600D01*
X143421100Y-134213600D02*
X141516100Y-136118600D01*
X141516100Y-136118600D02*
X126276100Y-136118600D01*
X126276100Y-136118600D02*
X124371100Y-134213600D01*
X124371100Y-134213600D02*
X124371100Y-130403600D01*
X124371100Y-130403600D02*
X123101100Y-129133600D01*
X123101100Y-129133600D02*
X120561100Y-129133600D01*
X117386100Y-129133600D02*
X116751100Y-129133600D01*
X121831100Y-131038600D02*
X114846100Y-131038600D01*
X122466100Y-131673600D02*
X121831100Y-131038600D01*
X122466100Y-136118600D02*
X122466100Y-131673600D01*
X124371100Y-138023600D02*
X122466100Y-136118600D01*
X141516100Y-138023600D02*
X124371100Y-138023600D01*
X144691100Y-134848600D02*
X141516100Y-138023600D01*
X144691100Y-126593600D02*
X144691100Y-134848600D01*
X147231100Y-124053600D02*
X144691100Y-126593600D01*
X147231100Y-112623600D02*
X147231100Y-124053600D01*
X146596100Y-111988600D02*
X147231100Y-112623600D01*
X104051100Y-102717600D02*
X105702100Y-102717600D01*
X111671100Y-96748600D02*
X128816100Y-96748600D01*
X105702100Y-102717600D02*
X111671100Y-96748600D01*
D21*
X98971100Y-102717600D02*
X98971100Y-101193600D01*
X109131100Y-96113600D02*
X109131100Y-94843600D01*
X106591100Y-98653600D02*
X109131100Y-96113600D01*
X101511100Y-98653600D02*
X106591100Y-98653600D01*
X98971100Y-101193600D02*
X101511100Y-98653600D01*
X110401100Y-102717600D02*
X110401100Y-101193600D01*
X120307100Y-99923600D02*
X123101100Y-102717600D01*
X111671100Y-99923600D02*
X120307100Y-99923600D01*
X110401100Y-101193600D02*
X111671100Y-99923600D01*
X110401100Y-102717600D02*
X110401100Y-103733600D01*
X107226100Y-106908600D02*
X98971100Y-106908600D01*
X110401100Y-103733600D02*
X107226100Y-106908600D01*
X98971100Y-102717600D02*
X98971100Y-106908600D01*
X98971100Y-106908600D02*
X98971100Y-122148600D01*
X104686100Y-127863600D02*
X108623100Y-127863600D01*
X98971100Y-122148600D02*
X104686100Y-127863600D01*
D22*
X115481100Y-105003600D02*
X115481100Y-102717600D01*
X118656100Y-108178600D02*
X115481100Y-105003600D01*
X135166100Y-108178600D02*
X118656100Y-108178600D01*
X136436100Y-106908600D02*
X135166100Y-108178600D01*
X136436100Y-103098600D02*
X136436100Y-106908600D01*
X132880100Y-102717600D02*
X128181100Y-102717600D01*
X133896100Y-103733600D02*
X132880100Y-102717600D01*
X113703100Y-127863600D02*
X113703100Y-127863600D01*
X124371100Y-117068600D02*
X113703100Y-127863600D01*
X124371100Y-111988600D02*
X124371100Y-117068600D01*
D23*
G36*
X112596100Y-86382850D02*
X112754850Y-86541600D01*
X115354100Y-86541600D01*
X115354100Y-86521600D01*
X115608100Y-86521600D01*
X115608100Y-86541600D01*
X118207350Y-86541600D01*
X118366100Y-86382850D01*
X118366100Y-86054600D01*
X119157364Y-86054600D01*
X119256100Y-86153336D01*
X119256100Y-91409600D01*
X119308243Y-91671738D01*
X119456732Y-91893968D01*
X119956732Y-92393968D01*
X120178962Y-92542457D01*
X120441100Y-92594600D01*
X156627364Y-92594600D01*
X156726100Y-92693336D01*
X156726100Y-94852168D01*
X156400200Y-94716843D01*
X155844439Y-94716358D01*
X155330797Y-94928590D01*
X154937471Y-95321230D01*
X154724343Y-95834500D01*
X154723858Y-96390261D01*
X154936090Y-96903903D01*
X155328730Y-97297229D01*
X155536612Y-97383549D01*
X155330797Y-97468590D01*
X154937471Y-97861230D01*
X154724343Y-98374500D01*
X154723858Y-98930261D01*
X154936090Y-99443903D01*
X155328730Y-99837229D01*
X155536612Y-99923549D01*
X155330797Y-100008590D01*
X154937471Y-100401230D01*
X154724343Y-100914500D01*
X154723858Y-101470261D01*
X154936090Y-101983903D01*
X155328730Y-102377229D01*
X155536612Y-102463549D01*
X155330797Y-102548590D01*
X154937471Y-102941230D01*
X154724343Y-103454500D01*
X154723858Y-104010261D01*
X154936090Y-104523903D01*
X155328730Y-104917229D01*
X155842000Y-105130357D01*
X156397761Y-105130842D01*
X156726100Y-104995175D01*
X156726100Y-110092168D01*
X156400200Y-109956843D01*
X155844439Y-109956358D01*
X155330797Y-110168590D01*
X154937471Y-110561230D01*
X154724343Y-111074500D01*
X154723858Y-111630261D01*
X154936090Y-112143903D01*
X155328730Y-112537229D01*
X155536612Y-112623549D01*
X155330797Y-112708590D01*
X154937471Y-113101230D01*
X154724343Y-113614500D01*
X154723858Y-114170261D01*
X154936090Y-114683903D01*
X155328730Y-115077229D01*
X155536612Y-115163549D01*
X155330797Y-115248590D01*
X154937471Y-115641230D01*
X154724343Y-116154500D01*
X154723858Y-116710261D01*
X154936090Y-117223903D01*
X155328730Y-117617229D01*
X155536612Y-117703549D01*
X155330797Y-117788590D01*
X154937471Y-118181230D01*
X154724343Y-118694500D01*
X154723858Y-119250261D01*
X154936090Y-119763903D01*
X155328730Y-120157229D01*
X155536612Y-120243549D01*
X155330797Y-120328590D01*
X154937471Y-120721230D01*
X154724343Y-121234500D01*
X154723858Y-121790261D01*
X154936090Y-122303903D01*
X155328730Y-122697229D01*
X155536612Y-122783549D01*
X155330797Y-122868590D01*
X154937471Y-123261230D01*
X154724343Y-123774500D01*
X154723858Y-124330261D01*
X154936090Y-124843903D01*
X155328730Y-125237229D01*
X155536612Y-125323549D01*
X155330797Y-125408590D01*
X154937471Y-125801230D01*
X154724343Y-126314500D01*
X154723858Y-126870261D01*
X154936090Y-127383903D01*
X155328730Y-127777229D01*
X155520827Y-127856995D01*
X155389957Y-127911203D01*
X155320492Y-128153387D01*
X156121100Y-128953995D01*
X156135243Y-128939853D01*
X156314848Y-129119458D01*
X156300705Y-129133600D01*
X156314848Y-129147743D01*
X156135243Y-129327348D01*
X156121100Y-129313205D01*
X155320492Y-130113813D01*
X155389957Y-130355997D01*
X155530418Y-130406109D01*
X155330797Y-130488590D01*
X154937471Y-130881230D01*
X154724343Y-131394500D01*
X154723858Y-131950261D01*
X154936090Y-132463903D01*
X155328730Y-132857229D01*
X155842000Y-133070357D01*
X156397761Y-133070842D01*
X156726100Y-132935175D01*
X156726100Y-139474600D01*
X154457140Y-139474600D01*
X154457140Y-137795000D01*
X154412862Y-137559683D01*
X154273790Y-137343559D01*
X154061590Y-137198569D01*
X153809700Y-137147560D01*
X152082500Y-137147560D01*
X151847183Y-137191838D01*
X151631059Y-137330910D01*
X151486069Y-137543110D01*
X151435060Y-137795000D01*
X151435060Y-139474600D01*
X149108202Y-139474600D01*
X149250626Y-139261448D01*
X149364700Y-138687959D01*
X149364700Y-138629241D01*
X149250626Y-138055752D01*
X148925770Y-137569571D01*
X148439589Y-137244715D01*
X147866100Y-137130641D01*
X147292611Y-137244715D01*
X146806430Y-137569571D01*
X146481574Y-138055752D01*
X146367500Y-138629241D01*
X146367500Y-138687959D01*
X146481574Y-139261448D01*
X146623998Y-139474600D01*
X121333330Y-139474600D01*
X121495371Y-139232089D01*
X121609445Y-138658600D01*
X121495371Y-138085111D01*
X121170515Y-137598930D01*
X120855734Y-137388600D01*
X121170515Y-137178270D01*
X121495371Y-136692089D01*
X121595272Y-136189852D01*
X121599947Y-136213351D01*
X121648467Y-136457275D01*
X121787674Y-136665614D01*
X121840310Y-136744390D01*
X123745308Y-138649387D01*
X123745310Y-138649390D01*
X124032425Y-138841233D01*
X124088616Y-138852410D01*
X124371100Y-138908601D01*
X124371105Y-138908600D01*
X141516095Y-138908600D01*
X141516100Y-138908601D01*
X141798584Y-138852410D01*
X141854775Y-138841233D01*
X142141890Y-138649390D01*
X145316887Y-135474392D01*
X145316890Y-135474390D01*
X145508733Y-135187275D01*
X145519910Y-135131084D01*
X145576101Y-134848600D01*
X145576100Y-134848595D01*
X145576100Y-133549241D01*
X146367500Y-133549241D01*
X146367500Y-133607959D01*
X146481574Y-134181448D01*
X146806430Y-134667629D01*
X147292611Y-134992485D01*
X147866100Y-135106559D01*
X148439589Y-134992485D01*
X148925770Y-134667629D01*
X149250626Y-134181448D01*
X149299124Y-133937627D01*
X151491132Y-133937627D01*
X151739279Y-134467090D01*
X152171153Y-134861288D01*
X152587074Y-135033558D01*
X152819100Y-134912417D01*
X152819100Y-133705600D01*
X153073100Y-133705600D01*
X153073100Y-134912417D01*
X153305126Y-135033558D01*
X153721047Y-134861288D01*
X154152921Y-134467090D01*
X154401068Y-133937627D01*
X154280569Y-133705600D01*
X153073100Y-133705600D01*
X152819100Y-133705600D01*
X151611631Y-133705600D01*
X151491132Y-133937627D01*
X149299124Y-133937627D01*
X149364700Y-133607959D01*
X149364700Y-133549241D01*
X149299125Y-133219573D01*
X151491132Y-133219573D01*
X151611631Y-133451600D01*
X152819100Y-133451600D01*
X152819100Y-132244783D01*
X153073100Y-132244783D01*
X153073100Y-133451600D01*
X154280569Y-133451600D01*
X154401068Y-133219573D01*
X154152921Y-132690110D01*
X153721047Y-132295912D01*
X153305126Y-132123642D01*
X153073100Y-132244783D01*
X152819100Y-132244783D01*
X152587074Y-132123642D01*
X152171153Y-132295912D01*
X151739279Y-132690110D01*
X151491132Y-133219573D01*
X149299125Y-133219573D01*
X149250626Y-132975752D01*
X148925770Y-132489571D01*
X148439589Y-132164715D01*
X147866100Y-132050641D01*
X147292611Y-132164715D01*
X146806430Y-132489571D01*
X146481574Y-132975752D01*
X146367500Y-133549241D01*
X145576100Y-133549241D01*
X145576100Y-128925902D01*
X154711956Y-128925902D01*
X154739738Y-129480968D01*
X154898703Y-129864743D01*
X155140887Y-129934208D01*
X155941495Y-129133600D01*
X155140887Y-128332992D01*
X154898703Y-128402457D01*
X154711956Y-128925902D01*
X145576100Y-128925902D01*
X145576100Y-126960180D01*
X147856887Y-124679392D01*
X147856890Y-124679390D01*
X148048733Y-124392275D01*
X148116100Y-124053600D01*
X148116100Y-112623605D01*
X148116101Y-112623600D01*
X148048734Y-112284926D01*
X147955887Y-112145970D01*
X147856890Y-111997810D01*
X147856887Y-111997808D01*
X147731203Y-111872123D01*
X147731297Y-111763825D01*
X147558867Y-111346514D01*
X147239865Y-111026955D01*
X146822856Y-110853797D01*
X146371325Y-110853403D01*
X145954014Y-111025833D01*
X145634455Y-111344835D01*
X145461297Y-111761844D01*
X145460903Y-112213375D01*
X145633333Y-112630686D01*
X145952335Y-112950245D01*
X146346100Y-113113751D01*
X146346100Y-123687021D01*
X144306100Y-125727020D01*
X144306100Y-114613876D01*
X144382745Y-114537365D01*
X144555903Y-114120356D01*
X144556297Y-113668825D01*
X144383867Y-113251514D01*
X144064865Y-112931955D01*
X143647856Y-112758797D01*
X143196325Y-112758403D01*
X142779014Y-112930833D01*
X142459455Y-113249835D01*
X142286297Y-113666844D01*
X142285903Y-114118375D01*
X142458333Y-114535686D01*
X142536100Y-114613589D01*
X142536100Y-133847021D01*
X141149520Y-135233600D01*
X140477680Y-135233600D01*
X141506887Y-134204392D01*
X141506890Y-134204390D01*
X141698733Y-133917275D01*
X141733650Y-133741738D01*
X141766101Y-133578600D01*
X141766100Y-133578595D01*
X141766100Y-122233876D01*
X141842745Y-122157365D01*
X142015903Y-121740356D01*
X142016297Y-121288825D01*
X141843867Y-120871514D01*
X141524865Y-120551955D01*
X141107856Y-120378797D01*
X140656325Y-120378403D01*
X140239014Y-120550833D01*
X139936100Y-120853219D01*
X139936100Y-120004332D01*
X140088730Y-120157229D01*
X140602000Y-120370357D01*
X141157761Y-120370842D01*
X141671403Y-120158610D01*
X142064729Y-119765970D01*
X142277857Y-119252700D01*
X142278342Y-118696939D01*
X142066110Y-118183297D01*
X141673470Y-117789971D01*
X141465588Y-117703651D01*
X141671403Y-117618610D01*
X142064729Y-117225970D01*
X142277857Y-116712700D01*
X142278342Y-116156939D01*
X142066110Y-115643297D01*
X141673470Y-115249971D01*
X141465588Y-115163651D01*
X141671403Y-115078610D01*
X142064729Y-114685970D01*
X142277857Y-114172700D01*
X142278342Y-113616939D01*
X142066110Y-113103297D01*
X141673470Y-112709971D01*
X141465588Y-112623651D01*
X141671403Y-112538610D01*
X142064729Y-112145970D01*
X142277857Y-111632700D01*
X142278342Y-111076939D01*
X142066110Y-110563297D01*
X141673470Y-110169971D01*
X141465588Y-110083651D01*
X141671403Y-109998610D01*
X142064729Y-109605970D01*
X142277857Y-109092700D01*
X142278342Y-108536939D01*
X142066110Y-108023297D01*
X141673470Y-107629971D01*
X141465588Y-107543651D01*
X141671403Y-107458610D01*
X142064729Y-107065970D01*
X142277857Y-106552700D01*
X142278342Y-105996939D01*
X142066110Y-105483297D01*
X141673470Y-105089971D01*
X141465588Y-105003651D01*
X141671403Y-104918610D01*
X142064729Y-104525970D01*
X142173362Y-104264350D01*
X149116100Y-104264350D01*
X149116100Y-105354909D01*
X149212773Y-105588298D01*
X149391401Y-105766927D01*
X149624790Y-105863600D01*
X150715350Y-105863600D01*
X150874100Y-105704850D01*
X150874100Y-104105600D01*
X151128100Y-104105600D01*
X151128100Y-105704850D01*
X151286850Y-105863600D01*
X152377410Y-105863600D01*
X152610799Y-105766927D01*
X152789427Y-105588298D01*
X152886100Y-105354909D01*
X152886100Y-104264350D01*
X152727350Y-104105600D01*
X151128100Y-104105600D01*
X150874100Y-104105600D01*
X149274850Y-104105600D01*
X149116100Y-104264350D01*
X142173362Y-104264350D01*
X142277857Y-104012700D01*
X142278342Y-103456939D01*
X142066110Y-102943297D01*
X141673470Y-102549971D01*
X141465588Y-102463651D01*
X141465711Y-102463600D01*
X146918074Y-102463600D01*
X147038575Y-103069398D01*
X147381732Y-103582968D01*
X147895302Y-103926125D01*
X148501100Y-104046626D01*
X149106898Y-103926125D01*
X149252252Y-103829002D01*
X149274850Y-103851600D01*
X150874100Y-103851600D01*
X150874100Y-102252350D01*
X151128100Y-102252350D01*
X151128100Y-103851600D01*
X152727350Y-103851600D01*
X152886100Y-103692850D01*
X152886100Y-102602291D01*
X152789427Y-102368902D01*
X152610799Y-102190273D01*
X152377410Y-102093600D01*
X151286850Y-102093600D01*
X151128100Y-102252350D01*
X150874100Y-102252350D01*
X150715350Y-102093600D01*
X150010528Y-102093600D01*
X149963625Y-101857802D01*
X149620468Y-101344232D01*
X149106898Y-101001075D01*
X148501100Y-100880574D01*
X147895302Y-101001075D01*
X147381732Y-101344232D01*
X147038575Y-101857802D01*
X146918074Y-102463600D01*
X141465711Y-102463600D01*
X141671403Y-102378610D01*
X142064729Y-101985970D01*
X142277857Y-101472700D01*
X142278342Y-100916939D01*
X142066110Y-100403297D01*
X141673470Y-100009971D01*
X141465588Y-99923651D01*
X141671403Y-99838610D01*
X142064729Y-99445970D01*
X142277857Y-98932700D01*
X142278342Y-98376939D01*
X142066110Y-97863297D01*
X141673470Y-97469971D01*
X141465588Y-97383651D01*
X141671403Y-97298610D01*
X142064729Y-96905970D01*
X142277857Y-96392700D01*
X142278342Y-95836939D01*
X142066110Y-95323297D01*
X141871753Y-95128600D01*
X144103660Y-95128600D01*
X144103660Y-97628600D01*
X144147938Y-97863917D01*
X144287010Y-98080041D01*
X144499210Y-98225031D01*
X144751100Y-98276040D01*
X147251100Y-98276040D01*
X147486417Y-98231762D01*
X147702541Y-98092690D01*
X147847531Y-97880490D01*
X147898540Y-97628600D01*
X147898540Y-96941769D01*
X148501100Y-97061626D01*
X149106898Y-96941125D01*
X149620468Y-96597968D01*
X149707797Y-96467271D01*
X149751100Y-96476040D01*
X152251100Y-96476040D01*
X152486417Y-96431762D01*
X152702541Y-96292690D01*
X152847531Y-96080490D01*
X152898540Y-95828600D01*
X152898540Y-93328600D01*
X152854262Y-93093283D01*
X152715190Y-92877159D01*
X152502990Y-92732169D01*
X152251100Y-92681160D01*
X149751100Y-92681160D01*
X149515783Y-92725438D01*
X149299659Y-92864510D01*
X149154669Y-93076710D01*
X149103660Y-93328600D01*
X149103660Y-94015431D01*
X148501100Y-93895574D01*
X147895302Y-94016075D01*
X147381732Y-94359232D01*
X147294403Y-94489929D01*
X147251100Y-94481160D01*
X144751100Y-94481160D01*
X144515783Y-94525438D01*
X144299659Y-94664510D01*
X144154669Y-94876710D01*
X144103660Y-95128600D01*
X141871753Y-95128600D01*
X141673470Y-94929971D01*
X141160200Y-94716843D01*
X140604439Y-94716358D01*
X140090797Y-94928590D01*
X139697471Y-95321230D01*
X139484343Y-95834500D01*
X139483858Y-96390261D01*
X139696090Y-96903903D01*
X140088730Y-97297229D01*
X140296612Y-97383549D01*
X140090797Y-97468590D01*
X139697471Y-97861230D01*
X139484343Y-98374500D01*
X139483858Y-98930261D01*
X139696090Y-99443903D01*
X140088730Y-99837229D01*
X140296612Y-99923549D01*
X140090797Y-100008590D01*
X139697471Y-100401230D01*
X139484343Y-100914500D01*
X139483858Y-101470261D01*
X139696090Y-101983903D01*
X140088730Y-102377229D01*
X140296612Y-102463549D01*
X140090797Y-102548590D01*
X139697471Y-102941230D01*
X139484343Y-103454500D01*
X139483858Y-104010261D01*
X139696090Y-104523903D01*
X140088730Y-104917229D01*
X140296612Y-105003549D01*
X140090797Y-105088590D01*
X139697471Y-105481230D01*
X139484343Y-105994500D01*
X139483858Y-106550261D01*
X139696090Y-107063903D01*
X140088730Y-107457229D01*
X140296612Y-107543549D01*
X140090797Y-107628590D01*
X139697471Y-108021230D01*
X139484343Y-108534500D01*
X139483858Y-109090261D01*
X139696090Y-109603903D01*
X140088730Y-109997229D01*
X140296612Y-110083549D01*
X140090797Y-110168590D01*
X139891858Y-110367182D01*
X139883957Y-110327462D01*
X139735468Y-110105232D01*
X139235468Y-109605232D01*
X139013238Y-109456743D01*
X138751100Y-109404600D01*
X127851100Y-109404600D01*
X127588962Y-109456743D01*
X127366732Y-109605232D01*
X126876732Y-110095232D01*
X126728243Y-110317462D01*
X126676100Y-110579600D01*
X126676100Y-132989600D01*
X126728243Y-133251738D01*
X126876732Y-133473968D01*
X127366364Y-133963600D01*
X127277679Y-133963600D01*
X126526100Y-133212020D01*
X126526100Y-129768600D01*
X126458733Y-129429925D01*
X126266890Y-129142810D01*
X126266887Y-129142808D01*
X124236203Y-127112123D01*
X124236297Y-127003825D01*
X124063867Y-126586514D01*
X123744865Y-126266955D01*
X123327856Y-126093797D01*
X122876325Y-126093403D01*
X122459014Y-126265833D01*
X122139455Y-126584835D01*
X121966297Y-127001844D01*
X121965903Y-127453375D01*
X122138333Y-127870686D01*
X122457335Y-128190245D01*
X122597869Y-128248600D01*
X117471376Y-128248600D01*
X117394865Y-128171955D01*
X116977856Y-127998797D01*
X116526325Y-127998403D01*
X116109014Y-128170833D01*
X115789455Y-128489835D01*
X115616297Y-128906844D01*
X115615903Y-129358375D01*
X115788333Y-129775686D01*
X116107335Y-130095245D01*
X116247869Y-130153600D01*
X115566376Y-130153600D01*
X115489865Y-130076955D01*
X115072856Y-129903797D01*
X114621325Y-129903403D01*
X114204014Y-130075833D01*
X113884455Y-130394835D01*
X113711297Y-130811844D01*
X113710903Y-131263375D01*
X113883333Y-131680686D01*
X114202335Y-132000245D01*
X114364447Y-132067560D01*
X112560100Y-132067560D01*
X112324783Y-132111838D01*
X112108659Y-132250910D01*
X111963669Y-132463110D01*
X111912660Y-132715000D01*
X111912660Y-134442200D01*
X111956938Y-134677517D01*
X112096010Y-134893641D01*
X112308210Y-135038631D01*
X112349539Y-135047000D01*
X112331685Y-135058930D01*
X112006829Y-135545111D01*
X111892755Y-136118600D01*
X112006829Y-136692089D01*
X112331685Y-137178270D01*
X112646466Y-137388600D01*
X112331685Y-137598930D01*
X112006829Y-138085111D01*
X111892755Y-138658600D01*
X112006829Y-139232089D01*
X112168870Y-139474600D01*
X106206100Y-139474600D01*
X106206100Y-136506800D01*
X107355700Y-136506800D01*
X107491575Y-137189890D01*
X107878514Y-137768986D01*
X108457610Y-138155925D01*
X109140700Y-138291800D01*
X109823790Y-138155925D01*
X110402886Y-137768986D01*
X110789825Y-137189890D01*
X110925700Y-136506800D01*
X110789825Y-135823710D01*
X110402886Y-135244614D01*
X109823790Y-134857675D01*
X109140700Y-134721800D01*
X108457610Y-134857675D01*
X107878514Y-135244614D01*
X107491575Y-135823710D01*
X107355700Y-136506800D01*
X106206100Y-136506800D01*
X106206100Y-133829600D01*
X106153957Y-133567462D01*
X106005468Y-133345232D01*
X101504049Y-128843813D01*
X107822492Y-128843813D01*
X107891957Y-129085997D01*
X108415402Y-129272744D01*
X108970468Y-129244962D01*
X109354243Y-129085997D01*
X109423708Y-128843813D01*
X108623100Y-128043205D01*
X107822492Y-128843813D01*
X101504049Y-128843813D01*
X100316138Y-127655902D01*
X107213956Y-127655902D01*
X107241738Y-128210968D01*
X107400703Y-128594743D01*
X107642887Y-128664208D01*
X108443495Y-127863600D01*
X108802705Y-127863600D01*
X109603313Y-128664208D01*
X109845497Y-128594743D01*
X110007640Y-128140261D01*
X112305858Y-128140261D01*
X112518090Y-128653903D01*
X112910730Y-129047229D01*
X113424000Y-129260357D01*
X113979761Y-129260842D01*
X114493403Y-129048610D01*
X114886729Y-128655970D01*
X115099857Y-128142700D01*
X115100236Y-127708883D01*
X125000582Y-117690675D01*
X125094199Y-117548757D01*
X125188733Y-117407275D01*
X125189254Y-117404657D01*
X125190723Y-117402430D01*
X125222942Y-117235294D01*
X125256100Y-117068600D01*
X125256100Y-112708876D01*
X125332745Y-112632365D01*
X125505903Y-112215356D01*
X125506297Y-111763825D01*
X125333867Y-111346514D01*
X125014865Y-111026955D01*
X124597856Y-110853797D01*
X124146325Y-110853403D01*
X123729014Y-111025833D01*
X123409455Y-111344835D01*
X123236297Y-111761844D01*
X123235903Y-112213375D01*
X123408333Y-112630686D01*
X123486100Y-112708589D01*
X123486100Y-116705085D01*
X113839309Y-126466718D01*
X113426439Y-126466358D01*
X112912797Y-126678590D01*
X112519471Y-127071230D01*
X112306343Y-127584500D01*
X112305858Y-128140261D01*
X110007640Y-128140261D01*
X110032244Y-128071298D01*
X110004462Y-127516232D01*
X109845497Y-127132457D01*
X109603313Y-127062992D01*
X108802705Y-127863600D01*
X108443495Y-127863600D01*
X107642887Y-127062992D01*
X107400703Y-127132457D01*
X107213956Y-127655902D01*
X100316138Y-127655902D01*
X99543623Y-126883387D01*
X107822492Y-126883387D01*
X108623100Y-127683995D01*
X109423708Y-126883387D01*
X109354243Y-126641203D01*
X108830798Y-126454456D01*
X108275732Y-126482238D01*
X107891957Y-126641203D01*
X107822492Y-126883387D01*
X99543623Y-126883387D01*
X97296100Y-124635864D01*
X97296100Y-114909600D01*
X107366060Y-114909600D01*
X107366060Y-116941600D01*
X107410338Y-117176917D01*
X107549410Y-117393041D01*
X107742100Y-117524700D01*
X107742100Y-119354600D01*
X107828497Y-119788946D01*
X108047267Y-120116358D01*
X108074534Y-120157166D01*
X110233120Y-122315752D01*
X110392335Y-122475245D01*
X110809344Y-122648403D01*
X111260875Y-122648797D01*
X111678186Y-122476367D01*
X111997745Y-122157365D01*
X112170903Y-121740356D01*
X112171297Y-121288825D01*
X111998867Y-120871514D01*
X111679865Y-120551955D01*
X111679390Y-120551758D01*
X110012100Y-118884468D01*
X110012100Y-117521543D01*
X110192141Y-117405690D01*
X110337131Y-117193490D01*
X110345500Y-117152161D01*
X110357430Y-117170015D01*
X110843611Y-117494871D01*
X111417100Y-117608945D01*
X111990589Y-117494871D01*
X112476770Y-117170015D01*
X112687100Y-116855234D01*
X112897430Y-117170015D01*
X113383611Y-117494871D01*
X113957100Y-117608945D01*
X114530589Y-117494871D01*
X115016770Y-117170015D01*
X115341626Y-116683834D01*
X115455700Y-116110345D01*
X115455700Y-115740855D01*
X115341626Y-115167366D01*
X115016770Y-114681185D01*
X114530589Y-114356329D01*
X113957100Y-114242255D01*
X113383611Y-114356329D01*
X112897430Y-114681185D01*
X112687100Y-114995966D01*
X112552100Y-114793924D01*
X112552100Y-113347732D01*
X113743666Y-112156167D01*
X113743667Y-112156166D01*
X113902745Y-111997365D01*
X114075903Y-111580356D01*
X114076297Y-111128825D01*
X113903867Y-110711514D01*
X113584865Y-110391955D01*
X113167856Y-110218797D01*
X112716325Y-110218403D01*
X112299014Y-110390833D01*
X111979455Y-110709835D01*
X111979258Y-110710309D01*
X110614534Y-112075034D01*
X110368497Y-112443254D01*
X110282100Y-112877600D01*
X110282100Y-114578302D01*
X110204790Y-114458159D01*
X109992590Y-114313169D01*
X109740700Y-114262160D01*
X108013500Y-114262160D01*
X107778183Y-114306438D01*
X107562059Y-114445510D01*
X107417069Y-114657710D01*
X107366060Y-114909600D01*
X97296100Y-114909600D01*
X97296100Y-103697813D01*
X98170492Y-103697813D01*
X98239957Y-103939997D01*
X98763402Y-104126744D01*
X99318468Y-104098962D01*
X99702243Y-103939997D01*
X99771708Y-103697813D01*
X98971100Y-102897205D01*
X98170492Y-103697813D01*
X97296100Y-103697813D01*
X97296100Y-102509902D01*
X97561956Y-102509902D01*
X97589738Y-103064968D01*
X97748703Y-103448743D01*
X97990887Y-103518208D01*
X98791495Y-102717600D01*
X99150705Y-102717600D01*
X99951313Y-103518208D01*
X100193497Y-103448743D01*
X100355640Y-102994261D01*
X102653858Y-102994261D01*
X102866090Y-103507903D01*
X103258730Y-103901229D01*
X103772000Y-104114357D01*
X104327761Y-104114842D01*
X104841403Y-103902610D01*
X105046557Y-103697813D01*
X109600492Y-103697813D01*
X109669957Y-103939997D01*
X110193402Y-104126744D01*
X110748468Y-104098962D01*
X111132243Y-103939997D01*
X111201708Y-103697813D01*
X110401100Y-102897205D01*
X109600492Y-103697813D01*
X105046557Y-103697813D01*
X105141937Y-103602600D01*
X105702095Y-103602600D01*
X105702100Y-103602601D01*
X105984584Y-103546410D01*
X106040775Y-103535233D01*
X106327890Y-103343390D01*
X107161377Y-102509902D01*
X108991956Y-102509902D01*
X109019738Y-103064968D01*
X109178703Y-103448743D01*
X109420887Y-103518208D01*
X110221495Y-102717600D01*
X110580705Y-102717600D01*
X111381313Y-103518208D01*
X111623497Y-103448743D01*
X111785640Y-102994261D01*
X114083858Y-102994261D01*
X114296090Y-103507903D01*
X114596100Y-103808437D01*
X114596100Y-105003595D01*
X114596099Y-105003600D01*
X114621410Y-105130842D01*
X114663467Y-105342275D01*
X114827853Y-105588298D01*
X114855310Y-105629390D01*
X118030308Y-108804387D01*
X118030310Y-108804390D01*
X118317425Y-108996233D01*
X118373616Y-109007410D01*
X118656100Y-109063601D01*
X118656105Y-109063600D01*
X135166095Y-109063600D01*
X135166100Y-109063601D01*
X135448584Y-109007410D01*
X135504775Y-108996233D01*
X135791890Y-108804390D01*
X135791891Y-108804389D01*
X137061887Y-107534392D01*
X137061890Y-107534390D01*
X137253733Y-107247275D01*
X137321101Y-106908600D01*
X137321100Y-106908595D01*
X137321100Y-103818876D01*
X137397745Y-103742365D01*
X137570903Y-103325356D01*
X137571297Y-102873825D01*
X137398867Y-102456514D01*
X137079865Y-102136955D01*
X136662856Y-101963797D01*
X136211325Y-101963403D01*
X135794014Y-102135833D01*
X135474455Y-102454835D01*
X135301297Y-102871844D01*
X135300903Y-103323375D01*
X135473333Y-103740686D01*
X135551100Y-103818589D01*
X135551100Y-106542021D01*
X134799520Y-107293600D01*
X119022679Y-107293600D01*
X116366100Y-104637020D01*
X116366100Y-103808078D01*
X116476557Y-103697813D01*
X122300492Y-103697813D01*
X122369957Y-103939997D01*
X122893402Y-104126744D01*
X123448468Y-104098962D01*
X123832243Y-103939997D01*
X123901708Y-103697813D01*
X123101100Y-102897205D01*
X122300492Y-103697813D01*
X116476557Y-103697813D01*
X116664729Y-103509970D01*
X116877857Y-102996700D01*
X116878281Y-102509902D01*
X121691956Y-102509902D01*
X121719738Y-103064968D01*
X121878703Y-103448743D01*
X122120887Y-103518208D01*
X122921495Y-102717600D01*
X123280705Y-102717600D01*
X124081313Y-103518208D01*
X124323497Y-103448743D01*
X124485640Y-102994261D01*
X126783858Y-102994261D01*
X126996090Y-103507903D01*
X127388730Y-103901229D01*
X127902000Y-104114357D01*
X128457761Y-104114842D01*
X128971403Y-103902610D01*
X129271937Y-103602600D01*
X132513520Y-103602600D01*
X132760997Y-103850077D01*
X132760903Y-103958375D01*
X132933333Y-104375686D01*
X133252335Y-104695245D01*
X133669344Y-104868403D01*
X134120875Y-104868797D01*
X134538186Y-104696367D01*
X134857745Y-104377365D01*
X135030903Y-103960356D01*
X135031297Y-103508825D01*
X134858867Y-103091514D01*
X134539865Y-102771955D01*
X134122856Y-102598797D01*
X134012780Y-102598701D01*
X133505890Y-102091810D01*
X133347488Y-101985970D01*
X133218775Y-101899967D01*
X133162584Y-101888790D01*
X132880100Y-101832599D01*
X132880095Y-101832600D01*
X129271578Y-101832600D01*
X128973470Y-101533971D01*
X128460200Y-101320843D01*
X127904439Y-101320358D01*
X127390797Y-101532590D01*
X126997471Y-101925230D01*
X126784343Y-102438500D01*
X126783858Y-102994261D01*
X124485640Y-102994261D01*
X124510244Y-102925298D01*
X124482462Y-102370232D01*
X124323497Y-101986457D01*
X124081313Y-101916992D01*
X123280705Y-102717600D01*
X122921495Y-102717600D01*
X122120887Y-101916992D01*
X121878703Y-101986457D01*
X121691956Y-102509902D01*
X116878281Y-102509902D01*
X116878342Y-102440939D01*
X116666110Y-101927297D01*
X116476532Y-101737387D01*
X122300492Y-101737387D01*
X123101100Y-102537995D01*
X123901708Y-101737387D01*
X123832243Y-101495203D01*
X123308798Y-101308456D01*
X122753732Y-101336238D01*
X122369957Y-101495203D01*
X122300492Y-101737387D01*
X116476532Y-101737387D01*
X116273470Y-101533971D01*
X115760200Y-101320843D01*
X115204439Y-101320358D01*
X114690797Y-101532590D01*
X114297471Y-101925230D01*
X114084343Y-102438500D01*
X114083858Y-102994261D01*
X111785640Y-102994261D01*
X111810244Y-102925298D01*
X111782462Y-102370232D01*
X111623497Y-101986457D01*
X111381313Y-101916992D01*
X110580705Y-102717600D01*
X110221495Y-102717600D01*
X109420887Y-101916992D01*
X109178703Y-101986457D01*
X108991956Y-102509902D01*
X107161377Y-102509902D01*
X107933892Y-101737387D01*
X109600492Y-101737387D01*
X110401100Y-102537995D01*
X111201708Y-101737387D01*
X111132243Y-101495203D01*
X110608798Y-101308456D01*
X110053732Y-101336238D01*
X109669957Y-101495203D01*
X109600492Y-101737387D01*
X107933892Y-101737387D01*
X111484479Y-98186800D01*
X134975700Y-98186800D01*
X135111575Y-98869890D01*
X135498514Y-99448986D01*
X136077610Y-99835925D01*
X136760700Y-99971800D01*
X137443790Y-99835925D01*
X138022886Y-99448986D01*
X138409825Y-98869890D01*
X138545700Y-98186800D01*
X138409825Y-97503710D01*
X138022886Y-96924614D01*
X137443790Y-96537675D01*
X136760700Y-96401800D01*
X136077610Y-96537675D01*
X135498514Y-96924614D01*
X135111575Y-97503710D01*
X134975700Y-98186800D01*
X111484479Y-98186800D01*
X112037679Y-97633600D01*
X128095824Y-97633600D01*
X128172335Y-97710245D01*
X128589344Y-97883403D01*
X129040875Y-97883797D01*
X129458186Y-97711367D01*
X129777745Y-97392365D01*
X129950903Y-96975356D01*
X129951297Y-96523825D01*
X129778867Y-96106514D01*
X129459865Y-95786955D01*
X129042856Y-95613797D01*
X128591325Y-95613403D01*
X128174014Y-95785833D01*
X128096111Y-95863600D01*
X111671105Y-95863600D01*
X111671100Y-95863599D01*
X111388616Y-95919790D01*
X111332425Y-95930967D01*
X111045310Y-96122810D01*
X111045308Y-96122813D01*
X105335520Y-101832600D01*
X105141578Y-101832600D01*
X104843470Y-101533971D01*
X104330200Y-101320843D01*
X103774439Y-101320358D01*
X103260797Y-101532590D01*
X102867471Y-101925230D01*
X102654343Y-102438500D01*
X102653858Y-102994261D01*
X100355640Y-102994261D01*
X100380244Y-102925298D01*
X100352462Y-102370232D01*
X100193497Y-101986457D01*
X99951313Y-101916992D01*
X99150705Y-102717600D01*
X98791495Y-102717600D01*
X97990887Y-101916992D01*
X97748703Y-101986457D01*
X97561956Y-102509902D01*
X97296100Y-102509902D01*
X97296100Y-101737387D01*
X98170492Y-101737387D01*
X98971100Y-102537995D01*
X99771708Y-101737387D01*
X99702243Y-101495203D01*
X99178798Y-101308456D01*
X98623732Y-101336238D01*
X98239957Y-101495203D01*
X98170492Y-101737387D01*
X97296100Y-101737387D01*
X97296100Y-97714600D01*
X106111100Y-97714600D01*
X106373238Y-97662457D01*
X106595468Y-97513968D01*
X107085468Y-97023968D01*
X107233957Y-96801738D01*
X107286100Y-96539600D01*
X107286100Y-92723336D01*
X107384836Y-92624600D01*
X110441100Y-92624600D01*
X110703238Y-92572457D01*
X110925468Y-92423968D01*
X111425468Y-91923968D01*
X111573957Y-91701738D01*
X111580548Y-91668600D01*
X112583660Y-91668600D01*
X112583660Y-93668600D01*
X112627938Y-93903917D01*
X112767010Y-94120041D01*
X112979210Y-94265031D01*
X113231100Y-94316040D01*
X117731100Y-94316040D01*
X117966417Y-94271762D01*
X118182541Y-94132690D01*
X118327531Y-93920490D01*
X118378540Y-93668600D01*
X118378540Y-91668600D01*
X118334262Y-91433283D01*
X118195190Y-91217159D01*
X117982990Y-91072169D01*
X117731100Y-91021160D01*
X113231100Y-91021160D01*
X112995783Y-91065438D01*
X112779659Y-91204510D01*
X112634669Y-91416710D01*
X112583660Y-91668600D01*
X111580548Y-91668600D01*
X111626100Y-91439600D01*
X111626100Y-86954350D01*
X112596100Y-86954350D01*
X112596100Y-87794909D01*
X112692773Y-88028298D01*
X112871401Y-88206927D01*
X113104790Y-88303600D01*
X115195350Y-88303600D01*
X115354100Y-88144850D01*
X115354100Y-86795600D01*
X115608100Y-86795600D01*
X115608100Y-88144850D01*
X115766850Y-88303600D01*
X117857410Y-88303600D01*
X118090799Y-88206927D01*
X118269427Y-88028298D01*
X118366100Y-87794909D01*
X118366100Y-86954350D01*
X118207350Y-86795600D01*
X115608100Y-86795600D01*
X115354100Y-86795600D01*
X112754850Y-86795600D01*
X112596100Y-86954350D01*
X111626100Y-86954350D01*
X111626100Y-86153336D01*
X111724836Y-86054600D01*
X112596100Y-86054600D01*
X112596100Y-86382850D01*
X112596100Y-86382850D01*
G37*
X112596100Y-86382850D02*
X112754850Y-86541600D01*
X115354100Y-86541600D01*
X115354100Y-86521600D01*
X115608100Y-86521600D01*
X115608100Y-86541600D01*
X118207350Y-86541600D01*
X118366100Y-86382850D01*
X118366100Y-86054600D01*
X119157364Y-86054600D01*
X119256100Y-86153336D01*
X119256100Y-91409600D01*
X119308243Y-91671738D01*
X119456732Y-91893968D01*
X119956732Y-92393968D01*
X120178962Y-92542457D01*
X120441100Y-92594600D01*
X156627364Y-92594600D01*
X156726100Y-92693336D01*
X156726100Y-94852168D01*
X156400200Y-94716843D01*
X155844439Y-94716358D01*
X155330797Y-94928590D01*
X154937471Y-95321230D01*
X154724343Y-95834500D01*
X154723858Y-96390261D01*
X154936090Y-96903903D01*
X155328730Y-97297229D01*
X155536612Y-97383549D01*
X155330797Y-97468590D01*
X154937471Y-97861230D01*
X154724343Y-98374500D01*
X154723858Y-98930261D01*
X154936090Y-99443903D01*
X155328730Y-99837229D01*
X155536612Y-99923549D01*
X155330797Y-100008590D01*
X154937471Y-100401230D01*
X154724343Y-100914500D01*
X154723858Y-101470261D01*
X154936090Y-101983903D01*
X155328730Y-102377229D01*
X155536612Y-102463549D01*
X155330797Y-102548590D01*
X154937471Y-102941230D01*
X154724343Y-103454500D01*
X154723858Y-104010261D01*
X154936090Y-104523903D01*
X155328730Y-104917229D01*
X155842000Y-105130357D01*
X156397761Y-105130842D01*
X156726100Y-104995175D01*
X156726100Y-110092168D01*
X156400200Y-109956843D01*
X155844439Y-109956358D01*
X155330797Y-110168590D01*
X154937471Y-110561230D01*
X154724343Y-111074500D01*
X154723858Y-111630261D01*
X154936090Y-112143903D01*
X155328730Y-112537229D01*
X155536612Y-112623549D01*
X155330797Y-112708590D01*
X154937471Y-113101230D01*
X154724343Y-113614500D01*
X154723858Y-114170261D01*
X154936090Y-114683903D01*
X155328730Y-115077229D01*
X155536612Y-115163549D01*
X155330797Y-115248590D01*
X154937471Y-115641230D01*
X154724343Y-116154500D01*
X154723858Y-116710261D01*
X154936090Y-117223903D01*
X155328730Y-117617229D01*
X155536612Y-117703549D01*
X155330797Y-117788590D01*
X154937471Y-118181230D01*
X154724343Y-118694500D01*
X154723858Y-119250261D01*
X154936090Y-119763903D01*
X155328730Y-120157229D01*
X155536612Y-120243549D01*
X155330797Y-120328590D01*
X154937471Y-120721230D01*
X154724343Y-121234500D01*
X154723858Y-121790261D01*
X154936090Y-122303903D01*
X155328730Y-122697229D01*
X155536612Y-122783549D01*
X155330797Y-122868590D01*
X154937471Y-123261230D01*
X154724343Y-123774500D01*
X154723858Y-124330261D01*
X154936090Y-124843903D01*
X155328730Y-125237229D01*
X155536612Y-125323549D01*
X155330797Y-125408590D01*
X154937471Y-125801230D01*
X154724343Y-126314500D01*
X154723858Y-126870261D01*
X154936090Y-127383903D01*
X155328730Y-127777229D01*
X155520827Y-127856995D01*
X155389957Y-127911203D01*
X155320492Y-128153387D01*
X156121100Y-128953995D01*
X156135243Y-128939853D01*
X156314848Y-129119458D01*
X156300705Y-129133600D01*
X156314848Y-129147743D01*
X156135243Y-129327348D01*
X156121100Y-129313205D01*
X155320492Y-130113813D01*
X155389957Y-130355997D01*
X155530418Y-130406109D01*
X155330797Y-130488590D01*
X154937471Y-130881230D01*
X154724343Y-131394500D01*
X154723858Y-131950261D01*
X154936090Y-132463903D01*
X155328730Y-132857229D01*
X155842000Y-133070357D01*
X156397761Y-133070842D01*
X156726100Y-132935175D01*
X156726100Y-139474600D01*
X154457140Y-139474600D01*
X154457140Y-137795000D01*
X154412862Y-137559683D01*
X154273790Y-137343559D01*
X154061590Y-137198569D01*
X153809700Y-137147560D01*
X152082500Y-137147560D01*
X151847183Y-137191838D01*
X151631059Y-137330910D01*
X151486069Y-137543110D01*
X151435060Y-137795000D01*
X151435060Y-139474600D01*
X149108202Y-139474600D01*
X149250626Y-139261448D01*
X149364700Y-138687959D01*
X149364700Y-138629241D01*
X149250626Y-138055752D01*
X148925770Y-137569571D01*
X148439589Y-137244715D01*
X147866100Y-137130641D01*
X147292611Y-137244715D01*
X146806430Y-137569571D01*
X146481574Y-138055752D01*
X146367500Y-138629241D01*
X146367500Y-138687959D01*
X146481574Y-139261448D01*
X146623998Y-139474600D01*
X121333330Y-139474600D01*
X121495371Y-139232089D01*
X121609445Y-138658600D01*
X121495371Y-138085111D01*
X121170515Y-137598930D01*
X120855734Y-137388600D01*
X121170515Y-137178270D01*
X121495371Y-136692089D01*
X121595272Y-136189852D01*
X121599947Y-136213351D01*
X121648467Y-136457275D01*
X121787674Y-136665614D01*
X121840310Y-136744390D01*
X123745308Y-138649387D01*
X123745310Y-138649390D01*
X124032425Y-138841233D01*
X124088616Y-138852410D01*
X124371100Y-138908601D01*
X124371105Y-138908600D01*
X141516095Y-138908600D01*
X141516100Y-138908601D01*
X141798584Y-138852410D01*
X141854775Y-138841233D01*
X142141890Y-138649390D01*
X145316887Y-135474392D01*
X145316890Y-135474390D01*
X145508733Y-135187275D01*
X145519910Y-135131084D01*
X145576101Y-134848600D01*
X145576100Y-134848595D01*
X145576100Y-133549241D01*
X146367500Y-133549241D01*
X146367500Y-133607959D01*
X146481574Y-134181448D01*
X146806430Y-134667629D01*
X147292611Y-134992485D01*
X147866100Y-135106559D01*
X148439589Y-134992485D01*
X148925770Y-134667629D01*
X149250626Y-134181448D01*
X149299124Y-133937627D01*
X151491132Y-133937627D01*
X151739279Y-134467090D01*
X152171153Y-134861288D01*
X152587074Y-135033558D01*
X152819100Y-134912417D01*
X152819100Y-133705600D01*
X153073100Y-133705600D01*
X153073100Y-134912417D01*
X153305126Y-135033558D01*
X153721047Y-134861288D01*
X154152921Y-134467090D01*
X154401068Y-133937627D01*
X154280569Y-133705600D01*
X153073100Y-133705600D01*
X152819100Y-133705600D01*
X151611631Y-133705600D01*
X151491132Y-133937627D01*
X149299124Y-133937627D01*
X149364700Y-133607959D01*
X149364700Y-133549241D01*
X149299125Y-133219573D01*
X151491132Y-133219573D01*
X151611631Y-133451600D01*
X152819100Y-133451600D01*
X152819100Y-132244783D01*
X153073100Y-132244783D01*
X153073100Y-133451600D01*
X154280569Y-133451600D01*
X154401068Y-133219573D01*
X154152921Y-132690110D01*
X153721047Y-132295912D01*
X153305126Y-132123642D01*
X153073100Y-132244783D01*
X152819100Y-132244783D01*
X152587074Y-132123642D01*
X152171153Y-132295912D01*
X151739279Y-132690110D01*
X151491132Y-133219573D01*
X149299125Y-133219573D01*
X149250626Y-132975752D01*
X148925770Y-132489571D01*
X148439589Y-132164715D01*
X147866100Y-132050641D01*
X147292611Y-132164715D01*
X146806430Y-132489571D01*
X146481574Y-132975752D01*
X146367500Y-133549241D01*
X145576100Y-133549241D01*
X145576100Y-128925902D01*
X154711956Y-128925902D01*
X154739738Y-129480968D01*
X154898703Y-129864743D01*
X155140887Y-129934208D01*
X155941495Y-129133600D01*
X155140887Y-128332992D01*
X154898703Y-128402457D01*
X154711956Y-128925902D01*
X145576100Y-128925902D01*
X145576100Y-126960180D01*
X147856887Y-124679392D01*
X147856890Y-124679390D01*
X148048733Y-124392275D01*
X148116100Y-124053600D01*
X148116100Y-112623605D01*
X148116101Y-112623600D01*
X148048734Y-112284926D01*
X147955887Y-112145970D01*
X147856890Y-111997810D01*
X147856887Y-111997808D01*
X147731203Y-111872123D01*
X147731297Y-111763825D01*
X147558867Y-111346514D01*
X147239865Y-111026955D01*
X146822856Y-110853797D01*
X146371325Y-110853403D01*
X145954014Y-111025833D01*
X145634455Y-111344835D01*
X145461297Y-111761844D01*
X145460903Y-112213375D01*
X145633333Y-112630686D01*
X145952335Y-112950245D01*
X146346100Y-113113751D01*
X146346100Y-123687021D01*
X144306100Y-125727020D01*
X144306100Y-114613876D01*
X144382745Y-114537365D01*
X144555903Y-114120356D01*
X144556297Y-113668825D01*
X144383867Y-113251514D01*
X144064865Y-112931955D01*
X143647856Y-112758797D01*
X143196325Y-112758403D01*
X142779014Y-112930833D01*
X142459455Y-113249835D01*
X142286297Y-113666844D01*
X142285903Y-114118375D01*
X142458333Y-114535686D01*
X142536100Y-114613589D01*
X142536100Y-133847021D01*
X141149520Y-135233600D01*
X140477680Y-135233600D01*
X141506887Y-134204392D01*
X141506890Y-134204390D01*
X141698733Y-133917275D01*
X141733650Y-133741738D01*
X141766101Y-133578600D01*
X141766100Y-133578595D01*
X141766100Y-122233876D01*
X141842745Y-122157365D01*
X142015903Y-121740356D01*
X142016297Y-121288825D01*
X141843867Y-120871514D01*
X141524865Y-120551955D01*
X141107856Y-120378797D01*
X140656325Y-120378403D01*
X140239014Y-120550833D01*
X139936100Y-120853219D01*
X139936100Y-120004332D01*
X140088730Y-120157229D01*
X140602000Y-120370357D01*
X141157761Y-120370842D01*
X141671403Y-120158610D01*
X142064729Y-119765970D01*
X142277857Y-119252700D01*
X142278342Y-118696939D01*
X142066110Y-118183297D01*
X141673470Y-117789971D01*
X141465588Y-117703651D01*
X141671403Y-117618610D01*
X142064729Y-117225970D01*
X142277857Y-116712700D01*
X142278342Y-116156939D01*
X142066110Y-115643297D01*
X141673470Y-115249971D01*
X141465588Y-115163651D01*
X141671403Y-115078610D01*
X142064729Y-114685970D01*
X142277857Y-114172700D01*
X142278342Y-113616939D01*
X142066110Y-113103297D01*
X141673470Y-112709971D01*
X141465588Y-112623651D01*
X141671403Y-112538610D01*
X142064729Y-112145970D01*
X142277857Y-111632700D01*
X142278342Y-111076939D01*
X142066110Y-110563297D01*
X141673470Y-110169971D01*
X141465588Y-110083651D01*
X141671403Y-109998610D01*
X142064729Y-109605970D01*
X142277857Y-109092700D01*
X142278342Y-108536939D01*
X142066110Y-108023297D01*
X141673470Y-107629971D01*
X141465588Y-107543651D01*
X141671403Y-107458610D01*
X142064729Y-107065970D01*
X142277857Y-106552700D01*
X142278342Y-105996939D01*
X142066110Y-105483297D01*
X141673470Y-105089971D01*
X141465588Y-105003651D01*
X141671403Y-104918610D01*
X142064729Y-104525970D01*
X142173362Y-104264350D01*
X149116100Y-104264350D01*
X149116100Y-105354909D01*
X149212773Y-105588298D01*
X149391401Y-105766927D01*
X149624790Y-105863600D01*
X150715350Y-105863600D01*
X150874100Y-105704850D01*
X150874100Y-104105600D01*
X151128100Y-104105600D01*
X151128100Y-105704850D01*
X151286850Y-105863600D01*
X152377410Y-105863600D01*
X152610799Y-105766927D01*
X152789427Y-105588298D01*
X152886100Y-105354909D01*
X152886100Y-104264350D01*
X152727350Y-104105600D01*
X151128100Y-104105600D01*
X150874100Y-104105600D01*
X149274850Y-104105600D01*
X149116100Y-104264350D01*
X142173362Y-104264350D01*
X142277857Y-104012700D01*
X142278342Y-103456939D01*
X142066110Y-102943297D01*
X141673470Y-102549971D01*
X141465588Y-102463651D01*
X141465711Y-102463600D01*
X146918074Y-102463600D01*
X147038575Y-103069398D01*
X147381732Y-103582968D01*
X147895302Y-103926125D01*
X148501100Y-104046626D01*
X149106898Y-103926125D01*
X149252252Y-103829002D01*
X149274850Y-103851600D01*
X150874100Y-103851600D01*
X150874100Y-102252350D01*
X151128100Y-102252350D01*
X151128100Y-103851600D01*
X152727350Y-103851600D01*
X152886100Y-103692850D01*
X152886100Y-102602291D01*
X152789427Y-102368902D01*
X152610799Y-102190273D01*
X152377410Y-102093600D01*
X151286850Y-102093600D01*
X151128100Y-102252350D01*
X150874100Y-102252350D01*
X150715350Y-102093600D01*
X150010528Y-102093600D01*
X149963625Y-101857802D01*
X149620468Y-101344232D01*
X149106898Y-101001075D01*
X148501100Y-100880574D01*
X147895302Y-101001075D01*
X147381732Y-101344232D01*
X147038575Y-101857802D01*
X146918074Y-102463600D01*
X141465711Y-102463600D01*
X141671403Y-102378610D01*
X142064729Y-101985970D01*
X142277857Y-101472700D01*
X142278342Y-100916939D01*
X142066110Y-100403297D01*
X141673470Y-100009971D01*
X141465588Y-99923651D01*
X141671403Y-99838610D01*
X142064729Y-99445970D01*
X142277857Y-98932700D01*
X142278342Y-98376939D01*
X142066110Y-97863297D01*
X141673470Y-97469971D01*
X141465588Y-97383651D01*
X141671403Y-97298610D01*
X142064729Y-96905970D01*
X142277857Y-96392700D01*
X142278342Y-95836939D01*
X142066110Y-95323297D01*
X141871753Y-95128600D01*
X144103660Y-95128600D01*
X144103660Y-97628600D01*
X144147938Y-97863917D01*
X144287010Y-98080041D01*
X144499210Y-98225031D01*
X144751100Y-98276040D01*
X147251100Y-98276040D01*
X147486417Y-98231762D01*
X147702541Y-98092690D01*
X147847531Y-97880490D01*
X147898540Y-97628600D01*
X147898540Y-96941769D01*
X148501100Y-97061626D01*
X149106898Y-96941125D01*
X149620468Y-96597968D01*
X149707797Y-96467271D01*
X149751100Y-96476040D01*
X152251100Y-96476040D01*
X152486417Y-96431762D01*
X152702541Y-96292690D01*
X152847531Y-96080490D01*
X152898540Y-95828600D01*
X152898540Y-93328600D01*
X152854262Y-93093283D01*
X152715190Y-92877159D01*
X152502990Y-92732169D01*
X152251100Y-92681160D01*
X149751100Y-92681160D01*
X149515783Y-92725438D01*
X149299659Y-92864510D01*
X149154669Y-93076710D01*
X149103660Y-93328600D01*
X149103660Y-94015431D01*
X148501100Y-93895574D01*
X147895302Y-94016075D01*
X147381732Y-94359232D01*
X147294403Y-94489929D01*
X147251100Y-94481160D01*
X144751100Y-94481160D01*
X144515783Y-94525438D01*
X144299659Y-94664510D01*
X144154669Y-94876710D01*
X144103660Y-95128600D01*
X141871753Y-95128600D01*
X141673470Y-94929971D01*
X141160200Y-94716843D01*
X140604439Y-94716358D01*
X140090797Y-94928590D01*
X139697471Y-95321230D01*
X139484343Y-95834500D01*
X139483858Y-96390261D01*
X139696090Y-96903903D01*
X140088730Y-97297229D01*
X140296612Y-97383549D01*
X140090797Y-97468590D01*
X139697471Y-97861230D01*
X139484343Y-98374500D01*
X139483858Y-98930261D01*
X139696090Y-99443903D01*
X140088730Y-99837229D01*
X140296612Y-99923549D01*
X140090797Y-100008590D01*
X139697471Y-100401230D01*
X139484343Y-100914500D01*
X139483858Y-101470261D01*
X139696090Y-101983903D01*
X140088730Y-102377229D01*
X140296612Y-102463549D01*
X140090797Y-102548590D01*
X139697471Y-102941230D01*
X139484343Y-103454500D01*
X139483858Y-104010261D01*
X139696090Y-104523903D01*
X140088730Y-104917229D01*
X140296612Y-105003549D01*
X140090797Y-105088590D01*
X139697471Y-105481230D01*
X139484343Y-105994500D01*
X139483858Y-106550261D01*
X139696090Y-107063903D01*
X140088730Y-107457229D01*
X140296612Y-107543549D01*
X140090797Y-107628590D01*
X139697471Y-108021230D01*
X139484343Y-108534500D01*
X139483858Y-109090261D01*
X139696090Y-109603903D01*
X140088730Y-109997229D01*
X140296612Y-110083549D01*
X140090797Y-110168590D01*
X139891858Y-110367182D01*
X139883957Y-110327462D01*
X139735468Y-110105232D01*
X139235468Y-109605232D01*
X139013238Y-109456743D01*
X138751100Y-109404600D01*
X127851100Y-109404600D01*
X127588962Y-109456743D01*
X127366732Y-109605232D01*
X126876732Y-110095232D01*
X126728243Y-110317462D01*
X126676100Y-110579600D01*
X126676100Y-132989600D01*
X126728243Y-133251738D01*
X126876732Y-133473968D01*
X127366364Y-133963600D01*
X127277679Y-133963600D01*
X126526100Y-133212020D01*
X126526100Y-129768600D01*
X126458733Y-129429925D01*
X126266890Y-129142810D01*
X126266887Y-129142808D01*
X124236203Y-127112123D01*
X124236297Y-127003825D01*
X124063867Y-126586514D01*
X123744865Y-126266955D01*
X123327856Y-126093797D01*
X122876325Y-126093403D01*
X122459014Y-126265833D01*
X122139455Y-126584835D01*
X121966297Y-127001844D01*
X121965903Y-127453375D01*
X122138333Y-127870686D01*
X122457335Y-128190245D01*
X122597869Y-128248600D01*
X117471376Y-128248600D01*
X117394865Y-128171955D01*
X116977856Y-127998797D01*
X116526325Y-127998403D01*
X116109014Y-128170833D01*
X115789455Y-128489835D01*
X115616297Y-128906844D01*
X115615903Y-129358375D01*
X115788333Y-129775686D01*
X116107335Y-130095245D01*
X116247869Y-130153600D01*
X115566376Y-130153600D01*
X115489865Y-130076955D01*
X115072856Y-129903797D01*
X114621325Y-129903403D01*
X114204014Y-130075833D01*
X113884455Y-130394835D01*
X113711297Y-130811844D01*
X113710903Y-131263375D01*
X113883333Y-131680686D01*
X114202335Y-132000245D01*
X114364447Y-132067560D01*
X112560100Y-132067560D01*
X112324783Y-132111838D01*
X112108659Y-132250910D01*
X111963669Y-132463110D01*
X111912660Y-132715000D01*
X111912660Y-134442200D01*
X111956938Y-134677517D01*
X112096010Y-134893641D01*
X112308210Y-135038631D01*
X112349539Y-135047000D01*
X112331685Y-135058930D01*
X112006829Y-135545111D01*
X111892755Y-136118600D01*
X112006829Y-136692089D01*
X112331685Y-137178270D01*
X112646466Y-137388600D01*
X112331685Y-137598930D01*
X112006829Y-138085111D01*
X111892755Y-138658600D01*
X112006829Y-139232089D01*
X112168870Y-139474600D01*
X106206100Y-139474600D01*
X106206100Y-136506800D01*
X107355700Y-136506800D01*
X107491575Y-137189890D01*
X107878514Y-137768986D01*
X108457610Y-138155925D01*
X109140700Y-138291800D01*
X109823790Y-138155925D01*
X110402886Y-137768986D01*
X110789825Y-137189890D01*
X110925700Y-136506800D01*
X110789825Y-135823710D01*
X110402886Y-135244614D01*
X109823790Y-134857675D01*
X109140700Y-134721800D01*
X108457610Y-134857675D01*
X107878514Y-135244614D01*
X107491575Y-135823710D01*
X107355700Y-136506800D01*
X106206100Y-136506800D01*
X106206100Y-133829600D01*
X106153957Y-133567462D01*
X106005468Y-133345232D01*
X101504049Y-128843813D01*
X107822492Y-128843813D01*
X107891957Y-129085997D01*
X108415402Y-129272744D01*
X108970468Y-129244962D01*
X109354243Y-129085997D01*
X109423708Y-128843813D01*
X108623100Y-128043205D01*
X107822492Y-128843813D01*
X101504049Y-128843813D01*
X100316138Y-127655902D01*
X107213956Y-127655902D01*
X107241738Y-128210968D01*
X107400703Y-128594743D01*
X107642887Y-128664208D01*
X108443495Y-127863600D01*
X108802705Y-127863600D01*
X109603313Y-128664208D01*
X109845497Y-128594743D01*
X110007640Y-128140261D01*
X112305858Y-128140261D01*
X112518090Y-128653903D01*
X112910730Y-129047229D01*
X113424000Y-129260357D01*
X113979761Y-129260842D01*
X114493403Y-129048610D01*
X114886729Y-128655970D01*
X115099857Y-128142700D01*
X115100236Y-127708883D01*
X125000582Y-117690675D01*
X125094199Y-117548757D01*
X125188733Y-117407275D01*
X125189254Y-117404657D01*
X125190723Y-117402430D01*
X125222942Y-117235294D01*
X125256100Y-117068600D01*
X125256100Y-112708876D01*
X125332745Y-112632365D01*
X125505903Y-112215356D01*
X125506297Y-111763825D01*
X125333867Y-111346514D01*
X125014865Y-111026955D01*
X124597856Y-110853797D01*
X124146325Y-110853403D01*
X123729014Y-111025833D01*
X123409455Y-111344835D01*
X123236297Y-111761844D01*
X123235903Y-112213375D01*
X123408333Y-112630686D01*
X123486100Y-112708589D01*
X123486100Y-116705085D01*
X113839309Y-126466718D01*
X113426439Y-126466358D01*
X112912797Y-126678590D01*
X112519471Y-127071230D01*
X112306343Y-127584500D01*
X112305858Y-128140261D01*
X110007640Y-128140261D01*
X110032244Y-128071298D01*
X110004462Y-127516232D01*
X109845497Y-127132457D01*
X109603313Y-127062992D01*
X108802705Y-127863600D01*
X108443495Y-127863600D01*
X107642887Y-127062992D01*
X107400703Y-127132457D01*
X107213956Y-127655902D01*
X100316138Y-127655902D01*
X99543623Y-126883387D01*
X107822492Y-126883387D01*
X108623100Y-127683995D01*
X109423708Y-126883387D01*
X109354243Y-126641203D01*
X108830798Y-126454456D01*
X108275732Y-126482238D01*
X107891957Y-126641203D01*
X107822492Y-126883387D01*
X99543623Y-126883387D01*
X97296100Y-124635864D01*
X97296100Y-114909600D01*
X107366060Y-114909600D01*
X107366060Y-116941600D01*
X107410338Y-117176917D01*
X107549410Y-117393041D01*
X107742100Y-117524700D01*
X107742100Y-119354600D01*
X107828497Y-119788946D01*
X108047267Y-120116358D01*
X108074534Y-120157166D01*
X110233120Y-122315752D01*
X110392335Y-122475245D01*
X110809344Y-122648403D01*
X111260875Y-122648797D01*
X111678186Y-122476367D01*
X111997745Y-122157365D01*
X112170903Y-121740356D01*
X112171297Y-121288825D01*
X111998867Y-120871514D01*
X111679865Y-120551955D01*
X111679390Y-120551758D01*
X110012100Y-118884468D01*
X110012100Y-117521543D01*
X110192141Y-117405690D01*
X110337131Y-117193490D01*
X110345500Y-117152161D01*
X110357430Y-117170015D01*
X110843611Y-117494871D01*
X111417100Y-117608945D01*
X111990589Y-117494871D01*
X112476770Y-117170015D01*
X112687100Y-116855234D01*
X112897430Y-117170015D01*
X113383611Y-117494871D01*
X113957100Y-117608945D01*
X114530589Y-117494871D01*
X115016770Y-117170015D01*
X115341626Y-116683834D01*
X115455700Y-116110345D01*
X115455700Y-115740855D01*
X115341626Y-115167366D01*
X115016770Y-114681185D01*
X114530589Y-114356329D01*
X113957100Y-114242255D01*
X113383611Y-114356329D01*
X112897430Y-114681185D01*
X112687100Y-114995966D01*
X112552100Y-114793924D01*
X112552100Y-113347732D01*
X113743666Y-112156167D01*
X113743667Y-112156166D01*
X113902745Y-111997365D01*
X114075903Y-111580356D01*
X114076297Y-111128825D01*
X113903867Y-110711514D01*
X113584865Y-110391955D01*
X113167856Y-110218797D01*
X112716325Y-110218403D01*
X112299014Y-110390833D01*
X111979455Y-110709835D01*
X111979258Y-110710309D01*
X110614534Y-112075034D01*
X110368497Y-112443254D01*
X110282100Y-112877600D01*
X110282100Y-114578302D01*
X110204790Y-114458159D01*
X109992590Y-114313169D01*
X109740700Y-114262160D01*
X108013500Y-114262160D01*
X107778183Y-114306438D01*
X107562059Y-114445510D01*
X107417069Y-114657710D01*
X107366060Y-114909600D01*
X97296100Y-114909600D01*
X97296100Y-103697813D01*
X98170492Y-103697813D01*
X98239957Y-103939997D01*
X98763402Y-104126744D01*
X99318468Y-104098962D01*
X99702243Y-103939997D01*
X99771708Y-103697813D01*
X98971100Y-102897205D01*
X98170492Y-103697813D01*
X97296100Y-103697813D01*
X97296100Y-102509902D01*
X97561956Y-102509902D01*
X97589738Y-103064968D01*
X97748703Y-103448743D01*
X97990887Y-103518208D01*
X98791495Y-102717600D01*
X99150705Y-102717600D01*
X99951313Y-103518208D01*
X100193497Y-103448743D01*
X100355640Y-102994261D01*
X102653858Y-102994261D01*
X102866090Y-103507903D01*
X103258730Y-103901229D01*
X103772000Y-104114357D01*
X104327761Y-104114842D01*
X104841403Y-103902610D01*
X105046557Y-103697813D01*
X109600492Y-103697813D01*
X109669957Y-103939997D01*
X110193402Y-104126744D01*
X110748468Y-104098962D01*
X111132243Y-103939997D01*
X111201708Y-103697813D01*
X110401100Y-102897205D01*
X109600492Y-103697813D01*
X105046557Y-103697813D01*
X105141937Y-103602600D01*
X105702095Y-103602600D01*
X105702100Y-103602601D01*
X105984584Y-103546410D01*
X106040775Y-103535233D01*
X106327890Y-103343390D01*
X107161377Y-102509902D01*
X108991956Y-102509902D01*
X109019738Y-103064968D01*
X109178703Y-103448743D01*
X109420887Y-103518208D01*
X110221495Y-102717600D01*
X110580705Y-102717600D01*
X111381313Y-103518208D01*
X111623497Y-103448743D01*
X111785640Y-102994261D01*
X114083858Y-102994261D01*
X114296090Y-103507903D01*
X114596100Y-103808437D01*
X114596100Y-105003595D01*
X114596099Y-105003600D01*
X114621410Y-105130842D01*
X114663467Y-105342275D01*
X114827853Y-105588298D01*
X114855310Y-105629390D01*
X118030308Y-108804387D01*
X118030310Y-108804390D01*
X118317425Y-108996233D01*
X118373616Y-109007410D01*
X118656100Y-109063601D01*
X118656105Y-109063600D01*
X135166095Y-109063600D01*
X135166100Y-109063601D01*
X135448584Y-109007410D01*
X135504775Y-108996233D01*
X135791890Y-108804390D01*
X135791891Y-108804389D01*
X137061887Y-107534392D01*
X137061890Y-107534390D01*
X137253733Y-107247275D01*
X137321101Y-106908600D01*
X137321100Y-106908595D01*
X137321100Y-103818876D01*
X137397745Y-103742365D01*
X137570903Y-103325356D01*
X137571297Y-102873825D01*
X137398867Y-102456514D01*
X137079865Y-102136955D01*
X136662856Y-101963797D01*
X136211325Y-101963403D01*
X135794014Y-102135833D01*
X135474455Y-102454835D01*
X135301297Y-102871844D01*
X135300903Y-103323375D01*
X135473333Y-103740686D01*
X135551100Y-103818589D01*
X135551100Y-106542021D01*
X134799520Y-107293600D01*
X119022679Y-107293600D01*
X116366100Y-104637020D01*
X116366100Y-103808078D01*
X116476557Y-103697813D01*
X122300492Y-103697813D01*
X122369957Y-103939997D01*
X122893402Y-104126744D01*
X123448468Y-104098962D01*
X123832243Y-103939997D01*
X123901708Y-103697813D01*
X123101100Y-102897205D01*
X122300492Y-103697813D01*
X116476557Y-103697813D01*
X116664729Y-103509970D01*
X116877857Y-102996700D01*
X116878281Y-102509902D01*
X121691956Y-102509902D01*
X121719738Y-103064968D01*
X121878703Y-103448743D01*
X122120887Y-103518208D01*
X122921495Y-102717600D01*
X123280705Y-102717600D01*
X124081313Y-103518208D01*
X124323497Y-103448743D01*
X124485640Y-102994261D01*
X126783858Y-102994261D01*
X126996090Y-103507903D01*
X127388730Y-103901229D01*
X127902000Y-104114357D01*
X128457761Y-104114842D01*
X128971403Y-103902610D01*
X129271937Y-103602600D01*
X132513520Y-103602600D01*
X132760997Y-103850077D01*
X132760903Y-103958375D01*
X132933333Y-104375686D01*
X133252335Y-104695245D01*
X133669344Y-104868403D01*
X134120875Y-104868797D01*
X134538186Y-104696367D01*
X134857745Y-104377365D01*
X135030903Y-103960356D01*
X135031297Y-103508825D01*
X134858867Y-103091514D01*
X134539865Y-102771955D01*
X134122856Y-102598797D01*
X134012780Y-102598701D01*
X133505890Y-102091810D01*
X133347488Y-101985970D01*
X133218775Y-101899967D01*
X133162584Y-101888790D01*
X132880100Y-101832599D01*
X132880095Y-101832600D01*
X129271578Y-101832600D01*
X128973470Y-101533971D01*
X128460200Y-101320843D01*
X127904439Y-101320358D01*
X127390797Y-101532590D01*
X126997471Y-101925230D01*
X126784343Y-102438500D01*
X126783858Y-102994261D01*
X124485640Y-102994261D01*
X124510244Y-102925298D01*
X124482462Y-102370232D01*
X124323497Y-101986457D01*
X124081313Y-101916992D01*
X123280705Y-102717600D01*
X122921495Y-102717600D01*
X122120887Y-101916992D01*
X121878703Y-101986457D01*
X121691956Y-102509902D01*
X116878281Y-102509902D01*
X116878342Y-102440939D01*
X116666110Y-101927297D01*
X116476532Y-101737387D01*
X122300492Y-101737387D01*
X123101100Y-102537995D01*
X123901708Y-101737387D01*
X123832243Y-101495203D01*
X123308798Y-101308456D01*
X122753732Y-101336238D01*
X122369957Y-101495203D01*
X122300492Y-101737387D01*
X116476532Y-101737387D01*
X116273470Y-101533971D01*
X115760200Y-101320843D01*
X115204439Y-101320358D01*
X114690797Y-101532590D01*
X114297471Y-101925230D01*
X114084343Y-102438500D01*
X114083858Y-102994261D01*
X111785640Y-102994261D01*
X111810244Y-102925298D01*
X111782462Y-102370232D01*
X111623497Y-101986457D01*
X111381313Y-101916992D01*
X110580705Y-102717600D01*
X110221495Y-102717600D01*
X109420887Y-101916992D01*
X109178703Y-101986457D01*
X108991956Y-102509902D01*
X107161377Y-102509902D01*
X107933892Y-101737387D01*
X109600492Y-101737387D01*
X110401100Y-102537995D01*
X111201708Y-101737387D01*
X111132243Y-101495203D01*
X110608798Y-101308456D01*
X110053732Y-101336238D01*
X109669957Y-101495203D01*
X109600492Y-101737387D01*
X107933892Y-101737387D01*
X111484479Y-98186800D01*
X134975700Y-98186800D01*
X135111575Y-98869890D01*
X135498514Y-99448986D01*
X136077610Y-99835925D01*
X136760700Y-99971800D01*
X137443790Y-99835925D01*
X138022886Y-99448986D01*
X138409825Y-98869890D01*
X138545700Y-98186800D01*
X138409825Y-97503710D01*
X138022886Y-96924614D01*
X137443790Y-96537675D01*
X136760700Y-96401800D01*
X136077610Y-96537675D01*
X135498514Y-96924614D01*
X135111575Y-97503710D01*
X134975700Y-98186800D01*
X111484479Y-98186800D01*
X112037679Y-97633600D01*
X128095824Y-97633600D01*
X128172335Y-97710245D01*
X128589344Y-97883403D01*
X129040875Y-97883797D01*
X129458186Y-97711367D01*
X129777745Y-97392365D01*
X129950903Y-96975356D01*
X129951297Y-96523825D01*
X129778867Y-96106514D01*
X129459865Y-95786955D01*
X129042856Y-95613797D01*
X128591325Y-95613403D01*
X128174014Y-95785833D01*
X128096111Y-95863600D01*
X111671105Y-95863600D01*
X111671100Y-95863599D01*
X111388616Y-95919790D01*
X111332425Y-95930967D01*
X111045310Y-96122810D01*
X111045308Y-96122813D01*
X105335520Y-101832600D01*
X105141578Y-101832600D01*
X104843470Y-101533971D01*
X104330200Y-101320843D01*
X103774439Y-101320358D01*
X103260797Y-101532590D01*
X102867471Y-101925230D01*
X102654343Y-102438500D01*
X102653858Y-102994261D01*
X100355640Y-102994261D01*
X100380244Y-102925298D01*
X100352462Y-102370232D01*
X100193497Y-101986457D01*
X99951313Y-101916992D01*
X99150705Y-102717600D01*
X98791495Y-102717600D01*
X97990887Y-101916992D01*
X97748703Y-101986457D01*
X97561956Y-102509902D01*
X97296100Y-102509902D01*
X97296100Y-101737387D01*
X98170492Y-101737387D01*
X98971100Y-102537995D01*
X99771708Y-101737387D01*
X99702243Y-101495203D01*
X99178798Y-101308456D01*
X98623732Y-101336238D01*
X98239957Y-101495203D01*
X98170492Y-101737387D01*
X97296100Y-101737387D01*
X97296100Y-97714600D01*
X106111100Y-97714600D01*
X106373238Y-97662457D01*
X106595468Y-97513968D01*
X107085468Y-97023968D01*
X107233957Y-96801738D01*
X107286100Y-96539600D01*
X107286100Y-92723336D01*
X107384836Y-92624600D01*
X110441100Y-92624600D01*
X110703238Y-92572457D01*
X110925468Y-92423968D01*
X111425468Y-91923968D01*
X111573957Y-91701738D01*
X111580548Y-91668600D01*
X112583660Y-91668600D01*
X112583660Y-93668600D01*
X112627938Y-93903917D01*
X112767010Y-94120041D01*
X112979210Y-94265031D01*
X113231100Y-94316040D01*
X117731100Y-94316040D01*
X117966417Y-94271762D01*
X118182541Y-94132690D01*
X118327531Y-93920490D01*
X118378540Y-93668600D01*
X118378540Y-91668600D01*
X118334262Y-91433283D01*
X118195190Y-91217159D01*
X117982990Y-91072169D01*
X117731100Y-91021160D01*
X113231100Y-91021160D01*
X112995783Y-91065438D01*
X112779659Y-91204510D01*
X112634669Y-91416710D01*
X112583660Y-91668600D01*
X111580548Y-91668600D01*
X111626100Y-91439600D01*
X111626100Y-86954350D01*
X112596100Y-86954350D01*
X112596100Y-87794909D01*
X112692773Y-88028298D01*
X112871401Y-88206927D01*
X113104790Y-88303600D01*
X115195350Y-88303600D01*
X115354100Y-88144850D01*
X115354100Y-86795600D01*
X115608100Y-86795600D01*
X115608100Y-88144850D01*
X115766850Y-88303600D01*
X117857410Y-88303600D01*
X118090799Y-88206927D01*
X118269427Y-88028298D01*
X118366100Y-87794909D01*
X118366100Y-86954350D01*
X118207350Y-86795600D01*
X115608100Y-86795600D01*
X115354100Y-86795600D01*
X112754850Y-86795600D01*
X112596100Y-86954350D01*
X111626100Y-86954350D01*
X111626100Y-86153336D01*
X111724836Y-86054600D01*
X112596100Y-86054600D01*
X112596100Y-86382850D01*
M02*
