G04 #@! TF.FileFunction,Soldermask,Bot*
%FSLAX46Y46*%
G04 Gerber Fmt 4.6, Leading zero omitted, Abs format (unit mm)*
G04 Created by KiCad (PCBNEW 4.0.1-stable) date 2016/06/15 21:34:56*
%MOMM*%
G01*
G04 APERTURE LIST*
%ADD10C,0.100000*%
G04 APERTURE END LIST*
D10*
G36*
X148059810Y-137710012D02*
X148059819Y-137710015D01*
X148059859Y-137710019D01*
X148239510Y-137765631D01*
X148404938Y-137855077D01*
X148549842Y-137974952D01*
X148668703Y-138120690D01*
X148756993Y-138286739D01*
X148811348Y-138466774D01*
X148829700Y-138653938D01*
X148829700Y-138663262D01*
X148829606Y-138676716D01*
X148808643Y-138863606D01*
X148751779Y-139042864D01*
X148661179Y-139207664D01*
X148540296Y-139351728D01*
X148393732Y-139469568D01*
X148227071Y-139556696D01*
X148046661Y-139609794D01*
X148046622Y-139609798D01*
X148046614Y-139609800D01*
X147859375Y-139626841D01*
X147672390Y-139607188D01*
X147672381Y-139607185D01*
X147672341Y-139607181D01*
X147492690Y-139551569D01*
X147327262Y-139462123D01*
X147182358Y-139342248D01*
X147063497Y-139196510D01*
X146975207Y-139030461D01*
X146920852Y-138850426D01*
X146902500Y-138663262D01*
X146902500Y-138653938D01*
X146902594Y-138640484D01*
X146923557Y-138453594D01*
X146980421Y-138274336D01*
X147071021Y-138109536D01*
X147191904Y-137965472D01*
X147338468Y-137847632D01*
X147505129Y-137760504D01*
X147685539Y-137707406D01*
X147685578Y-137707402D01*
X147685586Y-137707400D01*
X147872825Y-137690359D01*
X148059810Y-137710012D01*
X148059810Y-137710012D01*
G37*
G36*
X153909700Y-139622200D02*
X151982500Y-139622200D01*
X151982500Y-137695000D01*
X153909700Y-137695000D01*
X153909700Y-139622200D01*
X153909700Y-139622200D01*
G37*
G36*
X120091158Y-137695051D02*
X120097354Y-137695094D01*
X120284244Y-137716057D01*
X120463502Y-137772921D01*
X120628302Y-137863521D01*
X120772366Y-137984404D01*
X120890206Y-138130968D01*
X120977334Y-138297629D01*
X121030432Y-138478039D01*
X121030436Y-138478078D01*
X121030438Y-138478086D01*
X121047479Y-138665325D01*
X121027826Y-138852310D01*
X121027823Y-138852319D01*
X121027819Y-138852359D01*
X120972207Y-139032010D01*
X120882761Y-139197438D01*
X120762886Y-139342342D01*
X120617148Y-139461203D01*
X120451099Y-139549493D01*
X120271064Y-139603848D01*
X120083900Y-139622200D01*
X119768265Y-139622200D01*
X119761042Y-139622149D01*
X119754846Y-139622106D01*
X119567956Y-139601143D01*
X119388698Y-139544279D01*
X119223898Y-139453679D01*
X119079834Y-139332796D01*
X118961994Y-139186232D01*
X118874866Y-139019571D01*
X118821768Y-138839161D01*
X118821764Y-138839122D01*
X118821762Y-138839114D01*
X118804721Y-138651875D01*
X118824374Y-138464890D01*
X118824377Y-138464881D01*
X118824381Y-138464841D01*
X118879993Y-138285190D01*
X118969439Y-138119762D01*
X119089314Y-137974858D01*
X119235052Y-137855997D01*
X119401101Y-137767707D01*
X119581136Y-137713352D01*
X119768300Y-137695000D01*
X120083935Y-137695000D01*
X120091158Y-137695051D01*
X120091158Y-137695051D01*
G37*
G36*
X113741158Y-137695051D02*
X113747354Y-137695094D01*
X113934244Y-137716057D01*
X114113502Y-137772921D01*
X114278302Y-137863521D01*
X114422366Y-137984404D01*
X114540206Y-138130968D01*
X114627334Y-138297629D01*
X114680432Y-138478039D01*
X114680436Y-138478078D01*
X114680438Y-138478086D01*
X114697479Y-138665325D01*
X114677826Y-138852310D01*
X114677823Y-138852319D01*
X114677819Y-138852359D01*
X114622207Y-139032010D01*
X114532761Y-139197438D01*
X114412886Y-139342342D01*
X114267148Y-139461203D01*
X114101099Y-139549493D01*
X113921064Y-139603848D01*
X113733900Y-139622200D01*
X113418265Y-139622200D01*
X113411042Y-139622149D01*
X113404846Y-139622106D01*
X113217956Y-139601143D01*
X113038698Y-139544279D01*
X112873898Y-139453679D01*
X112729834Y-139332796D01*
X112611994Y-139186232D01*
X112524866Y-139019571D01*
X112471768Y-138839161D01*
X112471764Y-138839122D01*
X112471762Y-138839114D01*
X112454721Y-138651875D01*
X112474374Y-138464890D01*
X112474377Y-138464881D01*
X112474381Y-138464841D01*
X112529993Y-138285190D01*
X112619439Y-138119762D01*
X112739314Y-137974858D01*
X112885052Y-137855997D01*
X113051101Y-137767707D01*
X113231136Y-137713352D01*
X113418300Y-137695000D01*
X113733935Y-137695000D01*
X113741158Y-137695051D01*
X113741158Y-137695051D01*
G37*
G36*
X116916158Y-137695051D02*
X116922354Y-137695094D01*
X117109244Y-137716057D01*
X117288502Y-137772921D01*
X117453302Y-137863521D01*
X117597366Y-137984404D01*
X117715206Y-138130968D01*
X117802334Y-138297629D01*
X117855432Y-138478039D01*
X117855436Y-138478078D01*
X117855438Y-138478086D01*
X117872479Y-138665325D01*
X117852826Y-138852310D01*
X117852823Y-138852319D01*
X117852819Y-138852359D01*
X117797207Y-139032010D01*
X117707761Y-139197438D01*
X117587886Y-139342342D01*
X117442148Y-139461203D01*
X117276099Y-139549493D01*
X117096064Y-139603848D01*
X116908900Y-139622200D01*
X116593265Y-139622200D01*
X116586042Y-139622149D01*
X116579846Y-139622106D01*
X116392956Y-139601143D01*
X116213698Y-139544279D01*
X116048898Y-139453679D01*
X115904834Y-139332796D01*
X115786994Y-139186232D01*
X115699866Y-139019571D01*
X115646768Y-138839161D01*
X115646764Y-138839122D01*
X115646762Y-138839114D01*
X115629721Y-138651875D01*
X115649374Y-138464890D01*
X115649377Y-138464881D01*
X115649381Y-138464841D01*
X115704993Y-138285190D01*
X115794439Y-138119762D01*
X115914314Y-137974858D01*
X116060052Y-137855997D01*
X116226101Y-137767707D01*
X116406136Y-137713352D01*
X116593300Y-137695000D01*
X116908935Y-137695000D01*
X116916158Y-137695051D01*
X116916158Y-137695051D01*
G37*
G36*
X120091158Y-135155051D02*
X120097354Y-135155094D01*
X120284244Y-135176057D01*
X120463502Y-135232921D01*
X120628302Y-135323521D01*
X120772366Y-135444404D01*
X120890206Y-135590968D01*
X120977334Y-135757629D01*
X121030432Y-135938039D01*
X121030436Y-135938078D01*
X121030438Y-135938086D01*
X121047479Y-136125325D01*
X121027826Y-136312310D01*
X121027823Y-136312319D01*
X121027819Y-136312359D01*
X120972207Y-136492010D01*
X120882761Y-136657438D01*
X120762886Y-136802342D01*
X120617148Y-136921203D01*
X120451099Y-137009493D01*
X120271064Y-137063848D01*
X120083900Y-137082200D01*
X119768265Y-137082200D01*
X119761042Y-137082149D01*
X119754846Y-137082106D01*
X119567956Y-137061143D01*
X119388698Y-137004279D01*
X119223898Y-136913679D01*
X119079834Y-136792796D01*
X118961994Y-136646232D01*
X118874866Y-136479571D01*
X118821768Y-136299161D01*
X118821764Y-136299122D01*
X118821762Y-136299114D01*
X118804721Y-136111875D01*
X118824374Y-135924890D01*
X118824377Y-135924881D01*
X118824381Y-135924841D01*
X118879993Y-135745190D01*
X118969439Y-135579762D01*
X119089314Y-135434858D01*
X119235052Y-135315997D01*
X119401101Y-135227707D01*
X119581136Y-135173352D01*
X119768300Y-135155000D01*
X120083935Y-135155000D01*
X120091158Y-135155051D01*
X120091158Y-135155051D01*
G37*
G36*
X116916158Y-135155051D02*
X116922354Y-135155094D01*
X117109244Y-135176057D01*
X117288502Y-135232921D01*
X117453302Y-135323521D01*
X117597366Y-135444404D01*
X117715206Y-135590968D01*
X117802334Y-135757629D01*
X117855432Y-135938039D01*
X117855436Y-135938078D01*
X117855438Y-135938086D01*
X117872479Y-136125325D01*
X117852826Y-136312310D01*
X117852823Y-136312319D01*
X117852819Y-136312359D01*
X117797207Y-136492010D01*
X117707761Y-136657438D01*
X117587886Y-136802342D01*
X117442148Y-136921203D01*
X117276099Y-137009493D01*
X117096064Y-137063848D01*
X116908900Y-137082200D01*
X116593265Y-137082200D01*
X116586042Y-137082149D01*
X116579846Y-137082106D01*
X116392956Y-137061143D01*
X116213698Y-137004279D01*
X116048898Y-136913679D01*
X115904834Y-136792796D01*
X115786994Y-136646232D01*
X115699866Y-136479571D01*
X115646768Y-136299161D01*
X115646764Y-136299122D01*
X115646762Y-136299114D01*
X115629721Y-136111875D01*
X115649374Y-135924890D01*
X115649377Y-135924881D01*
X115649381Y-135924841D01*
X115704993Y-135745190D01*
X115794439Y-135579762D01*
X115914314Y-135434858D01*
X116060052Y-135315997D01*
X116226101Y-135227707D01*
X116406136Y-135173352D01*
X116593300Y-135155000D01*
X116908935Y-135155000D01*
X116916158Y-135155051D01*
X116916158Y-135155051D01*
G37*
G36*
X113741158Y-135155051D02*
X113747354Y-135155094D01*
X113934244Y-135176057D01*
X114113502Y-135232921D01*
X114278302Y-135323521D01*
X114422366Y-135444404D01*
X114540206Y-135590968D01*
X114627334Y-135757629D01*
X114680432Y-135938039D01*
X114680436Y-135938078D01*
X114680438Y-135938086D01*
X114697479Y-136125325D01*
X114677826Y-136312310D01*
X114677823Y-136312319D01*
X114677819Y-136312359D01*
X114622207Y-136492010D01*
X114532761Y-136657438D01*
X114412886Y-136802342D01*
X114267148Y-136921203D01*
X114101099Y-137009493D01*
X113921064Y-137063848D01*
X113733900Y-137082200D01*
X113418265Y-137082200D01*
X113411042Y-137082149D01*
X113404846Y-137082106D01*
X113217956Y-137061143D01*
X113038698Y-137004279D01*
X112873898Y-136913679D01*
X112729834Y-136792796D01*
X112611994Y-136646232D01*
X112524866Y-136479571D01*
X112471768Y-136299161D01*
X112471764Y-136299122D01*
X112471762Y-136299114D01*
X112454721Y-136111875D01*
X112474374Y-135924890D01*
X112474377Y-135924881D01*
X112474381Y-135924841D01*
X112529993Y-135745190D01*
X112619439Y-135579762D01*
X112739314Y-135434858D01*
X112885052Y-135315997D01*
X113051101Y-135227707D01*
X113231136Y-135173352D01*
X113418300Y-135155000D01*
X113733935Y-135155000D01*
X113741158Y-135155051D01*
X113741158Y-135155051D01*
G37*
G36*
X148059810Y-132630012D02*
X148059819Y-132630015D01*
X148059859Y-132630019D01*
X148239510Y-132685631D01*
X148404938Y-132775077D01*
X148549842Y-132894952D01*
X148668703Y-133040690D01*
X148756993Y-133206739D01*
X148811348Y-133386774D01*
X148829700Y-133573938D01*
X148829700Y-133583262D01*
X148829606Y-133596716D01*
X148808643Y-133783606D01*
X148751779Y-133962864D01*
X148661179Y-134127664D01*
X148540296Y-134271728D01*
X148393732Y-134389568D01*
X148227071Y-134476696D01*
X148046661Y-134529794D01*
X148046622Y-134529798D01*
X148046614Y-134529800D01*
X147859375Y-134546841D01*
X147672390Y-134527188D01*
X147672381Y-134527185D01*
X147672341Y-134527181D01*
X147492690Y-134471569D01*
X147327262Y-134382123D01*
X147182358Y-134262248D01*
X147063497Y-134116510D01*
X146975207Y-133950461D01*
X146920852Y-133770426D01*
X146902500Y-133583262D01*
X146902500Y-133573938D01*
X146902594Y-133560484D01*
X146923557Y-133373594D01*
X146980421Y-133194336D01*
X147071021Y-133029536D01*
X147191904Y-132885472D01*
X147338468Y-132767632D01*
X147505129Y-132680504D01*
X147685539Y-132627406D01*
X147685578Y-132627402D01*
X147685586Y-132627400D01*
X147872825Y-132610359D01*
X148059810Y-132630012D01*
X148059810Y-132630012D01*
G37*
G36*
X153139810Y-132630012D02*
X153139819Y-132630015D01*
X153139859Y-132630019D01*
X153319510Y-132685631D01*
X153484938Y-132775077D01*
X153629842Y-132894952D01*
X153748703Y-133040690D01*
X153836993Y-133206739D01*
X153891348Y-133386774D01*
X153909700Y-133573938D01*
X153909700Y-133583262D01*
X153909606Y-133596716D01*
X153888643Y-133783606D01*
X153831779Y-133962864D01*
X153741179Y-134127664D01*
X153620296Y-134271728D01*
X153473732Y-134389568D01*
X153307071Y-134476696D01*
X153126661Y-134529794D01*
X153126622Y-134529798D01*
X153126614Y-134529800D01*
X152939375Y-134546841D01*
X152752390Y-134527188D01*
X152752381Y-134527185D01*
X152752341Y-134527181D01*
X152572690Y-134471569D01*
X152407262Y-134382123D01*
X152262358Y-134262248D01*
X152143497Y-134116510D01*
X152055207Y-133950461D01*
X152000852Y-133770426D01*
X151982500Y-133583262D01*
X151982500Y-133573938D01*
X151982594Y-133560484D01*
X152003557Y-133373594D01*
X152060421Y-133194336D01*
X152151021Y-133029536D01*
X152271904Y-132885472D01*
X152418468Y-132767632D01*
X152585129Y-132680504D01*
X152765539Y-132627406D01*
X152765578Y-132627402D01*
X152765586Y-132627400D01*
X152952825Y-132610359D01*
X153139810Y-132630012D01*
X153139810Y-132630012D01*
G37*
G36*
X121042100Y-134542200D02*
X118810100Y-134542200D01*
X118810100Y-132615000D01*
X121042100Y-132615000D01*
X121042100Y-134542200D01*
X121042100Y-134542200D01*
G37*
G36*
X114692100Y-134542200D02*
X112460100Y-134542200D01*
X112460100Y-132615000D01*
X114692100Y-132615000D01*
X114692100Y-134542200D01*
X114692100Y-134542200D01*
G37*
G36*
X117867100Y-134542200D02*
X115635100Y-134542200D01*
X115635100Y-132615000D01*
X117867100Y-132615000D01*
X117867100Y-134542200D01*
X117867100Y-134542200D01*
G37*
G36*
X156211639Y-130812172D02*
X156377236Y-130846164D01*
X156533071Y-130911672D01*
X156673219Y-131006202D01*
X156792337Y-131126155D01*
X156885888Y-131266959D01*
X156950303Y-131423245D01*
X156983071Y-131588733D01*
X156983071Y-131588743D01*
X156983137Y-131589077D01*
X156980441Y-131782160D01*
X156980365Y-131782494D01*
X156980365Y-131782505D01*
X156942991Y-131947006D01*
X156874233Y-132101439D01*
X156776790Y-132239574D01*
X156654366Y-132356156D01*
X156511639Y-132446734D01*
X156354031Y-132507867D01*
X156187554Y-132537220D01*
X156018544Y-132533681D01*
X155853436Y-132497379D01*
X155698531Y-132429703D01*
X155559713Y-132333222D01*
X155442284Y-132211620D01*
X155350712Y-132069528D01*
X155288481Y-131912352D01*
X155257964Y-131746076D01*
X155260325Y-131577047D01*
X155295471Y-131411697D01*
X155362067Y-131256318D01*
X155457573Y-131116835D01*
X155578354Y-130998557D01*
X155719805Y-130905994D01*
X155876544Y-130842667D01*
X156042593Y-130810992D01*
X156211639Y-130812172D01*
X156211639Y-130812172D01*
G37*
G36*
X156211639Y-128272172D02*
X156377236Y-128306164D01*
X156533071Y-128371672D01*
X156673219Y-128466202D01*
X156792337Y-128586155D01*
X156885888Y-128726959D01*
X156950303Y-128883245D01*
X156983071Y-129048733D01*
X156983071Y-129048743D01*
X156983137Y-129049077D01*
X156980441Y-129242160D01*
X156980365Y-129242494D01*
X156980365Y-129242505D01*
X156942991Y-129407006D01*
X156874233Y-129561439D01*
X156776790Y-129699574D01*
X156654366Y-129816156D01*
X156511639Y-129906734D01*
X156354031Y-129967867D01*
X156187554Y-129997220D01*
X156018544Y-129993681D01*
X155853436Y-129957379D01*
X155698531Y-129889703D01*
X155559713Y-129793222D01*
X155442284Y-129671620D01*
X155350712Y-129529528D01*
X155288481Y-129372352D01*
X155257964Y-129206076D01*
X155260325Y-129037047D01*
X155295471Y-128871697D01*
X155362067Y-128716318D01*
X155457573Y-128576835D01*
X155578354Y-128458557D01*
X155719805Y-128365994D01*
X155876544Y-128302667D01*
X156042593Y-128270992D01*
X156211639Y-128272172D01*
X156211639Y-128272172D01*
G37*
G36*
X113793639Y-127002172D02*
X113959236Y-127036164D01*
X114115071Y-127101672D01*
X114255219Y-127196202D01*
X114374337Y-127316155D01*
X114467888Y-127456959D01*
X114532303Y-127613245D01*
X114565071Y-127778733D01*
X114565071Y-127778743D01*
X114565137Y-127779077D01*
X114562441Y-127972160D01*
X114562365Y-127972494D01*
X114562365Y-127972505D01*
X114524991Y-128137006D01*
X114456233Y-128291439D01*
X114358790Y-128429574D01*
X114236366Y-128546156D01*
X114093639Y-128636734D01*
X113936031Y-128697867D01*
X113769554Y-128727220D01*
X113600544Y-128723681D01*
X113435436Y-128687379D01*
X113280531Y-128619703D01*
X113141713Y-128523222D01*
X113024284Y-128401620D01*
X112932712Y-128259528D01*
X112870481Y-128102352D01*
X112839964Y-127936076D01*
X112842325Y-127767047D01*
X112877471Y-127601697D01*
X112944067Y-127446318D01*
X113039573Y-127306835D01*
X113160354Y-127188557D01*
X113301805Y-127095994D01*
X113458544Y-127032667D01*
X113624593Y-127000992D01*
X113793639Y-127002172D01*
X113793639Y-127002172D01*
G37*
G36*
X108713639Y-127002172D02*
X108879236Y-127036164D01*
X109035071Y-127101672D01*
X109175219Y-127196202D01*
X109294337Y-127316155D01*
X109387888Y-127456959D01*
X109452303Y-127613245D01*
X109485071Y-127778733D01*
X109485071Y-127778743D01*
X109485137Y-127779077D01*
X109482441Y-127972160D01*
X109482365Y-127972494D01*
X109482365Y-127972505D01*
X109444991Y-128137006D01*
X109376233Y-128291439D01*
X109278790Y-128429574D01*
X109156366Y-128546156D01*
X109013639Y-128636734D01*
X108856031Y-128697867D01*
X108689554Y-128727220D01*
X108520544Y-128723681D01*
X108355436Y-128687379D01*
X108200531Y-128619703D01*
X108061713Y-128523222D01*
X107944284Y-128401620D01*
X107852712Y-128259528D01*
X107790481Y-128102352D01*
X107759964Y-127936076D01*
X107762325Y-127767047D01*
X107797471Y-127601697D01*
X107864067Y-127446318D01*
X107959573Y-127306835D01*
X108080354Y-127188557D01*
X108221805Y-127095994D01*
X108378544Y-127032667D01*
X108544593Y-127000992D01*
X108713639Y-127002172D01*
X108713639Y-127002172D01*
G37*
G36*
X156211639Y-125732172D02*
X156377236Y-125766164D01*
X156533071Y-125831672D01*
X156673219Y-125926202D01*
X156792337Y-126046155D01*
X156885888Y-126186959D01*
X156950303Y-126343245D01*
X156983071Y-126508733D01*
X156983071Y-126508743D01*
X156983137Y-126509077D01*
X156980441Y-126702160D01*
X156980365Y-126702494D01*
X156980365Y-126702505D01*
X156942991Y-126867006D01*
X156874233Y-127021439D01*
X156776790Y-127159574D01*
X156654366Y-127276156D01*
X156511639Y-127366734D01*
X156354031Y-127427867D01*
X156187554Y-127457220D01*
X156018544Y-127453681D01*
X155853436Y-127417379D01*
X155698531Y-127349703D01*
X155559713Y-127253222D01*
X155442284Y-127131620D01*
X155350712Y-126989528D01*
X155288481Y-126832352D01*
X155257964Y-126666076D01*
X155260325Y-126497047D01*
X155295471Y-126331697D01*
X155362067Y-126176318D01*
X155457573Y-126036835D01*
X155578354Y-125918557D01*
X155719805Y-125825994D01*
X155876544Y-125762667D01*
X156042593Y-125730992D01*
X156211639Y-125732172D01*
X156211639Y-125732172D01*
G37*
G36*
X156211639Y-123192172D02*
X156377236Y-123226164D01*
X156533071Y-123291672D01*
X156673219Y-123386202D01*
X156792337Y-123506155D01*
X156885888Y-123646959D01*
X156950303Y-123803245D01*
X156983071Y-123968733D01*
X156983071Y-123968743D01*
X156983137Y-123969077D01*
X156980441Y-124162160D01*
X156980365Y-124162494D01*
X156980365Y-124162505D01*
X156942991Y-124327006D01*
X156874233Y-124481439D01*
X156776790Y-124619574D01*
X156654366Y-124736156D01*
X156511639Y-124826734D01*
X156354031Y-124887867D01*
X156187554Y-124917220D01*
X156018544Y-124913681D01*
X155853436Y-124877379D01*
X155698531Y-124809703D01*
X155559713Y-124713222D01*
X155442284Y-124591620D01*
X155350712Y-124449528D01*
X155288481Y-124292352D01*
X155257964Y-124126076D01*
X155260325Y-123957047D01*
X155295471Y-123791697D01*
X155362067Y-123636318D01*
X155457573Y-123496835D01*
X155578354Y-123378557D01*
X155719805Y-123285994D01*
X155876544Y-123222667D01*
X156042593Y-123190992D01*
X156211639Y-123192172D01*
X156211639Y-123192172D01*
G37*
G36*
X156211639Y-120652172D02*
X156377236Y-120686164D01*
X156533071Y-120751672D01*
X156673219Y-120846202D01*
X156792337Y-120966155D01*
X156885888Y-121106959D01*
X156950303Y-121263245D01*
X156983071Y-121428733D01*
X156983071Y-121428743D01*
X156983137Y-121429077D01*
X156980441Y-121622160D01*
X156980365Y-121622494D01*
X156980365Y-121622505D01*
X156942991Y-121787006D01*
X156874233Y-121941439D01*
X156776790Y-122079574D01*
X156654366Y-122196156D01*
X156511639Y-122286734D01*
X156354031Y-122347867D01*
X156187554Y-122377220D01*
X156018544Y-122373681D01*
X155853436Y-122337379D01*
X155698531Y-122269703D01*
X155559713Y-122173222D01*
X155442284Y-122051620D01*
X155350712Y-121909528D01*
X155288481Y-121752352D01*
X155257964Y-121586076D01*
X155260325Y-121417047D01*
X155295471Y-121251697D01*
X155362067Y-121096318D01*
X155457573Y-120956835D01*
X155578354Y-120838557D01*
X155719805Y-120745994D01*
X155876544Y-120682667D01*
X156042593Y-120650992D01*
X156211639Y-120652172D01*
X156211639Y-120652172D01*
G37*
G36*
X140971639Y-118112172D02*
X141137236Y-118146164D01*
X141293071Y-118211672D01*
X141433219Y-118306202D01*
X141552337Y-118426155D01*
X141645888Y-118566959D01*
X141710303Y-118723245D01*
X141743071Y-118888733D01*
X141743071Y-118888743D01*
X141743137Y-118889077D01*
X141740441Y-119082160D01*
X141740365Y-119082494D01*
X141740365Y-119082505D01*
X141702991Y-119247006D01*
X141634233Y-119401439D01*
X141536790Y-119539574D01*
X141414366Y-119656156D01*
X141271639Y-119746734D01*
X141114031Y-119807867D01*
X140947554Y-119837220D01*
X140778544Y-119833681D01*
X140613436Y-119797379D01*
X140458531Y-119729703D01*
X140319713Y-119633222D01*
X140202284Y-119511620D01*
X140110712Y-119369528D01*
X140048481Y-119212352D01*
X140017964Y-119046076D01*
X140020325Y-118877047D01*
X140055471Y-118711697D01*
X140122067Y-118556318D01*
X140217573Y-118416835D01*
X140338354Y-118298557D01*
X140479805Y-118205994D01*
X140636544Y-118142667D01*
X140802593Y-118110992D01*
X140971639Y-118112172D01*
X140971639Y-118112172D01*
G37*
G36*
X156211639Y-118112172D02*
X156377236Y-118146164D01*
X156533071Y-118211672D01*
X156673219Y-118306202D01*
X156792337Y-118426155D01*
X156885888Y-118566959D01*
X156950303Y-118723245D01*
X156983071Y-118888733D01*
X156983071Y-118888743D01*
X156983137Y-118889077D01*
X156980441Y-119082160D01*
X156980365Y-119082494D01*
X156980365Y-119082505D01*
X156942991Y-119247006D01*
X156874233Y-119401439D01*
X156776790Y-119539574D01*
X156654366Y-119656156D01*
X156511639Y-119746734D01*
X156354031Y-119807867D01*
X156187554Y-119837220D01*
X156018544Y-119833681D01*
X155853436Y-119797379D01*
X155698531Y-119729703D01*
X155559713Y-119633222D01*
X155442284Y-119511620D01*
X155350712Y-119369528D01*
X155288481Y-119212352D01*
X155257964Y-119046076D01*
X155260325Y-118877047D01*
X155295471Y-118711697D01*
X155362067Y-118556318D01*
X155457573Y-118416835D01*
X155578354Y-118298557D01*
X155719805Y-118205994D01*
X155876544Y-118142667D01*
X156042593Y-118110992D01*
X156211639Y-118112172D01*
X156211639Y-118112172D01*
G37*
G36*
X140971639Y-115572172D02*
X141137236Y-115606164D01*
X141293071Y-115671672D01*
X141433219Y-115766202D01*
X141552337Y-115886155D01*
X141645888Y-116026959D01*
X141710303Y-116183245D01*
X141743071Y-116348733D01*
X141743071Y-116348743D01*
X141743137Y-116349077D01*
X141740441Y-116542160D01*
X141740365Y-116542494D01*
X141740365Y-116542505D01*
X141702991Y-116707006D01*
X141634233Y-116861439D01*
X141536790Y-116999574D01*
X141414366Y-117116156D01*
X141271639Y-117206734D01*
X141114031Y-117267867D01*
X140947554Y-117297220D01*
X140778544Y-117293681D01*
X140613436Y-117257379D01*
X140458531Y-117189703D01*
X140319713Y-117093222D01*
X140202284Y-116971620D01*
X140110712Y-116829528D01*
X140048481Y-116672352D01*
X140017964Y-116506076D01*
X140020325Y-116337047D01*
X140055471Y-116171697D01*
X140122067Y-116016318D01*
X140217573Y-115876835D01*
X140338354Y-115758557D01*
X140479805Y-115665994D01*
X140636544Y-115602667D01*
X140802593Y-115570992D01*
X140971639Y-115572172D01*
X140971639Y-115572172D01*
G37*
G36*
X156211639Y-115572172D02*
X156377236Y-115606164D01*
X156533071Y-115671672D01*
X156673219Y-115766202D01*
X156792337Y-115886155D01*
X156885888Y-116026959D01*
X156950303Y-116183245D01*
X156983071Y-116348733D01*
X156983071Y-116348743D01*
X156983137Y-116349077D01*
X156980441Y-116542160D01*
X156980365Y-116542494D01*
X156980365Y-116542505D01*
X156942991Y-116707006D01*
X156874233Y-116861439D01*
X156776790Y-116999574D01*
X156654366Y-117116156D01*
X156511639Y-117206734D01*
X156354031Y-117267867D01*
X156187554Y-117297220D01*
X156018544Y-117293681D01*
X155853436Y-117257379D01*
X155698531Y-117189703D01*
X155559713Y-117093222D01*
X155442284Y-116971620D01*
X155350712Y-116829528D01*
X155288481Y-116672352D01*
X155257964Y-116506076D01*
X155260325Y-116337047D01*
X155295471Y-116171697D01*
X155362067Y-116016318D01*
X155457573Y-115876835D01*
X155578354Y-115758557D01*
X155719805Y-115665994D01*
X155876544Y-115602667D01*
X156042593Y-115570992D01*
X156211639Y-115572172D01*
X156211639Y-115572172D01*
G37*
G36*
X114150810Y-114823874D02*
X114150819Y-114823877D01*
X114150859Y-114823881D01*
X114330510Y-114879493D01*
X114495938Y-114968939D01*
X114640842Y-115088814D01*
X114759703Y-115234552D01*
X114847993Y-115400601D01*
X114902348Y-115580636D01*
X114920700Y-115767800D01*
X114920700Y-116083400D01*
X114920606Y-116096854D01*
X114899643Y-116283744D01*
X114842779Y-116463002D01*
X114752179Y-116627802D01*
X114631296Y-116771866D01*
X114484732Y-116889706D01*
X114318071Y-116976834D01*
X114137661Y-117029932D01*
X114137622Y-117029936D01*
X114137614Y-117029938D01*
X113950375Y-117046979D01*
X113763390Y-117027326D01*
X113763381Y-117027323D01*
X113763341Y-117027319D01*
X113583690Y-116971707D01*
X113418262Y-116882261D01*
X113273358Y-116762386D01*
X113154497Y-116616648D01*
X113066207Y-116450599D01*
X113011852Y-116270564D01*
X112993500Y-116083400D01*
X112993500Y-115767800D01*
X112993594Y-115754346D01*
X113014557Y-115567456D01*
X113071421Y-115388198D01*
X113162021Y-115223398D01*
X113282904Y-115079334D01*
X113429468Y-114961494D01*
X113596129Y-114874366D01*
X113776539Y-114821268D01*
X113776578Y-114821264D01*
X113776586Y-114821262D01*
X113963825Y-114804221D01*
X114150810Y-114823874D01*
X114150810Y-114823874D01*
G37*
G36*
X111610810Y-114823874D02*
X111610819Y-114823877D01*
X111610859Y-114823881D01*
X111790510Y-114879493D01*
X111955938Y-114968939D01*
X112100842Y-115088814D01*
X112219703Y-115234552D01*
X112307993Y-115400601D01*
X112362348Y-115580636D01*
X112380700Y-115767800D01*
X112380700Y-116083400D01*
X112380606Y-116096854D01*
X112359643Y-116283744D01*
X112302779Y-116463002D01*
X112212179Y-116627802D01*
X112091296Y-116771866D01*
X111944732Y-116889706D01*
X111778071Y-116976834D01*
X111597661Y-117029932D01*
X111597622Y-117029936D01*
X111597614Y-117029938D01*
X111410375Y-117046979D01*
X111223390Y-117027326D01*
X111223381Y-117027323D01*
X111223341Y-117027319D01*
X111043690Y-116971707D01*
X110878262Y-116882261D01*
X110733358Y-116762386D01*
X110614497Y-116616648D01*
X110526207Y-116450599D01*
X110471852Y-116270564D01*
X110453500Y-116083400D01*
X110453500Y-115767800D01*
X110453594Y-115754346D01*
X110474557Y-115567456D01*
X110531421Y-115388198D01*
X110622021Y-115223398D01*
X110742904Y-115079334D01*
X110889468Y-114961494D01*
X111056129Y-114874366D01*
X111236539Y-114821268D01*
X111236578Y-114821264D01*
X111236586Y-114821262D01*
X111423825Y-114804221D01*
X111610810Y-114823874D01*
X111610810Y-114823874D01*
G37*
G36*
X109840700Y-117041600D02*
X107913500Y-117041600D01*
X107913500Y-114809600D01*
X109840700Y-114809600D01*
X109840700Y-117041600D01*
X109840700Y-117041600D01*
G37*
G36*
X156211639Y-113032172D02*
X156377236Y-113066164D01*
X156533071Y-113131672D01*
X156673219Y-113226202D01*
X156792337Y-113346155D01*
X156885888Y-113486959D01*
X156950303Y-113643245D01*
X156983071Y-113808733D01*
X156983071Y-113808743D01*
X156983137Y-113809077D01*
X156980441Y-114002160D01*
X156980365Y-114002494D01*
X156980365Y-114002505D01*
X156942991Y-114167006D01*
X156874233Y-114321439D01*
X156776790Y-114459574D01*
X156654366Y-114576156D01*
X156511639Y-114666734D01*
X156354031Y-114727867D01*
X156187554Y-114757220D01*
X156018544Y-114753681D01*
X155853436Y-114717379D01*
X155698531Y-114649703D01*
X155559713Y-114553222D01*
X155442284Y-114431620D01*
X155350712Y-114289528D01*
X155288481Y-114132352D01*
X155257964Y-113966076D01*
X155260325Y-113797047D01*
X155295471Y-113631697D01*
X155362067Y-113476318D01*
X155457573Y-113336835D01*
X155578354Y-113218557D01*
X155719805Y-113125994D01*
X155876544Y-113062667D01*
X156042593Y-113030992D01*
X156211639Y-113032172D01*
X156211639Y-113032172D01*
G37*
G36*
X140971639Y-113032172D02*
X141137236Y-113066164D01*
X141293071Y-113131672D01*
X141433219Y-113226202D01*
X141552337Y-113346155D01*
X141645888Y-113486959D01*
X141710303Y-113643245D01*
X141743071Y-113808733D01*
X141743071Y-113808743D01*
X141743137Y-113809077D01*
X141740441Y-114002160D01*
X141740365Y-114002494D01*
X141740365Y-114002505D01*
X141702991Y-114167006D01*
X141634233Y-114321439D01*
X141536790Y-114459574D01*
X141414366Y-114576156D01*
X141271639Y-114666734D01*
X141114031Y-114727867D01*
X140947554Y-114757220D01*
X140778544Y-114753681D01*
X140613436Y-114717379D01*
X140458531Y-114649703D01*
X140319713Y-114553222D01*
X140202284Y-114431620D01*
X140110712Y-114289528D01*
X140048481Y-114132352D01*
X140017964Y-113966076D01*
X140020325Y-113797047D01*
X140055471Y-113631697D01*
X140122067Y-113476318D01*
X140217573Y-113336835D01*
X140338354Y-113218557D01*
X140479805Y-113125994D01*
X140636544Y-113062667D01*
X140802593Y-113030992D01*
X140971639Y-113032172D01*
X140971639Y-113032172D01*
G37*
G36*
X140971639Y-110492172D02*
X141137236Y-110526164D01*
X141293071Y-110591672D01*
X141433219Y-110686202D01*
X141552337Y-110806155D01*
X141645888Y-110946959D01*
X141710303Y-111103245D01*
X141743071Y-111268733D01*
X141743071Y-111268743D01*
X141743137Y-111269077D01*
X141740441Y-111462160D01*
X141740365Y-111462494D01*
X141740365Y-111462505D01*
X141702991Y-111627006D01*
X141634233Y-111781439D01*
X141536790Y-111919574D01*
X141414366Y-112036156D01*
X141271639Y-112126734D01*
X141114031Y-112187867D01*
X140947554Y-112217220D01*
X140778544Y-112213681D01*
X140613436Y-112177379D01*
X140458531Y-112109703D01*
X140319713Y-112013222D01*
X140202284Y-111891620D01*
X140110712Y-111749528D01*
X140048481Y-111592352D01*
X140017964Y-111426076D01*
X140020325Y-111257047D01*
X140055471Y-111091697D01*
X140122067Y-110936318D01*
X140217573Y-110796835D01*
X140338354Y-110678557D01*
X140479805Y-110585994D01*
X140636544Y-110522667D01*
X140802593Y-110490992D01*
X140971639Y-110492172D01*
X140971639Y-110492172D01*
G37*
G36*
X156211639Y-110492172D02*
X156377236Y-110526164D01*
X156533071Y-110591672D01*
X156673219Y-110686202D01*
X156792337Y-110806155D01*
X156885888Y-110946959D01*
X156950303Y-111103245D01*
X156983071Y-111268733D01*
X156983071Y-111268743D01*
X156983137Y-111269077D01*
X156980441Y-111462160D01*
X156980365Y-111462494D01*
X156980365Y-111462505D01*
X156942991Y-111627006D01*
X156874233Y-111781439D01*
X156776790Y-111919574D01*
X156654366Y-112036156D01*
X156511639Y-112126734D01*
X156354031Y-112187867D01*
X156187554Y-112217220D01*
X156018544Y-112213681D01*
X155853436Y-112177379D01*
X155698531Y-112109703D01*
X155559713Y-112013222D01*
X155442284Y-111891620D01*
X155350712Y-111749528D01*
X155288481Y-111592352D01*
X155257964Y-111426076D01*
X155260325Y-111257047D01*
X155295471Y-111091697D01*
X155362067Y-110936318D01*
X155457573Y-110796835D01*
X155578354Y-110678557D01*
X155719805Y-110585994D01*
X155876544Y-110522667D01*
X156042593Y-110490992D01*
X156211639Y-110492172D01*
X156211639Y-110492172D01*
G37*
G36*
X140971639Y-107952172D02*
X141137236Y-107986164D01*
X141293071Y-108051672D01*
X141433219Y-108146202D01*
X141552337Y-108266155D01*
X141645888Y-108406959D01*
X141710303Y-108563245D01*
X141743071Y-108728733D01*
X141743071Y-108728743D01*
X141743137Y-108729077D01*
X141740441Y-108922160D01*
X141740365Y-108922494D01*
X141740365Y-108922505D01*
X141702991Y-109087006D01*
X141634233Y-109241439D01*
X141536790Y-109379574D01*
X141414366Y-109496156D01*
X141271639Y-109586734D01*
X141114031Y-109647867D01*
X140947554Y-109677220D01*
X140778544Y-109673681D01*
X140613436Y-109637379D01*
X140458531Y-109569703D01*
X140319713Y-109473222D01*
X140202284Y-109351620D01*
X140110712Y-109209528D01*
X140048481Y-109052352D01*
X140017964Y-108886076D01*
X140020325Y-108717047D01*
X140055471Y-108551697D01*
X140122067Y-108396318D01*
X140217573Y-108256835D01*
X140338354Y-108138557D01*
X140479805Y-108045994D01*
X140636544Y-107982667D01*
X140802593Y-107950992D01*
X140971639Y-107952172D01*
X140971639Y-107952172D01*
G37*
G36*
X140971639Y-105412172D02*
X141137236Y-105446164D01*
X141293071Y-105511672D01*
X141433219Y-105606202D01*
X141552337Y-105726155D01*
X141645888Y-105866959D01*
X141710303Y-106023245D01*
X141743071Y-106188733D01*
X141743071Y-106188743D01*
X141743137Y-106189077D01*
X141740441Y-106382160D01*
X141740365Y-106382494D01*
X141740365Y-106382505D01*
X141702991Y-106547006D01*
X141634233Y-106701439D01*
X141536790Y-106839574D01*
X141414366Y-106956156D01*
X141271639Y-107046734D01*
X141114031Y-107107867D01*
X140947554Y-107137220D01*
X140778544Y-107133681D01*
X140613436Y-107097379D01*
X140458531Y-107029703D01*
X140319713Y-106933222D01*
X140202284Y-106811620D01*
X140110712Y-106669528D01*
X140048481Y-106512352D01*
X140017964Y-106346076D01*
X140020325Y-106177047D01*
X140055471Y-106011697D01*
X140122067Y-105856318D01*
X140217573Y-105716835D01*
X140338354Y-105598557D01*
X140479805Y-105505994D01*
X140636544Y-105442667D01*
X140802593Y-105410992D01*
X140971639Y-105412172D01*
X140971639Y-105412172D01*
G37*
G36*
X152351100Y-105328600D02*
X149651100Y-105328600D01*
X149651100Y-102628600D01*
X152351100Y-102628600D01*
X152351100Y-105328600D01*
X152351100Y-105328600D01*
G37*
G36*
X140971639Y-102872172D02*
X141137236Y-102906164D01*
X141293071Y-102971672D01*
X141433219Y-103066202D01*
X141552337Y-103186155D01*
X141645888Y-103326959D01*
X141710303Y-103483245D01*
X141743071Y-103648733D01*
X141743071Y-103648743D01*
X141743137Y-103649077D01*
X141740441Y-103842160D01*
X141740365Y-103842494D01*
X141740365Y-103842505D01*
X141702991Y-104007006D01*
X141634233Y-104161439D01*
X141536790Y-104299574D01*
X141414366Y-104416156D01*
X141271639Y-104506734D01*
X141114031Y-104567867D01*
X140947554Y-104597220D01*
X140778544Y-104593681D01*
X140613436Y-104557379D01*
X140458531Y-104489703D01*
X140319713Y-104393222D01*
X140202284Y-104271620D01*
X140110712Y-104129528D01*
X140048481Y-103972352D01*
X140017964Y-103806076D01*
X140020325Y-103637047D01*
X140055471Y-103471697D01*
X140122067Y-103316318D01*
X140217573Y-103176835D01*
X140338354Y-103058557D01*
X140479805Y-102965994D01*
X140636544Y-102902667D01*
X140802593Y-102870992D01*
X140971639Y-102872172D01*
X140971639Y-102872172D01*
G37*
G36*
X156211639Y-102872172D02*
X156377236Y-102906164D01*
X156533071Y-102971672D01*
X156673219Y-103066202D01*
X156792337Y-103186155D01*
X156885888Y-103326959D01*
X156950303Y-103483245D01*
X156983071Y-103648733D01*
X156983071Y-103648743D01*
X156983137Y-103649077D01*
X156980441Y-103842160D01*
X156980365Y-103842494D01*
X156980365Y-103842505D01*
X156942991Y-104007006D01*
X156874233Y-104161439D01*
X156776790Y-104299574D01*
X156654366Y-104416156D01*
X156511639Y-104506734D01*
X156354031Y-104567867D01*
X156187554Y-104597220D01*
X156018544Y-104593681D01*
X155853436Y-104557379D01*
X155698531Y-104489703D01*
X155559713Y-104393222D01*
X155442284Y-104271620D01*
X155350712Y-104129528D01*
X155288481Y-103972352D01*
X155257964Y-103806076D01*
X155260325Y-103637047D01*
X155295471Y-103471697D01*
X155362067Y-103316318D01*
X155457573Y-103176835D01*
X155578354Y-103058557D01*
X155719805Y-102965994D01*
X155876544Y-102902667D01*
X156042593Y-102870992D01*
X156211639Y-102872172D01*
X156211639Y-102872172D01*
G37*
G36*
X110491639Y-101856172D02*
X110657236Y-101890164D01*
X110813071Y-101955672D01*
X110953219Y-102050202D01*
X111072337Y-102170155D01*
X111165888Y-102310959D01*
X111230303Y-102467245D01*
X111263071Y-102632733D01*
X111263071Y-102632743D01*
X111263137Y-102633077D01*
X111260441Y-102826160D01*
X111260365Y-102826494D01*
X111260365Y-102826505D01*
X111222991Y-102991006D01*
X111154233Y-103145439D01*
X111056790Y-103283574D01*
X110934366Y-103400156D01*
X110791639Y-103490734D01*
X110634031Y-103551867D01*
X110467554Y-103581220D01*
X110298544Y-103577681D01*
X110133436Y-103541379D01*
X109978531Y-103473703D01*
X109839713Y-103377222D01*
X109722284Y-103255620D01*
X109630712Y-103113528D01*
X109568481Y-102956352D01*
X109537964Y-102790076D01*
X109540325Y-102621047D01*
X109575471Y-102455697D01*
X109642067Y-102300318D01*
X109737573Y-102160835D01*
X109858354Y-102042557D01*
X109999805Y-101949994D01*
X110156544Y-101886667D01*
X110322593Y-101854992D01*
X110491639Y-101856172D01*
X110491639Y-101856172D01*
G37*
G36*
X99061639Y-101856172D02*
X99227236Y-101890164D01*
X99383071Y-101955672D01*
X99523219Y-102050202D01*
X99642337Y-102170155D01*
X99735888Y-102310959D01*
X99800303Y-102467245D01*
X99833071Y-102632733D01*
X99833071Y-102632743D01*
X99833137Y-102633077D01*
X99830441Y-102826160D01*
X99830365Y-102826494D01*
X99830365Y-102826505D01*
X99792991Y-102991006D01*
X99724233Y-103145439D01*
X99626790Y-103283574D01*
X99504366Y-103400156D01*
X99361639Y-103490734D01*
X99204031Y-103551867D01*
X99037554Y-103581220D01*
X98868544Y-103577681D01*
X98703436Y-103541379D01*
X98548531Y-103473703D01*
X98409713Y-103377222D01*
X98292284Y-103255620D01*
X98200712Y-103113528D01*
X98138481Y-102956352D01*
X98107964Y-102790076D01*
X98110325Y-102621047D01*
X98145471Y-102455697D01*
X98212067Y-102300318D01*
X98307573Y-102160835D01*
X98428354Y-102042557D01*
X98569805Y-101949994D01*
X98726544Y-101886667D01*
X98892593Y-101854992D01*
X99061639Y-101856172D01*
X99061639Y-101856172D01*
G37*
G36*
X104141639Y-101856172D02*
X104307236Y-101890164D01*
X104463071Y-101955672D01*
X104603219Y-102050202D01*
X104722337Y-102170155D01*
X104815888Y-102310959D01*
X104880303Y-102467245D01*
X104913071Y-102632733D01*
X104913071Y-102632743D01*
X104913137Y-102633077D01*
X104910441Y-102826160D01*
X104910365Y-102826494D01*
X104910365Y-102826505D01*
X104872991Y-102991006D01*
X104804233Y-103145439D01*
X104706790Y-103283574D01*
X104584366Y-103400156D01*
X104441639Y-103490734D01*
X104284031Y-103551867D01*
X104117554Y-103581220D01*
X103948544Y-103577681D01*
X103783436Y-103541379D01*
X103628531Y-103473703D01*
X103489713Y-103377222D01*
X103372284Y-103255620D01*
X103280712Y-103113528D01*
X103218481Y-102956352D01*
X103187964Y-102790076D01*
X103190325Y-102621047D01*
X103225471Y-102455697D01*
X103292067Y-102300318D01*
X103387573Y-102160835D01*
X103508354Y-102042557D01*
X103649805Y-101949994D01*
X103806544Y-101886667D01*
X103972593Y-101854992D01*
X104141639Y-101856172D01*
X104141639Y-101856172D01*
G37*
G36*
X115571639Y-101856172D02*
X115737236Y-101890164D01*
X115893071Y-101955672D01*
X116033219Y-102050202D01*
X116152337Y-102170155D01*
X116245888Y-102310959D01*
X116310303Y-102467245D01*
X116343071Y-102632733D01*
X116343071Y-102632743D01*
X116343137Y-102633077D01*
X116340441Y-102826160D01*
X116340365Y-102826494D01*
X116340365Y-102826505D01*
X116302991Y-102991006D01*
X116234233Y-103145439D01*
X116136790Y-103283574D01*
X116014366Y-103400156D01*
X115871639Y-103490734D01*
X115714031Y-103551867D01*
X115547554Y-103581220D01*
X115378544Y-103577681D01*
X115213436Y-103541379D01*
X115058531Y-103473703D01*
X114919713Y-103377222D01*
X114802284Y-103255620D01*
X114710712Y-103113528D01*
X114648481Y-102956352D01*
X114617964Y-102790076D01*
X114620325Y-102621047D01*
X114655471Y-102455697D01*
X114722067Y-102300318D01*
X114817573Y-102160835D01*
X114938354Y-102042557D01*
X115079805Y-101949994D01*
X115236544Y-101886667D01*
X115402593Y-101854992D01*
X115571639Y-101856172D01*
X115571639Y-101856172D01*
G37*
G36*
X128271639Y-101856172D02*
X128437236Y-101890164D01*
X128593071Y-101955672D01*
X128733219Y-102050202D01*
X128852337Y-102170155D01*
X128945888Y-102310959D01*
X129010303Y-102467245D01*
X129043071Y-102632733D01*
X129043071Y-102632743D01*
X129043137Y-102633077D01*
X129040441Y-102826160D01*
X129040365Y-102826494D01*
X129040365Y-102826505D01*
X129002991Y-102991006D01*
X128934233Y-103145439D01*
X128836790Y-103283574D01*
X128714366Y-103400156D01*
X128571639Y-103490734D01*
X128414031Y-103551867D01*
X128247554Y-103581220D01*
X128078544Y-103577681D01*
X127913436Y-103541379D01*
X127758531Y-103473703D01*
X127619713Y-103377222D01*
X127502284Y-103255620D01*
X127410712Y-103113528D01*
X127348481Y-102956352D01*
X127317964Y-102790076D01*
X127320325Y-102621047D01*
X127355471Y-102455697D01*
X127422067Y-102300318D01*
X127517573Y-102160835D01*
X127638354Y-102042557D01*
X127779805Y-101949994D01*
X127936544Y-101886667D01*
X128102593Y-101854992D01*
X128271639Y-101856172D01*
X128271639Y-101856172D01*
G37*
G36*
X123191639Y-101856172D02*
X123357236Y-101890164D01*
X123513071Y-101955672D01*
X123653219Y-102050202D01*
X123772337Y-102170155D01*
X123865888Y-102310959D01*
X123930303Y-102467245D01*
X123963071Y-102632733D01*
X123963071Y-102632743D01*
X123963137Y-102633077D01*
X123960441Y-102826160D01*
X123960365Y-102826494D01*
X123960365Y-102826505D01*
X123922991Y-102991006D01*
X123854233Y-103145439D01*
X123756790Y-103283574D01*
X123634366Y-103400156D01*
X123491639Y-103490734D01*
X123334031Y-103551867D01*
X123167554Y-103581220D01*
X122998544Y-103577681D01*
X122833436Y-103541379D01*
X122678531Y-103473703D01*
X122539713Y-103377222D01*
X122422284Y-103255620D01*
X122330712Y-103113528D01*
X122268481Y-102956352D01*
X122237964Y-102790076D01*
X122240325Y-102621047D01*
X122275471Y-102455697D01*
X122342067Y-102300318D01*
X122437573Y-102160835D01*
X122558354Y-102042557D01*
X122699805Y-101949994D01*
X122856544Y-101886667D01*
X123022593Y-101854992D01*
X123191639Y-101856172D01*
X123191639Y-101856172D01*
G37*
G36*
X140971639Y-100332172D02*
X141137236Y-100366164D01*
X141293071Y-100431672D01*
X141433219Y-100526202D01*
X141552337Y-100646155D01*
X141645888Y-100786959D01*
X141710303Y-100943245D01*
X141743071Y-101108733D01*
X141743071Y-101108743D01*
X141743137Y-101109077D01*
X141740441Y-101302160D01*
X141740365Y-101302494D01*
X141740365Y-101302505D01*
X141702991Y-101467006D01*
X141634233Y-101621439D01*
X141536790Y-101759574D01*
X141414366Y-101876156D01*
X141271639Y-101966734D01*
X141114031Y-102027867D01*
X140947554Y-102057220D01*
X140778544Y-102053681D01*
X140613436Y-102017379D01*
X140458531Y-101949703D01*
X140319713Y-101853222D01*
X140202284Y-101731620D01*
X140110712Y-101589528D01*
X140048481Y-101432352D01*
X140017964Y-101266076D01*
X140020325Y-101097047D01*
X140055471Y-100931697D01*
X140122067Y-100776318D01*
X140217573Y-100636835D01*
X140338354Y-100518557D01*
X140479805Y-100425994D01*
X140636544Y-100362667D01*
X140802593Y-100330992D01*
X140971639Y-100332172D01*
X140971639Y-100332172D01*
G37*
G36*
X156211639Y-100332172D02*
X156377236Y-100366164D01*
X156533071Y-100431672D01*
X156673219Y-100526202D01*
X156792337Y-100646155D01*
X156885888Y-100786959D01*
X156950303Y-100943245D01*
X156983071Y-101108733D01*
X156983071Y-101108743D01*
X156983137Y-101109077D01*
X156980441Y-101302160D01*
X156980365Y-101302494D01*
X156980365Y-101302505D01*
X156942991Y-101467006D01*
X156874233Y-101621439D01*
X156776790Y-101759574D01*
X156654366Y-101876156D01*
X156511639Y-101966734D01*
X156354031Y-102027867D01*
X156187554Y-102057220D01*
X156018544Y-102053681D01*
X155853436Y-102017379D01*
X155698531Y-101949703D01*
X155559713Y-101853222D01*
X155442284Y-101731620D01*
X155350712Y-101589528D01*
X155288481Y-101432352D01*
X155257964Y-101266076D01*
X155260325Y-101097047D01*
X155295471Y-100931697D01*
X155362067Y-100776318D01*
X155457573Y-100636835D01*
X155578354Y-100518557D01*
X155719805Y-100425994D01*
X155876544Y-100362667D01*
X156042593Y-100330992D01*
X156211639Y-100332172D01*
X156211639Y-100332172D01*
G37*
G36*
X140971639Y-97792172D02*
X141137236Y-97826164D01*
X141293071Y-97891672D01*
X141433219Y-97986202D01*
X141552337Y-98106155D01*
X141645888Y-98246959D01*
X141710303Y-98403245D01*
X141743071Y-98568733D01*
X141743071Y-98568743D01*
X141743137Y-98569077D01*
X141740441Y-98762160D01*
X141740365Y-98762494D01*
X141740365Y-98762505D01*
X141702991Y-98927006D01*
X141634233Y-99081439D01*
X141536790Y-99219574D01*
X141414366Y-99336156D01*
X141271639Y-99426734D01*
X141114031Y-99487867D01*
X140947554Y-99517220D01*
X140778544Y-99513681D01*
X140613436Y-99477379D01*
X140458531Y-99409703D01*
X140319713Y-99313222D01*
X140202284Y-99191620D01*
X140110712Y-99049528D01*
X140048481Y-98892352D01*
X140017964Y-98726076D01*
X140020325Y-98557047D01*
X140055471Y-98391697D01*
X140122067Y-98236318D01*
X140217573Y-98096835D01*
X140338354Y-97978557D01*
X140479805Y-97885994D01*
X140636544Y-97822667D01*
X140802593Y-97790992D01*
X140971639Y-97792172D01*
X140971639Y-97792172D01*
G37*
G36*
X156211639Y-97792172D02*
X156377236Y-97826164D01*
X156533071Y-97891672D01*
X156673219Y-97986202D01*
X156792337Y-98106155D01*
X156885888Y-98246959D01*
X156950303Y-98403245D01*
X156983071Y-98568733D01*
X156983071Y-98568743D01*
X156983137Y-98569077D01*
X156980441Y-98762160D01*
X156980365Y-98762494D01*
X156980365Y-98762505D01*
X156942991Y-98927006D01*
X156874233Y-99081439D01*
X156776790Y-99219574D01*
X156654366Y-99336156D01*
X156511639Y-99426734D01*
X156354031Y-99487867D01*
X156187554Y-99517220D01*
X156018544Y-99513681D01*
X155853436Y-99477379D01*
X155698531Y-99409703D01*
X155559713Y-99313222D01*
X155442284Y-99191620D01*
X155350712Y-99049528D01*
X155288481Y-98892352D01*
X155257964Y-98726076D01*
X155260325Y-98557047D01*
X155295471Y-98391697D01*
X155362067Y-98236318D01*
X155457573Y-98096835D01*
X155578354Y-97978557D01*
X155719805Y-97885994D01*
X155876544Y-97822667D01*
X156042593Y-97790992D01*
X156211639Y-97792172D01*
X156211639Y-97792172D01*
G37*
G36*
X147351100Y-97728600D02*
X144651100Y-97728600D01*
X144651100Y-95028600D01*
X147351100Y-95028600D01*
X147351100Y-97728600D01*
X147351100Y-97728600D01*
G37*
G36*
X140971639Y-95252172D02*
X141137236Y-95286164D01*
X141293071Y-95351672D01*
X141433219Y-95446202D01*
X141552337Y-95566155D01*
X141645888Y-95706959D01*
X141710303Y-95863245D01*
X141743071Y-96028733D01*
X141743071Y-96028743D01*
X141743137Y-96029077D01*
X141740441Y-96222160D01*
X141740365Y-96222494D01*
X141740365Y-96222505D01*
X141702991Y-96387006D01*
X141634233Y-96541439D01*
X141536790Y-96679574D01*
X141414366Y-96796156D01*
X141271639Y-96886734D01*
X141114031Y-96947867D01*
X140947554Y-96977220D01*
X140778544Y-96973681D01*
X140613436Y-96937379D01*
X140458531Y-96869703D01*
X140319713Y-96773222D01*
X140202284Y-96651620D01*
X140110712Y-96509528D01*
X140048481Y-96352352D01*
X140017964Y-96186076D01*
X140020325Y-96017047D01*
X140055471Y-95851697D01*
X140122067Y-95696318D01*
X140217573Y-95556835D01*
X140338354Y-95438557D01*
X140479805Y-95345994D01*
X140636544Y-95282667D01*
X140802593Y-95250992D01*
X140971639Y-95252172D01*
X140971639Y-95252172D01*
G37*
G36*
X156211639Y-95252172D02*
X156377236Y-95286164D01*
X156533071Y-95351672D01*
X156673219Y-95446202D01*
X156792337Y-95566155D01*
X156885888Y-95706959D01*
X156950303Y-95863245D01*
X156983071Y-96028733D01*
X156983071Y-96028743D01*
X156983137Y-96029077D01*
X156980441Y-96222160D01*
X156980365Y-96222494D01*
X156980365Y-96222505D01*
X156942991Y-96387006D01*
X156874233Y-96541439D01*
X156776790Y-96679574D01*
X156654366Y-96796156D01*
X156511639Y-96886734D01*
X156354031Y-96947867D01*
X156187554Y-96977220D01*
X156018544Y-96973681D01*
X155853436Y-96937379D01*
X155698531Y-96869703D01*
X155559713Y-96773222D01*
X155442284Y-96651620D01*
X155350712Y-96509528D01*
X155288481Y-96352352D01*
X155257964Y-96186076D01*
X155260325Y-96017047D01*
X155295471Y-95851697D01*
X155362067Y-95696318D01*
X155457573Y-95556835D01*
X155578354Y-95438557D01*
X155719805Y-95345994D01*
X155876544Y-95282667D01*
X156042593Y-95250992D01*
X156211639Y-95252172D01*
X156211639Y-95252172D01*
G37*
G36*
X152351100Y-95928600D02*
X149651100Y-95928600D01*
X149651100Y-93228600D01*
X152351100Y-93228600D01*
X152351100Y-95928600D01*
X152351100Y-95928600D01*
G37*
G36*
X117831100Y-93768600D02*
X113131100Y-93768600D01*
X113131100Y-91568600D01*
X117831100Y-91568600D01*
X117831100Y-93768600D01*
X117831100Y-93768600D01*
G37*
G36*
X117831100Y-87768600D02*
X113131100Y-87768600D01*
X113131100Y-85568600D01*
X117831100Y-85568600D01*
X117831100Y-87768600D01*
X117831100Y-87768600D01*
G37*
M02*
