G04 #@! TF.FileFunction,Profile,NP*
%FSLAX46Y46*%
G04 Gerber Fmt 4.6, Leading zero omitted, Abs format (unit mm)*
G04 Created by KiCad (PCBNEW (after 2015-may-01 BZR unknown)-product) date 2015/05/23 20:59:23*
%MOMM*%
G01*
G04 APERTURE LIST*
%ADD10C,0.100000*%
%ADD11C,0.099060*%
G04 APERTURE END LIST*
D10*
D11*
X202796140Y-133553200D02*
X202745340Y-133555740D01*
X202745340Y-133555740D02*
X202697080Y-133563360D01*
X202697080Y-133563360D02*
X202648820Y-133576060D01*
X202648820Y-133576060D02*
X202603100Y-133591300D01*
X202603100Y-133591300D02*
X202559920Y-133614160D01*
X202559920Y-133614160D02*
X202516740Y-133637020D01*
X202516740Y-133637020D02*
X202478640Y-133667500D01*
X202478640Y-133667500D02*
X202440540Y-133700520D01*
X202440540Y-133700520D02*
X202407520Y-133736080D01*
X202407520Y-133736080D02*
X202379580Y-133776720D01*
X202379580Y-133776720D02*
X202354180Y-133817360D01*
X202354180Y-133817360D02*
X202333860Y-133863080D01*
X202333860Y-133863080D02*
X202316080Y-133908800D01*
X202316080Y-133908800D02*
X202305920Y-133957060D01*
X202305920Y-133957060D02*
X202295760Y-134005320D01*
X202295760Y-134005320D02*
X202295760Y-134053580D01*
X202295760Y-134053580D02*
X202295760Y-151152860D01*
X202295760Y-151152860D02*
X202295760Y-151203660D01*
X202295760Y-151203660D02*
X202305920Y-151251920D01*
X202305920Y-151251920D02*
X202316080Y-151300180D01*
X202316080Y-151300180D02*
X202333860Y-151345900D01*
X202333860Y-151345900D02*
X202354180Y-151389080D01*
X202354180Y-151389080D02*
X202379580Y-151432260D01*
X202379580Y-151432260D02*
X202407520Y-151470360D01*
X202407520Y-151470360D02*
X202440540Y-151508460D01*
X202440540Y-151508460D02*
X202478640Y-151541480D01*
X202478640Y-151541480D02*
X202516740Y-151569420D01*
X202516740Y-151569420D02*
X202559920Y-151594820D01*
X202559920Y-151594820D02*
X202603100Y-151615140D01*
X202603100Y-151615140D02*
X202648820Y-151632920D01*
X202648820Y-151632920D02*
X202697080Y-151643080D01*
X202697080Y-151643080D02*
X202745340Y-151653240D01*
X202745340Y-151653240D02*
X202796140Y-151653240D01*
X202796140Y-151653240D02*
X202796140Y-151653240D01*
X202796140Y-151653240D02*
X204894180Y-151653240D01*
X204894180Y-151653240D02*
X204944980Y-151653240D01*
X204944980Y-151653240D02*
X204993240Y-151643080D01*
X204993240Y-151643080D02*
X205038960Y-151632920D01*
X205038960Y-151632920D02*
X205087220Y-151615140D01*
X205087220Y-151615140D02*
X205130400Y-151594820D01*
X205130400Y-151594820D02*
X205173580Y-151569420D01*
X205173580Y-151569420D02*
X205211680Y-151541480D01*
X205211680Y-151541480D02*
X205249780Y-151508460D01*
X205249780Y-151508460D02*
X205282800Y-151470360D01*
X205282800Y-151470360D02*
X205310740Y-151432260D01*
X205310740Y-151432260D02*
X205336140Y-151389080D01*
X205336140Y-151389080D02*
X205356460Y-151345900D01*
X205356460Y-151345900D02*
X205374240Y-151300180D01*
X205374240Y-151300180D02*
X205384400Y-151251920D01*
X205384400Y-151251920D02*
X205392020Y-151203660D01*
X205392020Y-151203660D02*
X205394560Y-151152860D01*
X205394560Y-151152860D02*
X205394560Y-151152860D01*
X205394560Y-151152860D02*
X205394560Y-150154640D01*
X205894940Y-149654260D02*
X205846680Y-149656800D01*
X205846680Y-149656800D02*
X205795880Y-149664420D01*
X205795880Y-149664420D02*
X205750160Y-149677120D01*
X205750160Y-149677120D02*
X205704440Y-149692360D01*
X205704440Y-149692360D02*
X205658720Y-149712680D01*
X205658720Y-149712680D02*
X205618080Y-149738080D01*
X205618080Y-149738080D02*
X205577440Y-149766020D01*
X205577440Y-149766020D02*
X205541880Y-149799040D01*
X205541880Y-149799040D02*
X205508860Y-149837140D01*
X205508860Y-149837140D02*
X205478380Y-149875240D01*
X205478380Y-149875240D02*
X205452980Y-149918420D01*
X205452980Y-149918420D02*
X205432660Y-149964140D01*
X205432660Y-149964140D02*
X205417420Y-150009860D01*
X205417420Y-150009860D02*
X205404720Y-150055580D01*
X205404720Y-150055580D02*
X205397100Y-150103840D01*
X205397100Y-150103840D02*
X205394560Y-150154640D01*
X205894940Y-149654260D02*
X206695040Y-149654260D01*
X207195420Y-150154640D02*
X207192880Y-150103840D01*
X207192880Y-150103840D02*
X207185260Y-150055580D01*
X207185260Y-150055580D02*
X207172560Y-150009860D01*
X207172560Y-150009860D02*
X207157320Y-149964140D01*
X207157320Y-149964140D02*
X207137000Y-149918420D01*
X207137000Y-149918420D02*
X207111600Y-149875240D01*
X207111600Y-149875240D02*
X207081120Y-149837140D01*
X207081120Y-149837140D02*
X207048100Y-149799040D01*
X207048100Y-149799040D02*
X207012540Y-149766020D01*
X207012540Y-149766020D02*
X206971900Y-149738080D01*
X206971900Y-149738080D02*
X206931260Y-149712680D01*
X206931260Y-149712680D02*
X206885540Y-149692360D01*
X206885540Y-149692360D02*
X206839820Y-149677120D01*
X206839820Y-149677120D02*
X206794100Y-149664420D01*
X206794100Y-149664420D02*
X206743300Y-149656800D01*
X206743300Y-149656800D02*
X206695040Y-149654260D01*
X207195420Y-150154640D02*
X207195420Y-151152860D01*
X207195420Y-151152860D02*
X207197960Y-151203660D01*
X207197960Y-151203660D02*
X207205580Y-151251920D01*
X207205580Y-151251920D02*
X207215740Y-151300180D01*
X207215740Y-151300180D02*
X207233520Y-151345900D01*
X207233520Y-151345900D02*
X207253840Y-151389080D01*
X207253840Y-151389080D02*
X207279240Y-151432260D01*
X207279240Y-151432260D02*
X207307180Y-151470360D01*
X207307180Y-151470360D02*
X207340200Y-151508460D01*
X207340200Y-151508460D02*
X207378300Y-151541480D01*
X207378300Y-151541480D02*
X207416400Y-151569420D01*
X207416400Y-151569420D02*
X207459580Y-151594820D01*
X207459580Y-151594820D02*
X207502760Y-151615140D01*
X207502760Y-151615140D02*
X207551020Y-151632920D01*
X207551020Y-151632920D02*
X207596740Y-151643080D01*
X207596740Y-151643080D02*
X207645000Y-151653240D01*
X207645000Y-151653240D02*
X207695800Y-151653240D01*
X207695800Y-151653240D02*
X207695800Y-151653240D01*
X207695800Y-151653240D02*
X209793840Y-151653240D01*
X209793840Y-151653240D02*
X209844640Y-151653240D01*
X209844640Y-151653240D02*
X209892900Y-151643080D01*
X209892900Y-151643080D02*
X209941160Y-151632920D01*
X209941160Y-151632920D02*
X209986880Y-151615140D01*
X209986880Y-151615140D02*
X210030060Y-151594820D01*
X210030060Y-151594820D02*
X210073240Y-151569420D01*
X210073240Y-151569420D02*
X210111340Y-151541480D01*
X210111340Y-151541480D02*
X210149440Y-151508460D01*
X210149440Y-151508460D02*
X210182460Y-151470360D01*
X210182460Y-151470360D02*
X210210400Y-151432260D01*
X210210400Y-151432260D02*
X210235800Y-151389080D01*
X210235800Y-151389080D02*
X210256120Y-151345900D01*
X210256120Y-151345900D02*
X210273900Y-151300180D01*
X210273900Y-151300180D02*
X210284060Y-151251920D01*
X210284060Y-151251920D02*
X210294220Y-151203660D01*
X210294220Y-151203660D02*
X210294220Y-151152860D01*
X210294220Y-151152860D02*
X210294220Y-151152860D01*
X210294220Y-151152860D02*
X210294220Y-134053580D01*
X210294220Y-134053580D02*
X210294220Y-134005320D01*
X210294220Y-134005320D02*
X210284060Y-133957060D01*
X210284060Y-133957060D02*
X210273900Y-133908800D01*
X210273900Y-133908800D02*
X210256120Y-133863080D01*
X210256120Y-133863080D02*
X210235800Y-133817360D01*
X210235800Y-133817360D02*
X210210400Y-133776720D01*
X210210400Y-133776720D02*
X210182460Y-133736080D01*
X210182460Y-133736080D02*
X210149440Y-133700520D01*
X210149440Y-133700520D02*
X210111340Y-133667500D01*
X210111340Y-133667500D02*
X210073240Y-133637020D01*
X210073240Y-133637020D02*
X210030060Y-133614160D01*
X210030060Y-133614160D02*
X209986880Y-133591300D01*
X209986880Y-133591300D02*
X209941160Y-133576060D01*
X209941160Y-133576060D02*
X209892900Y-133563360D01*
X209892900Y-133563360D02*
X209844640Y-133555740D01*
X209844640Y-133555740D02*
X209793840Y-133553200D01*
X209793840Y-133553200D02*
X202796140Y-133553200D01*
X207444340Y-143253460D02*
X207441800Y-143154400D01*
X207441800Y-143154400D02*
X207429100Y-143055340D01*
X207429100Y-143055340D02*
X207406240Y-142958820D01*
X207406240Y-142958820D02*
X207375760Y-142862300D01*
X207375760Y-142862300D02*
X207340200Y-142770860D01*
X207340200Y-142770860D02*
X207291940Y-142681960D01*
X207291940Y-142681960D02*
X207238600Y-142598140D01*
X207238600Y-142598140D02*
X207180180Y-142519400D01*
X207180180Y-142519400D02*
X207111600Y-142445740D01*
X207111600Y-142445740D02*
X207037940Y-142377160D01*
X207037940Y-142377160D02*
X206959200Y-142316200D01*
X206959200Y-142316200D02*
X206875380Y-142262860D01*
X206875380Y-142262860D02*
X206789020Y-142214600D01*
X206789020Y-142214600D02*
X206695040Y-142176500D01*
X206695040Y-142176500D02*
X206601060Y-142146020D01*
X206601060Y-142146020D02*
X206504540Y-142123160D01*
X206504540Y-142123160D02*
X206405480Y-142107920D01*
X206405480Y-142107920D02*
X206306420Y-142102840D01*
X206306420Y-142102840D02*
X206204820Y-142107920D01*
X206204820Y-142107920D02*
X206105760Y-142118080D01*
X206105760Y-142118080D02*
X206009240Y-142140940D01*
X206009240Y-142140940D02*
X205915260Y-142168880D01*
X205915260Y-142168880D02*
X205821280Y-142206980D01*
X205821280Y-142206980D02*
X205732380Y-142250160D01*
X205732380Y-142250160D02*
X205648560Y-142303500D01*
X205648560Y-142303500D02*
X205567280Y-142361920D01*
X205567280Y-142361920D02*
X205493620Y-142427960D01*
X205493620Y-142427960D02*
X205425040Y-142501620D01*
X205425040Y-142501620D02*
X205364080Y-142580360D01*
X205364080Y-142580360D02*
X205308200Y-142664180D01*
X205308200Y-142664180D02*
X205259940Y-142750540D01*
X205259940Y-142750540D02*
X205221840Y-142841980D01*
X205221840Y-142841980D02*
X205188820Y-142935960D01*
X205188820Y-142935960D02*
X205165960Y-143035020D01*
X205165960Y-143035020D02*
X205150720Y-143134080D01*
X205150720Y-143134080D02*
X205145640Y-143233140D01*
X205145640Y-143233140D02*
X205148180Y-143332200D01*
X205148180Y-143332200D02*
X205158340Y-143431260D01*
X205158340Y-143431260D02*
X205178660Y-143527780D01*
X205178660Y-143527780D02*
X205206600Y-143624300D01*
X205206600Y-143624300D02*
X205242160Y-143715740D01*
X205242160Y-143715740D02*
X205287880Y-143807180D01*
X205287880Y-143807180D02*
X205338680Y-143891000D01*
X205338680Y-143891000D02*
X205397100Y-143972280D01*
X205397100Y-143972280D02*
X205463140Y-144048480D01*
X205463140Y-144048480D02*
X205534260Y-144117060D01*
X205534260Y-144117060D02*
X205613000Y-144178020D01*
X205613000Y-144178020D02*
X205694280Y-144233900D01*
X205694280Y-144233900D02*
X205783180Y-144282160D01*
X205783180Y-144282160D02*
X205872080Y-144322800D01*
X205872080Y-144322800D02*
X205968600Y-144355820D01*
X205968600Y-144355820D02*
X206065120Y-144381220D01*
X206065120Y-144381220D02*
X206164180Y-144396460D01*
X206164180Y-144396460D02*
X206263240Y-144404080D01*
X206263240Y-144404080D02*
X206362300Y-144401540D01*
X206362300Y-144401540D02*
X206461360Y-144391380D01*
X206461360Y-144391380D02*
X206557880Y-144373600D01*
X206557880Y-144373600D02*
X206654400Y-144345660D01*
X206654400Y-144345660D02*
X206748380Y-144310100D01*
X206748380Y-144310100D02*
X206837280Y-144266920D01*
X206837280Y-144266920D02*
X206923640Y-144216120D01*
X206923640Y-144216120D02*
X207004920Y-144160240D01*
X207004920Y-144160240D02*
X207081120Y-144094200D01*
X207081120Y-144094200D02*
X207149700Y-144023080D01*
X207149700Y-144023080D02*
X207213200Y-143946880D01*
X207213200Y-143946880D02*
X207269080Y-143863060D01*
X207269080Y-143863060D02*
X207319880Y-143776700D01*
X207319880Y-143776700D02*
X207360520Y-143685260D01*
X207360520Y-143685260D02*
X207393540Y-143591280D01*
X207393540Y-143591280D02*
X207418940Y-143494760D01*
X207418940Y-143494760D02*
X207436720Y-143398240D01*
X207436720Y-143398240D02*
X207444340Y-143299180D01*
X207444340Y-143299180D02*
X207444340Y-143253460D01*
X207545940Y-138953240D02*
X207540860Y-138854180D01*
X207540860Y-138854180D02*
X207528160Y-138755120D01*
X207528160Y-138755120D02*
X207507840Y-138656060D01*
X207507840Y-138656060D02*
X207482440Y-138562080D01*
X207482440Y-138562080D02*
X207446880Y-138468100D01*
X207446880Y-138468100D02*
X207403700Y-138379200D01*
X207403700Y-138379200D02*
X207355440Y-138290300D01*
X207355440Y-138290300D02*
X207299560Y-138209020D01*
X207299560Y-138209020D02*
X207236060Y-138130280D01*
X207236060Y-138130280D02*
X207167480Y-138059160D01*
X207167480Y-138059160D02*
X207093820Y-137993120D01*
X207093820Y-137993120D02*
X207015080Y-137932160D01*
X207015080Y-137932160D02*
X206931260Y-137876280D01*
X206931260Y-137876280D02*
X206842360Y-137830560D01*
X206842360Y-137830560D02*
X206750920Y-137789920D01*
X206750920Y-137789920D02*
X206656940Y-137756900D01*
X206656940Y-137756900D02*
X206560420Y-137731500D01*
X206560420Y-137731500D02*
X206461360Y-137716260D01*
X206461360Y-137716260D02*
X206362300Y-137706100D01*
X206362300Y-137706100D02*
X206263240Y-137703560D01*
X206263240Y-137703560D02*
X206164180Y-137711180D01*
X206164180Y-137711180D02*
X206065120Y-137723880D01*
X206065120Y-137723880D02*
X205966060Y-137746740D01*
X205966060Y-137746740D02*
X205872080Y-137777220D01*
X205872080Y-137777220D02*
X205780640Y-137815320D01*
X205780640Y-137815320D02*
X205689200Y-137861040D01*
X205689200Y-137861040D02*
X205605380Y-137911840D01*
X205605380Y-137911840D02*
X205524100Y-137970260D01*
X205524100Y-137970260D02*
X205447900Y-138033760D01*
X205447900Y-138033760D02*
X205376780Y-138104880D01*
X205376780Y-138104880D02*
X205313280Y-138181080D01*
X205313280Y-138181080D02*
X205254860Y-138262360D01*
X205254860Y-138262360D02*
X205201520Y-138346180D01*
X205201520Y-138346180D02*
X205155800Y-138435080D01*
X205155800Y-138435080D02*
X205120240Y-138529060D01*
X205120240Y-138529060D02*
X205089760Y-138623040D01*
X205089760Y-138623040D02*
X205066900Y-138722100D01*
X205066900Y-138722100D02*
X205051660Y-138818620D01*
X205051660Y-138818620D02*
X205044040Y-138920220D01*
X205044040Y-138920220D02*
X205046580Y-139016740D01*
X205046580Y-139016740D02*
X205056740Y-139118340D01*
X205056740Y-139118340D02*
X205071980Y-139214860D01*
X205071980Y-139214860D02*
X205097380Y-139313920D01*
X205097380Y-139313920D02*
X205130400Y-139407900D01*
X205130400Y-139407900D02*
X205171040Y-139499340D01*
X205171040Y-139499340D02*
X205216760Y-139588240D01*
X205216760Y-139588240D02*
X205270100Y-139672060D01*
X205270100Y-139672060D02*
X205331060Y-139750800D01*
X205331060Y-139750800D02*
X205397100Y-139824460D01*
X205397100Y-139824460D02*
X205470760Y-139893040D01*
X205470760Y-139893040D02*
X205546960Y-139956540D01*
X205546960Y-139956540D02*
X205630780Y-140012420D01*
X205630780Y-140012420D02*
X205717140Y-140063220D01*
X205717140Y-140063220D02*
X205806040Y-140103860D01*
X205806040Y-140103860D02*
X205900020Y-140139420D01*
X205900020Y-140139420D02*
X205996540Y-140167360D01*
X205996540Y-140167360D02*
X206093060Y-140187680D01*
X206093060Y-140187680D02*
X206192120Y-140200380D01*
X206192120Y-140200380D02*
X206291180Y-140202920D01*
X206291180Y-140202920D02*
X206392780Y-140200380D01*
X206392780Y-140200380D02*
X206491840Y-140190220D01*
X206491840Y-140190220D02*
X206588360Y-140169900D01*
X206588360Y-140169900D02*
X206684880Y-140141960D01*
X206684880Y-140141960D02*
X206778860Y-140106400D01*
X206778860Y-140106400D02*
X206867760Y-140065760D01*
X206867760Y-140065760D02*
X206954120Y-140014960D01*
X206954120Y-140014960D02*
X207037940Y-139959080D01*
X207037940Y-139959080D02*
X207116680Y-139898120D01*
X207116680Y-139898120D02*
X207187800Y-139829540D01*
X207187800Y-139829540D02*
X207253840Y-139755880D01*
X207253840Y-139755880D02*
X207314800Y-139674600D01*
X207314800Y-139674600D02*
X207370680Y-139590780D01*
X207370680Y-139590780D02*
X207416400Y-139504420D01*
X207416400Y-139504420D02*
X207457040Y-139412980D01*
X207457040Y-139412980D02*
X207490060Y-139319000D01*
X207490060Y-139319000D02*
X207515460Y-139222480D01*
X207515460Y-139222480D02*
X207533240Y-139123420D01*
X207533240Y-139123420D02*
X207543400Y-139024360D01*
X207543400Y-139024360D02*
X207545940Y-138953240D01*
X206545180Y-147703540D02*
X206545180Y-147678140D01*
X206545180Y-147678140D02*
X206540100Y-147655280D01*
X206540100Y-147655280D02*
X206535020Y-147629880D01*
X206535020Y-147629880D02*
X206524860Y-147607020D01*
X206524860Y-147607020D02*
X206514700Y-147586700D01*
X206514700Y-147586700D02*
X206502000Y-147563840D01*
X206502000Y-147563840D02*
X206486760Y-147546060D01*
X206486760Y-147546060D02*
X206471520Y-147525740D01*
X206471520Y-147525740D02*
X206453740Y-147510500D01*
X206453740Y-147510500D02*
X206433420Y-147495260D01*
X206433420Y-147495260D02*
X206413100Y-147485100D01*
X206413100Y-147485100D02*
X206390240Y-147472400D01*
X206390240Y-147472400D02*
X206367380Y-147464780D01*
X206367380Y-147464780D02*
X206344520Y-147459700D01*
X206344520Y-147459700D02*
X206319120Y-147454620D01*
X206319120Y-147454620D02*
X206296260Y-147454620D01*
X206296260Y-147454620D02*
X206270860Y-147454620D01*
X206270860Y-147454620D02*
X206245460Y-147459700D01*
X206245460Y-147459700D02*
X206222600Y-147464780D01*
X206222600Y-147464780D02*
X206199740Y-147472400D01*
X206199740Y-147472400D02*
X206176880Y-147485100D01*
X206176880Y-147485100D02*
X206156560Y-147495260D01*
X206156560Y-147495260D02*
X206136240Y-147510500D01*
X206136240Y-147510500D02*
X206118460Y-147525740D01*
X206118460Y-147525740D02*
X206103220Y-147546060D01*
X206103220Y-147546060D02*
X206087980Y-147563840D01*
X206087980Y-147563840D02*
X206075280Y-147586700D01*
X206075280Y-147586700D02*
X206065120Y-147607020D01*
X206065120Y-147607020D02*
X206054960Y-147629880D01*
X206054960Y-147629880D02*
X206049880Y-147655280D01*
X206049880Y-147655280D02*
X206044800Y-147678140D01*
X206044800Y-147678140D02*
X206044800Y-147703540D01*
X206044800Y-147703540D02*
X206044800Y-147728940D01*
X206044800Y-147728940D02*
X206049880Y-147751800D01*
X206049880Y-147751800D02*
X206054960Y-147777200D01*
X206054960Y-147777200D02*
X206065120Y-147800060D01*
X206065120Y-147800060D02*
X206075280Y-147822920D01*
X206075280Y-147822920D02*
X206087980Y-147843240D01*
X206087980Y-147843240D02*
X206103220Y-147863560D01*
X206103220Y-147863560D02*
X206118460Y-147881340D01*
X206118460Y-147881340D02*
X206136240Y-147896580D01*
X206136240Y-147896580D02*
X206156560Y-147911820D01*
X206156560Y-147911820D02*
X206176880Y-147924520D01*
X206176880Y-147924520D02*
X206199740Y-147934680D01*
X206199740Y-147934680D02*
X206222600Y-147942300D01*
X206222600Y-147942300D02*
X206245460Y-147949920D01*
X206245460Y-147949920D02*
X206270860Y-147952460D01*
X206270860Y-147952460D02*
X206296260Y-147952460D01*
X206296260Y-147952460D02*
X206319120Y-147952460D01*
X206319120Y-147952460D02*
X206344520Y-147949920D01*
X206344520Y-147949920D02*
X206367380Y-147942300D01*
X206367380Y-147942300D02*
X206390240Y-147934680D01*
X206390240Y-147934680D02*
X206413100Y-147924520D01*
X206413100Y-147924520D02*
X206433420Y-147911820D01*
X206433420Y-147911820D02*
X206453740Y-147896580D01*
X206453740Y-147896580D02*
X206471520Y-147881340D01*
X206471520Y-147881340D02*
X206486760Y-147863560D01*
X206486760Y-147863560D02*
X206502000Y-147843240D01*
X206502000Y-147843240D02*
X206514700Y-147822920D01*
X206514700Y-147822920D02*
X206524860Y-147800060D01*
X206524860Y-147800060D02*
X206535020Y-147777200D01*
X206535020Y-147777200D02*
X206540100Y-147751800D01*
X206540100Y-147751800D02*
X206545180Y-147728940D01*
X206545180Y-147728940D02*
X206545180Y-147703540D01*
X206545180Y-147703540D02*
X206545180Y-147703540D01*
X206545180Y-135503920D02*
X206545180Y-135478520D01*
X206545180Y-135478520D02*
X206540100Y-135455660D01*
X206540100Y-135455660D02*
X206535020Y-135430260D01*
X206535020Y-135430260D02*
X206524860Y-135407400D01*
X206524860Y-135407400D02*
X206514700Y-135387080D01*
X206514700Y-135387080D02*
X206502000Y-135364220D01*
X206502000Y-135364220D02*
X206486760Y-135343900D01*
X206486760Y-135343900D02*
X206471520Y-135326120D01*
X206471520Y-135326120D02*
X206453740Y-135310880D01*
X206453740Y-135310880D02*
X206433420Y-135295640D01*
X206433420Y-135295640D02*
X206413100Y-135282940D01*
X206413100Y-135282940D02*
X206390240Y-135272780D01*
X206390240Y-135272780D02*
X206367380Y-135265160D01*
X206367380Y-135265160D02*
X206344520Y-135260080D01*
X206344520Y-135260080D02*
X206319120Y-135255000D01*
X206319120Y-135255000D02*
X206296260Y-135255000D01*
X206296260Y-135255000D02*
X206270860Y-135255000D01*
X206270860Y-135255000D02*
X206245460Y-135260080D01*
X206245460Y-135260080D02*
X206222600Y-135265160D01*
X206222600Y-135265160D02*
X206199740Y-135272780D01*
X206199740Y-135272780D02*
X206176880Y-135282940D01*
X206176880Y-135282940D02*
X206156560Y-135295640D01*
X206156560Y-135295640D02*
X206136240Y-135310880D01*
X206136240Y-135310880D02*
X206118460Y-135326120D01*
X206118460Y-135326120D02*
X206103220Y-135343900D01*
X206103220Y-135343900D02*
X206087980Y-135364220D01*
X206087980Y-135364220D02*
X206075280Y-135387080D01*
X206075280Y-135387080D02*
X206065120Y-135407400D01*
X206065120Y-135407400D02*
X206054960Y-135430260D01*
X206054960Y-135430260D02*
X206049880Y-135455660D01*
X206049880Y-135455660D02*
X206044800Y-135478520D01*
X206044800Y-135478520D02*
X206044800Y-135503920D01*
X206044800Y-135503920D02*
X206044800Y-135529320D01*
X206044800Y-135529320D02*
X206049880Y-135552180D01*
X206049880Y-135552180D02*
X206054960Y-135577580D01*
X206054960Y-135577580D02*
X206065120Y-135600440D01*
X206065120Y-135600440D02*
X206075280Y-135620760D01*
X206075280Y-135620760D02*
X206087980Y-135643620D01*
X206087980Y-135643620D02*
X206103220Y-135663940D01*
X206103220Y-135663940D02*
X206118460Y-135681720D01*
X206118460Y-135681720D02*
X206136240Y-135696960D01*
X206136240Y-135696960D02*
X206156560Y-135712200D01*
X206156560Y-135712200D02*
X206176880Y-135724900D01*
X206176880Y-135724900D02*
X206199740Y-135735060D01*
X206199740Y-135735060D02*
X206222600Y-135742680D01*
X206222600Y-135742680D02*
X206245460Y-135747760D01*
X206245460Y-135747760D02*
X206270860Y-135752840D01*
X206270860Y-135752840D02*
X206296260Y-135752840D01*
X206296260Y-135752840D02*
X206319120Y-135752840D01*
X206319120Y-135752840D02*
X206344520Y-135747760D01*
X206344520Y-135747760D02*
X206367380Y-135742680D01*
X206367380Y-135742680D02*
X206390240Y-135735060D01*
X206390240Y-135735060D02*
X206413100Y-135724900D01*
X206413100Y-135724900D02*
X206433420Y-135712200D01*
X206433420Y-135712200D02*
X206453740Y-135696960D01*
X206453740Y-135696960D02*
X206471520Y-135681720D01*
X206471520Y-135681720D02*
X206486760Y-135663940D01*
X206486760Y-135663940D02*
X206502000Y-135643620D01*
X206502000Y-135643620D02*
X206514700Y-135620760D01*
X206514700Y-135620760D02*
X206524860Y-135600440D01*
X206524860Y-135600440D02*
X206535020Y-135577580D01*
X206535020Y-135577580D02*
X206540100Y-135552180D01*
X206540100Y-135552180D02*
X206545180Y-135529320D01*
X206545180Y-135529320D02*
X206545180Y-135503920D01*
X206545180Y-135503920D02*
X206545180Y-135503920D01*
X209235040Y-147703540D02*
X209232500Y-147665440D01*
X209232500Y-147665440D02*
X209227420Y-147624800D01*
X209227420Y-147624800D02*
X209217260Y-147589240D01*
X209217260Y-147589240D02*
X209204560Y-147551140D01*
X209204560Y-147551140D02*
X209186780Y-147515580D01*
X209186780Y-147515580D02*
X209169000Y-147482560D01*
X209169000Y-147482560D02*
X209143600Y-147449540D01*
X209143600Y-147449540D02*
X209118200Y-147421600D01*
X209118200Y-147421600D02*
X209090260Y-147396200D01*
X209090260Y-147396200D02*
X209057240Y-147370800D01*
X209057240Y-147370800D02*
X209024220Y-147350480D01*
X209024220Y-147350480D02*
X208988660Y-147335240D01*
X208988660Y-147335240D02*
X208950560Y-147320000D01*
X208950560Y-147320000D02*
X208912460Y-147312380D01*
X208912460Y-147312380D02*
X208874360Y-147304760D01*
X208874360Y-147304760D02*
X208836260Y-147304760D01*
X208836260Y-147304760D02*
X208795620Y-147304760D01*
X208795620Y-147304760D02*
X208757520Y-147312380D01*
X208757520Y-147312380D02*
X208719420Y-147320000D01*
X208719420Y-147320000D02*
X208681320Y-147335240D01*
X208681320Y-147335240D02*
X208645760Y-147350480D01*
X208645760Y-147350480D02*
X208612740Y-147370800D01*
X208612740Y-147370800D02*
X208582260Y-147396200D01*
X208582260Y-147396200D02*
X208551780Y-147421600D01*
X208551780Y-147421600D02*
X208526380Y-147449540D01*
X208526380Y-147449540D02*
X208500980Y-147482560D01*
X208500980Y-147482560D02*
X208483200Y-147515580D01*
X208483200Y-147515580D02*
X208465420Y-147551140D01*
X208465420Y-147551140D02*
X208452720Y-147589240D01*
X208452720Y-147589240D02*
X208442560Y-147624800D01*
X208442560Y-147624800D02*
X208437480Y-147665440D01*
X208437480Y-147665440D02*
X208434940Y-147703540D01*
X208434940Y-147703540D02*
X208437480Y-147744180D01*
X208437480Y-147744180D02*
X208442560Y-147782280D01*
X208442560Y-147782280D02*
X208452720Y-147820380D01*
X208452720Y-147820380D02*
X208465420Y-147855940D01*
X208465420Y-147855940D02*
X208483200Y-147894040D01*
X208483200Y-147894040D02*
X208500980Y-147927060D01*
X208500980Y-147927060D02*
X208526380Y-147957540D01*
X208526380Y-147957540D02*
X208551780Y-147988020D01*
X208551780Y-147988020D02*
X208582260Y-148013420D01*
X208582260Y-148013420D02*
X208612740Y-148036280D01*
X208612740Y-148036280D02*
X208645760Y-148056600D01*
X208645760Y-148056600D02*
X208681320Y-148074380D01*
X208681320Y-148074380D02*
X208719420Y-148087080D01*
X208719420Y-148087080D02*
X208757520Y-148097240D01*
X208757520Y-148097240D02*
X208795620Y-148102320D01*
X208795620Y-148102320D02*
X208836260Y-148104860D01*
X208836260Y-148104860D02*
X208874360Y-148102320D01*
X208874360Y-148102320D02*
X208912460Y-148097240D01*
X208912460Y-148097240D02*
X208950560Y-148087080D01*
X208950560Y-148087080D02*
X208988660Y-148074380D01*
X208988660Y-148074380D02*
X209024220Y-148056600D01*
X209024220Y-148056600D02*
X209057240Y-148036280D01*
X209057240Y-148036280D02*
X209090260Y-148013420D01*
X209090260Y-148013420D02*
X209118200Y-147988020D01*
X209118200Y-147988020D02*
X209143600Y-147957540D01*
X209143600Y-147957540D02*
X209169000Y-147927060D01*
X209169000Y-147927060D02*
X209186780Y-147894040D01*
X209186780Y-147894040D02*
X209204560Y-147855940D01*
X209204560Y-147855940D02*
X209217260Y-147820380D01*
X209217260Y-147820380D02*
X209227420Y-147782280D01*
X209227420Y-147782280D02*
X209232500Y-147744180D01*
X209232500Y-147744180D02*
X209235040Y-147703540D01*
X209235040Y-147703540D02*
X209235040Y-147703540D01*
X209235040Y-135503920D02*
X209232500Y-135465820D01*
X209232500Y-135465820D02*
X209227420Y-135425180D01*
X209227420Y-135425180D02*
X209217260Y-135387080D01*
X209217260Y-135387080D02*
X209204560Y-135351520D01*
X209204560Y-135351520D02*
X209186780Y-135315960D01*
X209186780Y-135315960D02*
X209169000Y-135282940D01*
X209169000Y-135282940D02*
X209143600Y-135249920D01*
X209143600Y-135249920D02*
X209118200Y-135221980D01*
X209118200Y-135221980D02*
X209090260Y-135194040D01*
X209090260Y-135194040D02*
X209057240Y-135171180D01*
X209057240Y-135171180D02*
X209024220Y-135150860D01*
X209024220Y-135150860D02*
X208988660Y-135133080D01*
X208988660Y-135133080D02*
X208950560Y-135120380D01*
X208950560Y-135120380D02*
X208912460Y-135112760D01*
X208912460Y-135112760D02*
X208874360Y-135105140D01*
X208874360Y-135105140D02*
X208836260Y-135105140D01*
X208836260Y-135105140D02*
X208795620Y-135105140D01*
X208795620Y-135105140D02*
X208757520Y-135112760D01*
X208757520Y-135112760D02*
X208719420Y-135120380D01*
X208719420Y-135120380D02*
X208681320Y-135133080D01*
X208681320Y-135133080D02*
X208645760Y-135150860D01*
X208645760Y-135150860D02*
X208612740Y-135171180D01*
X208612740Y-135171180D02*
X208582260Y-135194040D01*
X208582260Y-135194040D02*
X208551780Y-135221980D01*
X208551780Y-135221980D02*
X208526380Y-135249920D01*
X208526380Y-135249920D02*
X208500980Y-135282940D01*
X208500980Y-135282940D02*
X208483200Y-135315960D01*
X208483200Y-135315960D02*
X208465420Y-135351520D01*
X208465420Y-135351520D02*
X208452720Y-135387080D01*
X208452720Y-135387080D02*
X208442560Y-135425180D01*
X208442560Y-135425180D02*
X208437480Y-135465820D01*
X208437480Y-135465820D02*
X208434940Y-135503920D01*
X208434940Y-135503920D02*
X208437480Y-135542020D01*
X208437480Y-135542020D02*
X208442560Y-135582660D01*
X208442560Y-135582660D02*
X208452720Y-135620760D01*
X208452720Y-135620760D02*
X208465420Y-135656320D01*
X208465420Y-135656320D02*
X208483200Y-135691880D01*
X208483200Y-135691880D02*
X208500980Y-135724900D01*
X208500980Y-135724900D02*
X208526380Y-135757920D01*
X208526380Y-135757920D02*
X208551780Y-135785860D01*
X208551780Y-135785860D02*
X208582260Y-135813800D01*
X208582260Y-135813800D02*
X208612740Y-135836660D01*
X208612740Y-135836660D02*
X208645760Y-135856980D01*
X208645760Y-135856980D02*
X208681320Y-135874760D01*
X208681320Y-135874760D02*
X208719420Y-135887460D01*
X208719420Y-135887460D02*
X208757520Y-135895080D01*
X208757520Y-135895080D02*
X208795620Y-135902700D01*
X208795620Y-135902700D02*
X208836260Y-135905240D01*
X208836260Y-135905240D02*
X208874360Y-135902700D01*
X208874360Y-135902700D02*
X208912460Y-135895080D01*
X208912460Y-135895080D02*
X208950560Y-135887460D01*
X208950560Y-135887460D02*
X208988660Y-135874760D01*
X208988660Y-135874760D02*
X209024220Y-135856980D01*
X209024220Y-135856980D02*
X209057240Y-135836660D01*
X209057240Y-135836660D02*
X209090260Y-135813800D01*
X209090260Y-135813800D02*
X209118200Y-135785860D01*
X209118200Y-135785860D02*
X209143600Y-135757920D01*
X209143600Y-135757920D02*
X209169000Y-135724900D01*
X209169000Y-135724900D02*
X209186780Y-135691880D01*
X209186780Y-135691880D02*
X209204560Y-135656320D01*
X209204560Y-135656320D02*
X209217260Y-135620760D01*
X209217260Y-135620760D02*
X209227420Y-135582660D01*
X209227420Y-135582660D02*
X209232500Y-135542020D01*
X209232500Y-135542020D02*
X209235040Y-135503920D01*
X209235040Y-135503920D02*
X209235040Y-135503920D01*
M02*
