G04 #@! TF.FileFunction,Profile,NP*
%FSLAX46Y46*%
G04 Gerber Fmt 4.6, Leading zero omitted, Abs format (unit mm)*
G04 Created by KiCad (PCBNEW (after 2015-may-01 BZR unknown)-product) date 2015/11/12 15:21:13*
%MOMM*%
G01*
G04 APERTURE LIST*
%ADD10C,0.100000*%
G04 APERTURE END LIST*
D10*
X234760000Y-152260000D02*
X234760000Y-135160000D01*
X228614500Y-136611100D02*
G75*
G03X228614500Y-136611100I-400000J0D01*
G01*
X228614500Y-148811100D02*
G75*
G03X228614500Y-148811100I-400000J0D01*
G01*
X232004500Y-140061100D02*
G75*
G03X232004500Y-140061100I-1250000J0D01*
G01*
X231904500Y-144361100D02*
G75*
G03X231904500Y-144361100I-1150000J0D01*
G01*
X234254500Y-152761100D02*
X234754500Y-152261100D01*
X232154500Y-152761100D02*
X234254500Y-152761100D01*
X231654500Y-152261100D02*
X232154500Y-152761100D01*
X231654500Y-151261100D02*
X231654500Y-152261100D01*
X231154500Y-150761100D02*
X231654500Y-151261100D01*
X230354500Y-150761100D02*
X231154500Y-150761100D01*
X229854500Y-151261100D02*
X230354500Y-150761100D01*
X229854500Y-152261100D02*
X229854500Y-151261100D01*
X229354500Y-152761100D02*
X229854500Y-152261100D01*
X227254500Y-152761100D02*
X229354500Y-152761100D01*
X226754500Y-152261100D02*
X227254500Y-152761100D01*
X226754500Y-135161100D02*
X226754500Y-152261100D01*
X227254500Y-134661100D02*
X226754500Y-135161100D01*
X234254500Y-134661100D02*
X227254500Y-134661100D01*
X234754500Y-135161100D02*
X234254500Y-134661100D01*
M02*
