G04 #@! TF.FileFunction,Legend,Top*
%FSLAX46Y46*%
G04 Gerber Fmt 4.6, Leading zero omitted, Abs format (unit mm)*
G04 Created by KiCad (PCBNEW 4.0.1-stable) date 2016/02/29 22:10:02*
%MOMM*%
G01*
G04 APERTURE LIST*
%ADD10C,0.100000*%
%ADD11C,0.300000*%
%ADD12C,0.150000*%
G04 APERTURE END LIST*
D10*
X124121100Y-127633600D02*
X124121100Y-121783600D01*
X120071100Y-131683600D02*
X124121100Y-127633600D01*
X120771100Y-127983600D02*
X120771100Y-121883600D01*
X117021100Y-131733600D02*
X120771100Y-127983600D01*
X117171100Y-128533600D02*
X113971100Y-131733600D01*
X117171100Y-122033600D02*
X117171100Y-128533600D01*
D11*
X97678243Y-109012171D02*
X97678243Y-107512171D01*
X97678243Y-108226457D02*
X98535386Y-108226457D01*
X98535386Y-109012171D02*
X98535386Y-107512171D01*
X99892529Y-109012171D02*
X99892529Y-108226457D01*
X99821100Y-108083600D01*
X99678243Y-108012171D01*
X99392529Y-108012171D01*
X99249672Y-108083600D01*
X99892529Y-108940743D02*
X99749672Y-109012171D01*
X99392529Y-109012171D01*
X99249672Y-108940743D01*
X99178243Y-108797886D01*
X99178243Y-108655029D01*
X99249672Y-108512171D01*
X99392529Y-108440743D01*
X99749672Y-108440743D01*
X99892529Y-108369314D01*
X100606815Y-108012171D02*
X100606815Y-109012171D01*
X100606815Y-108155029D02*
X100678243Y-108083600D01*
X100821101Y-108012171D01*
X101035386Y-108012171D01*
X101178243Y-108083600D01*
X101249672Y-108226457D01*
X101249672Y-109012171D01*
X102606815Y-109012171D02*
X102606815Y-107512171D01*
X102606815Y-108940743D02*
X102463958Y-109012171D01*
X102178244Y-109012171D01*
X102035386Y-108940743D01*
X101963958Y-108869314D01*
X101892529Y-108726457D01*
X101892529Y-108297886D01*
X101963958Y-108155029D01*
X102035386Y-108083600D01*
X102178244Y-108012171D01*
X102463958Y-108012171D01*
X102606815Y-108083600D01*
X103821101Y-108226457D02*
X104035387Y-108297886D01*
X104106815Y-108369314D01*
X104178244Y-108512171D01*
X104178244Y-108726457D01*
X104106815Y-108869314D01*
X104035387Y-108940743D01*
X103892529Y-109012171D01*
X103321101Y-109012171D01*
X103321101Y-107512171D01*
X103821101Y-107512171D01*
X103963958Y-107583600D01*
X104035387Y-107655029D01*
X104106815Y-107797886D01*
X104106815Y-107940743D01*
X104035387Y-108083600D01*
X103963958Y-108155029D01*
X103821101Y-108226457D01*
X103321101Y-108226457D01*
X105035387Y-109012171D02*
X104892529Y-108940743D01*
X104821101Y-108869314D01*
X104749672Y-108726457D01*
X104749672Y-108297886D01*
X104821101Y-108155029D01*
X104892529Y-108083600D01*
X105035387Y-108012171D01*
X105249672Y-108012171D01*
X105392529Y-108083600D01*
X105463958Y-108155029D01*
X105535387Y-108297886D01*
X105535387Y-108726457D01*
X105463958Y-108869314D01*
X105392529Y-108940743D01*
X105249672Y-109012171D01*
X105035387Y-109012171D01*
X106821101Y-109012171D02*
X106821101Y-108226457D01*
X106749672Y-108083600D01*
X106606815Y-108012171D01*
X106321101Y-108012171D01*
X106178244Y-108083600D01*
X106821101Y-108940743D02*
X106678244Y-109012171D01*
X106321101Y-109012171D01*
X106178244Y-108940743D01*
X106106815Y-108797886D01*
X106106815Y-108655029D01*
X106178244Y-108512171D01*
X106321101Y-108440743D01*
X106678244Y-108440743D01*
X106821101Y-108369314D01*
X107535387Y-109012171D02*
X107535387Y-108012171D01*
X107535387Y-108297886D02*
X107606815Y-108155029D01*
X107678244Y-108083600D01*
X107821101Y-108012171D01*
X107963958Y-108012171D01*
X109106815Y-109012171D02*
X109106815Y-107512171D01*
X109106815Y-108940743D02*
X108963958Y-109012171D01*
X108678244Y-109012171D01*
X108535386Y-108940743D01*
X108463958Y-108869314D01*
X108392529Y-108726457D01*
X108392529Y-108297886D01*
X108463958Y-108155029D01*
X108535386Y-108083600D01*
X108678244Y-108012171D01*
X108963958Y-108012171D01*
X109106815Y-108083600D01*
X109463958Y-109155029D02*
X110606815Y-109155029D01*
X110821101Y-108012171D02*
X111178244Y-109012171D01*
X111535386Y-108012171D01*
X112892529Y-109012171D02*
X112035386Y-109012171D01*
X112463958Y-109012171D02*
X112463958Y-107512171D01*
X112321101Y-107726457D01*
X112178243Y-107869314D01*
X112035386Y-107940743D01*
X113178243Y-109155029D02*
X114321100Y-109155029D01*
X115392529Y-109012171D02*
X114678243Y-109012171D01*
X114678243Y-107512171D01*
X116463957Y-108940743D02*
X116321100Y-109012171D01*
X116035386Y-109012171D01*
X115892529Y-108940743D01*
X115821100Y-108797886D01*
X115821100Y-108226457D01*
X115892529Y-108083600D01*
X116035386Y-108012171D01*
X116321100Y-108012171D01*
X116463957Y-108083600D01*
X116535386Y-108226457D01*
X116535386Y-108369314D01*
X115821100Y-108512171D01*
X116963957Y-108012171D02*
X117535386Y-108012171D01*
X117178243Y-109012171D02*
X117178243Y-107726457D01*
X117249671Y-107583600D01*
X117392529Y-107512171D01*
X117535386Y-107512171D01*
X117821100Y-108012171D02*
X118392529Y-108012171D01*
X118035386Y-107512171D02*
X118035386Y-108797886D01*
X118106814Y-108940743D01*
X118249672Y-109012171D01*
X118392529Y-109012171D01*
X140162243Y-134566171D02*
X140162243Y-133066171D01*
X140876529Y-134566171D02*
X140876529Y-133066171D01*
X141733672Y-134566171D01*
X141733672Y-133066171D01*
X142447958Y-133994743D02*
X143590815Y-133994743D01*
X122328243Y-134162171D02*
X122328243Y-132662171D01*
X122899671Y-132662171D01*
X123042529Y-132733600D01*
X123113957Y-132805029D01*
X123185386Y-132947886D01*
X123185386Y-133162171D01*
X123113957Y-133305029D01*
X123042529Y-133376457D01*
X122899671Y-133447886D01*
X122328243Y-133447886D01*
X123685386Y-132662171D02*
X124042529Y-134162171D01*
X124328243Y-133090743D01*
X124613957Y-134162171D01*
X124971100Y-132662171D01*
X125542529Y-134162171D02*
X125542529Y-132662171D01*
X126042529Y-133733600D01*
X126542529Y-132662171D01*
X126542529Y-134162171D01*
X122213957Y-135312171D02*
X122713957Y-136812171D01*
X123213957Y-135312171D01*
X123713957Y-136240743D02*
X124856814Y-136240743D01*
X124285385Y-136812171D02*
X124285385Y-135669314D01*
X123113957Y-137833600D02*
X122971100Y-137762171D01*
X122756814Y-137762171D01*
X122542529Y-137833600D01*
X122399671Y-137976457D01*
X122328243Y-138119314D01*
X122256814Y-138405029D01*
X122256814Y-138619314D01*
X122328243Y-138905029D01*
X122399671Y-139047886D01*
X122542529Y-139190743D01*
X122756814Y-139262171D01*
X122899671Y-139262171D01*
X123113957Y-139190743D01*
X123185386Y-139119314D01*
X123185386Y-138619314D01*
X122899671Y-138619314D01*
X123828243Y-139262171D02*
X123828243Y-137762171D01*
X124685386Y-139262171D01*
X124685386Y-137762171D01*
X125399672Y-139262171D02*
X125399672Y-137762171D01*
X125756815Y-137762171D01*
X125971100Y-137833600D01*
X126113958Y-137976457D01*
X126185386Y-138119314D01*
X126256815Y-138405029D01*
X126256815Y-138619314D01*
X126185386Y-138905029D01*
X126113958Y-139047886D01*
X125971100Y-139190743D01*
X125756815Y-139262171D01*
X125399672Y-139262171D01*
X140162243Y-126966171D02*
X140162243Y-125466171D01*
X140876529Y-126966171D02*
X140876529Y-125466171D01*
X141733672Y-126966171D01*
X141733672Y-125466171D01*
X142447958Y-126394743D02*
X143590815Y-126394743D01*
X143019386Y-126966171D02*
X143019386Y-125823314D01*
D10*
X150687100Y-126329600D02*
X152287100Y-127929600D01*
X146437100Y-126329600D02*
X150687100Y-126329600D01*
X150737100Y-133929600D02*
X152287100Y-132379600D01*
X146437100Y-133929600D02*
X150737100Y-133929600D01*
D11*
X140447957Y-130516171D02*
X140733671Y-130516171D01*
X140876529Y-130587600D01*
X141019386Y-130730457D01*
X141090814Y-131016171D01*
X141090814Y-131516171D01*
X141019386Y-131801886D01*
X140876529Y-131944743D01*
X140733671Y-132016171D01*
X140447957Y-132016171D01*
X140305100Y-131944743D01*
X140162243Y-131801886D01*
X140090814Y-131516171D01*
X140090814Y-131016171D01*
X140162243Y-130730457D01*
X140305100Y-130587600D01*
X140447957Y-130516171D01*
X141733672Y-130516171D02*
X141733672Y-131730457D01*
X141805100Y-131873314D01*
X141876529Y-131944743D01*
X142019386Y-132016171D01*
X142305100Y-132016171D01*
X142447958Y-131944743D01*
X142519386Y-131873314D01*
X142590815Y-131730457D01*
X142590815Y-130516171D01*
X143090815Y-130516171D02*
X143947958Y-130516171D01*
X143519387Y-132016171D02*
X143519387Y-130516171D01*
X144447958Y-131444743D02*
X145590815Y-131444743D01*
X140447957Y-127966171D02*
X140733671Y-127966171D01*
X140876529Y-128037600D01*
X141019386Y-128180457D01*
X141090814Y-128466171D01*
X141090814Y-128966171D01*
X141019386Y-129251886D01*
X140876529Y-129394743D01*
X140733671Y-129466171D01*
X140447957Y-129466171D01*
X140305100Y-129394743D01*
X140162243Y-129251886D01*
X140090814Y-128966171D01*
X140090814Y-128466171D01*
X140162243Y-128180457D01*
X140305100Y-128037600D01*
X140447957Y-127966171D01*
X141733672Y-127966171D02*
X141733672Y-129180457D01*
X141805100Y-129323314D01*
X141876529Y-129394743D01*
X142019386Y-129466171D01*
X142305100Y-129466171D01*
X142447958Y-129394743D01*
X142519386Y-129323314D01*
X142590815Y-129180457D01*
X142590815Y-127966171D01*
X143090815Y-127966171D02*
X143947958Y-127966171D01*
X143519387Y-129466171D02*
X143519387Y-127966171D01*
X144447958Y-128894743D02*
X145590815Y-128894743D01*
X145019386Y-129466171D02*
X145019386Y-128323314D01*
D10*
X149437100Y-128879600D02*
X146437100Y-128879600D01*
X149437100Y-131429600D02*
X146437100Y-131429600D01*
D11*
X124899671Y-121355029D02*
X123399671Y-121355029D01*
X123899671Y-120640743D02*
X124899671Y-120640743D01*
X124042529Y-120640743D02*
X123971100Y-120569315D01*
X123899671Y-120426457D01*
X123899671Y-120212172D01*
X123971100Y-120069315D01*
X124113957Y-119997886D01*
X124899671Y-119997886D01*
X124899671Y-118640743D02*
X123399671Y-118640743D01*
X124828243Y-118640743D02*
X124899671Y-118783600D01*
X124899671Y-119069314D01*
X124828243Y-119212172D01*
X124756814Y-119283600D01*
X124613957Y-119355029D01*
X124185386Y-119355029D01*
X124042529Y-119283600D01*
X123971100Y-119212172D01*
X123899671Y-119069314D01*
X123899671Y-118783600D01*
X123971100Y-118640743D01*
X124828243Y-117355029D02*
X124899671Y-117497886D01*
X124899671Y-117783600D01*
X124828243Y-117926457D01*
X124685386Y-117997886D01*
X124113957Y-117997886D01*
X123971100Y-117926457D01*
X123899671Y-117783600D01*
X123899671Y-117497886D01*
X123971100Y-117355029D01*
X124113957Y-117283600D01*
X124256814Y-117283600D01*
X124399671Y-117997886D01*
X124899671Y-116783600D02*
X123899671Y-115997886D01*
X123899671Y-116783600D02*
X124899671Y-115997886D01*
X121599671Y-121390743D02*
X120099671Y-121390743D01*
X121171100Y-120890743D01*
X120099671Y-120390743D01*
X121599671Y-120390743D01*
X121599671Y-119676457D02*
X120599671Y-119676457D01*
X120099671Y-119676457D02*
X120171100Y-119747886D01*
X120242529Y-119676457D01*
X120171100Y-119605029D01*
X120099671Y-119676457D01*
X120242529Y-119676457D01*
X121599671Y-118319314D02*
X120099671Y-118319314D01*
X121528243Y-118319314D02*
X121599671Y-118462171D01*
X121599671Y-118747885D01*
X121528243Y-118890743D01*
X121456814Y-118962171D01*
X121313957Y-119033600D01*
X120885386Y-119033600D01*
X120742529Y-118962171D01*
X120671100Y-118890743D01*
X120599671Y-118747885D01*
X120599671Y-118462171D01*
X120671100Y-118319314D01*
X121599671Y-116962171D02*
X120099671Y-116962171D01*
X121528243Y-116962171D02*
X121599671Y-117105028D01*
X121599671Y-117390742D01*
X121528243Y-117533600D01*
X121456814Y-117605028D01*
X121313957Y-117676457D01*
X120885386Y-117676457D01*
X120742529Y-117605028D01*
X120671100Y-117533600D01*
X120599671Y-117390742D01*
X120599671Y-117105028D01*
X120671100Y-116962171D01*
X121599671Y-116033599D02*
X121528243Y-116176457D01*
X121385386Y-116247885D01*
X120099671Y-116247885D01*
X121528243Y-114890743D02*
X121599671Y-115033600D01*
X121599671Y-115319314D01*
X121528243Y-115462171D01*
X121385386Y-115533600D01*
X120813957Y-115533600D01*
X120671100Y-115462171D01*
X120599671Y-115319314D01*
X120599671Y-115033600D01*
X120671100Y-114890743D01*
X120813957Y-114819314D01*
X120956814Y-114819314D01*
X121099671Y-115533600D01*
X116441671Y-121465029D02*
X116441671Y-120607886D01*
X117941671Y-121036457D02*
X116441671Y-121036457D01*
X117941671Y-120107886D02*
X116441671Y-120107886D01*
X117941671Y-119465029D02*
X117155957Y-119465029D01*
X117013100Y-119536458D01*
X116941671Y-119679315D01*
X116941671Y-119893600D01*
X117013100Y-120036458D01*
X117084529Y-120107886D01*
X116941671Y-118107886D02*
X117941671Y-118107886D01*
X116941671Y-118750743D02*
X117727386Y-118750743D01*
X117870243Y-118679315D01*
X117941671Y-118536457D01*
X117941671Y-118322172D01*
X117870243Y-118179315D01*
X117798814Y-118107886D01*
X117941671Y-117393600D02*
X116941671Y-117393600D01*
X117084529Y-117393600D02*
X117013100Y-117322172D01*
X116941671Y-117179314D01*
X116941671Y-116965029D01*
X117013100Y-116822172D01*
X117155957Y-116750743D01*
X117941671Y-116750743D01*
X117155957Y-116750743D02*
X117013100Y-116679314D01*
X116941671Y-116536457D01*
X116941671Y-116322172D01*
X117013100Y-116179314D01*
X117155957Y-116107886D01*
X117941671Y-116107886D01*
X117941671Y-115393600D02*
X116441671Y-115393600D01*
X117013100Y-115393600D02*
X116941671Y-115250743D01*
X116941671Y-114965029D01*
X117013100Y-114822172D01*
X117084529Y-114750743D01*
X117227386Y-114679314D01*
X117655957Y-114679314D01*
X117798814Y-114750743D01*
X117870243Y-114822172D01*
X117941671Y-114965029D01*
X117941671Y-115250743D01*
X117870243Y-115393600D01*
D12*
X112687100Y-134721600D02*
X112687100Y-139801600D01*
X112687100Y-139801600D02*
X115227100Y-139801600D01*
X115227100Y-139801600D02*
X115227100Y-134721600D01*
X115507100Y-131901600D02*
X115507100Y-133451600D01*
X115227100Y-134721600D02*
X112687100Y-134721600D01*
X112407100Y-133451600D02*
X112407100Y-131901600D01*
X112407100Y-131901600D02*
X115507100Y-131901600D01*
X153327100Y-127329600D02*
X154877100Y-127329600D01*
X154877100Y-128879600D02*
X154877100Y-127329600D01*
X152057100Y-127609600D02*
X152057100Y-130149600D01*
X152057100Y-130149600D02*
X154597100Y-130149600D01*
X154597100Y-130149600D02*
X154597100Y-132689600D01*
X154597100Y-132689600D02*
X149517100Y-132689600D01*
X149517100Y-132689600D02*
X149517100Y-127609600D01*
X149517100Y-127609600D02*
X152057100Y-127609600D01*
X157391100Y-92049600D02*
X157391100Y-140309600D01*
X157391100Y-140309600D02*
X139611100Y-140309600D01*
X139611100Y-140309600D02*
X139611100Y-92049600D01*
X139611100Y-92049600D02*
X157391100Y-92049600D01*
X105321100Y-102717600D02*
G75*
G03X105321100Y-102717600I-3810000J0D01*
G01*
X116751100Y-102717600D02*
G75*
G03X116751100Y-102717600I-3810000J0D01*
G01*
X129451100Y-102717600D02*
G75*
G03X129451100Y-102717600I-3810000J0D01*
G01*
X114973100Y-127863600D02*
G75*
G03X114973100Y-127863600I-3810000J0D01*
G01*
X144855100Y-92605600D02*
X144855100Y-106605600D01*
X144855100Y-106605600D02*
X152755100Y-106605600D01*
X152755100Y-106605600D02*
X152755100Y-92605600D01*
X152755100Y-92605600D02*
X144855100Y-92605600D01*
X151255100Y-89605600D02*
X151255100Y-92605600D01*
X146255100Y-89605600D02*
X151255100Y-89605600D01*
X146255100Y-92605600D02*
X146255100Y-89605600D01*
X149579721Y-102605600D02*
G75*
G03X149579721Y-102605600I-824621J0D01*
G01*
X149579721Y-95605600D02*
G75*
G03X149579721Y-95605600I-824621J0D01*
G01*
X115735100Y-134721600D02*
X115735100Y-139801600D01*
X115735100Y-139801600D02*
X118275100Y-139801600D01*
X118275100Y-139801600D02*
X118275100Y-134721600D01*
X118555100Y-131901600D02*
X118555100Y-133451600D01*
X118275100Y-134721600D02*
X115735100Y-134721600D01*
X115455100Y-133451600D02*
X115455100Y-131901600D01*
X115455100Y-131901600D02*
X118555100Y-131901600D01*
X110147100Y-117195600D02*
X115227100Y-117195600D01*
X115227100Y-117195600D02*
X115227100Y-114655600D01*
X115227100Y-114655600D02*
X110147100Y-114655600D01*
X107327100Y-114375600D02*
X108877100Y-114375600D01*
X110147100Y-114655600D02*
X110147100Y-117195600D01*
X108877100Y-117475600D02*
X107327100Y-117475600D01*
X107327100Y-117475600D02*
X107327100Y-114375600D01*
X118783100Y-134721600D02*
X118783100Y-139801600D01*
X118783100Y-139801600D02*
X121323100Y-139801600D01*
X121323100Y-139801600D02*
X121323100Y-134721600D01*
X121603100Y-131901600D02*
X121603100Y-133451600D01*
X121323100Y-134721600D02*
X118783100Y-134721600D01*
X118503100Y-133451600D02*
X118503100Y-131901600D01*
X118503100Y-131901600D02*
X121603100Y-131901600D01*
M02*
