M48
;DRILL file {KiCad 4.0.1-stable} date 2016/02/29 22:14:11
;FORMAT={-:-/ absolute / metric / decimal}
FMAT,2
METRIC,TZ
T1C0.500
T2C1.000
T3C2.000
%
G90
G05
M71
T1
X107.099Y-103.226
X107.607Y-122.53
X107.861Y-133.452
X111.417Y-111.1
X117.513Y-106.782
X118.529Y-122.784
X120.053Y-130.658
X124.879Y-122.53
X137.071Y-106.02
X142.913Y-123.038
X149.263Y-108.306
X150.787Y-138.532
X154.343Y-136.5
T2
X98.971Y-102.718
X104.051Y-102.718
X108.623Y-127.864
X108.877Y-115.926
X110.401Y-102.718
X111.417Y-115.926
X113.703Y-127.864
X113.957Y-115.926
X113.957Y-133.452
X113.957Y-135.992
X113.957Y-138.532
X115.481Y-102.718
X117.005Y-133.452
X117.005Y-135.992
X117.005Y-138.532
X120.053Y-133.452
X120.053Y-135.992
X120.053Y-138.532
X123.101Y-102.718
X128.181Y-102.718
X140.881Y-95.86
X140.881Y-98.4
X140.881Y-100.94
X140.881Y-103.48
X140.881Y-106.02
X140.881Y-108.56
X140.881Y-111.1
X140.881Y-113.64
X140.881Y-116.18
X140.881Y-118.72
X150.787Y-128.88
X150.787Y-131.42
X153.327Y-128.88
X153.327Y-131.42
X156.121Y-95.86
X156.121Y-98.4
X156.121Y-100.94
X156.121Y-103.48
X156.121Y-111.1
X156.121Y-113.64
X156.121Y-116.18
X156.121Y-118.72
X156.121Y-121.26
X156.121Y-123.8
X156.121Y-126.34
X156.121Y-128.88
X156.121Y-131.42
T2
X113.977Y-86.986G85X116.477Y-86.986
G05
X113.977Y-92.986G85X116.477Y-92.986
G05
T3
X146.255Y-96.506G85X146.255Y-96.506
G05
X151.255Y-94.706G85X151.255Y-94.706
G05
X151.255Y-104.106G85X151.255Y-104.106
G05
T0
M30
