G04 #@! TF.FileFunction,Copper,L1,Top,Signal*
%FSLAX46Y46*%
G04 Gerber Fmt 4.6, Leading zero omitted, Abs format (unit mm)*
G04 Created by KiCad (PCBNEW 4.0.1-stable) date 2016/01/11 12:11:08*
%MOMM*%
G01*
G04 APERTURE LIST*
%ADD10C,0.100000*%
%ADD11R,4.500000X2.000000*%
%ADD12C,2.000000*%
%ADD13O,2.000000X2.000000*%
%ADD14C,1.524000*%
%ADD15R,2.500000X2.500000*%
%ADD16R,2.032000X1.727200*%
%ADD17O,2.032000X1.727200*%
%ADD18R,1.727200X2.032000*%
%ADD19O,1.727200X2.032000*%
%ADD20C,1.000000*%
%ADD21C,1.000000*%
%ADD22C,0.500000*%
G04 APERTURE END LIST*
D10*
D11*
X115394740Y-134179320D03*
X115394740Y-128179320D03*
D12*
X143319500Y-92329000D03*
D13*
X143319500Y-89789000D03*
X145859500Y-92329000D03*
X145859500Y-89789000D03*
D14*
X98933000Y-118478300D03*
X104013000Y-118478300D03*
X110477300Y-118478300D03*
X115557300Y-118478300D03*
X121805700Y-118491000D03*
X126885700Y-118491000D03*
X107480100Y-92494100D03*
X112560100Y-92494100D03*
X156121100Y-117703600D03*
X156121100Y-102463600D03*
X140881100Y-89763600D03*
X140881100Y-92303600D03*
X140881100Y-94843600D03*
X140881100Y-97383600D03*
X140881100Y-99923600D03*
X140881100Y-102463600D03*
X140881100Y-125323600D03*
X140881100Y-122783600D03*
X140881100Y-120243600D03*
X140881100Y-117703600D03*
X140881100Y-110083600D03*
X140881100Y-107543600D03*
X140881100Y-105003600D03*
X156121100Y-105003600D03*
X156121100Y-107543600D03*
X156121100Y-110083600D03*
X156121100Y-112623600D03*
X156121100Y-115163600D03*
X156121100Y-120243600D03*
X156121100Y-122783600D03*
X156121100Y-125323600D03*
D15*
X151064600Y-124550600D03*
X146064600Y-126350600D03*
X146064600Y-116950600D03*
D16*
X112928400Y-87198200D03*
D17*
X112928400Y-84658200D03*
X112928400Y-82118200D03*
D18*
X108770420Y-105521760D03*
D19*
X111310420Y-105521760D03*
X113850420Y-105521760D03*
D16*
X119316500Y-87198200D03*
D17*
X119316500Y-84658200D03*
X119316500Y-82118200D03*
D16*
X116116100Y-87185500D03*
D17*
X116116100Y-84645500D03*
X116116100Y-82105500D03*
D20*
X115824000Y-123418600D03*
X146021100Y-114183600D03*
X111252000Y-110515400D03*
X142221100Y-86533600D03*
X149047200Y-92367100D03*
X122529600Y-82143600D03*
X122491500Y-84721700D03*
X148559520Y-89839800D03*
X154089100Y-105003600D03*
X117221000Y-121475500D03*
X129476500Y-115900200D03*
X117221100Y-92483600D03*
D21*
X143319500Y-92329000D02*
X143319500Y-95428202D01*
X143319500Y-95428202D02*
X143194100Y-95553602D01*
X148521100Y-100880602D02*
X143194100Y-95553602D01*
X148521100Y-115583600D02*
X148521100Y-100880602D01*
X147154100Y-116950600D02*
X148521100Y-115583600D01*
X147154100Y-116950600D02*
X146064600Y-116950600D01*
D22*
X143294100Y-92303600D02*
X143319500Y-92329000D01*
X146001100Y-117014100D02*
X146001100Y-117045100D01*
X98945700Y-118478300D02*
X98933000Y-118478300D01*
D21*
X115824000Y-123418600D02*
X118814100Y-126458700D01*
X118814100Y-126458700D02*
X118814100Y-126827000D01*
X118814100Y-130109960D02*
X115394740Y-134179320D01*
X118814100Y-126827000D02*
X118814100Y-130109960D01*
X146064600Y-114227100D02*
X146064600Y-116950600D01*
X146021100Y-114183600D02*
X146064600Y-114227100D01*
X106273600Y-116154200D02*
X106273600Y-120239280D01*
X106273600Y-120239280D02*
X114721640Y-128687320D01*
X106273600Y-115493800D02*
X106273600Y-116154200D01*
X111252000Y-110515400D02*
X106273600Y-115493800D01*
X142221100Y-86533600D02*
X143319500Y-87632000D01*
X143319500Y-87632000D02*
X143319500Y-89789000D01*
D22*
X143294100Y-89763600D02*
X143319500Y-89789000D01*
D21*
X140881100Y-89763600D02*
X143294100Y-89763600D01*
D22*
X143294100Y-89763600D02*
X143319500Y-89789000D01*
X148521100Y-122533600D02*
X145711100Y-122533600D01*
X145711100Y-122533600D02*
X140881100Y-117703600D01*
X150538100Y-124550600D02*
X148521100Y-122533600D01*
D21*
X151064600Y-124550600D02*
X150538100Y-124550600D01*
D22*
X152121100Y-127683600D02*
X147397600Y-127683600D01*
X153671100Y-126133600D02*
X152121100Y-127683600D01*
X153671100Y-123233600D02*
X153671100Y-126133600D01*
X147397600Y-127683600D02*
X146064600Y-126350600D01*
X151971100Y-121533600D02*
X153671100Y-123233600D01*
X146621100Y-121533600D02*
X151971100Y-121533600D01*
X142921100Y-117833600D02*
X146621100Y-121533600D01*
X142921100Y-114533600D02*
X142921100Y-117833600D01*
X145371100Y-112083600D02*
X142921100Y-114533600D01*
X145371100Y-101883600D02*
X145371100Y-112083600D01*
D21*
X140881100Y-92303600D02*
X143294100Y-92303600D01*
D22*
X140881100Y-97383600D02*
X140881100Y-97393600D01*
X140881100Y-97393600D02*
X145371100Y-101883600D01*
X122478800Y-87198200D02*
X127533400Y-82143600D01*
X156121100Y-84658200D02*
X156071100Y-102583600D01*
X153606500Y-82143600D02*
X156121100Y-84658200D01*
X127533400Y-82143600D02*
X153606500Y-82143600D01*
X119316500Y-87198200D02*
X122478800Y-87198200D01*
X156121100Y-107543600D02*
X153504900Y-107543600D01*
X152285700Y-97726500D02*
X154101800Y-95910400D01*
X152285700Y-106324400D02*
X152285700Y-97726500D01*
X153504900Y-107543600D02*
X152285700Y-106324400D01*
X154101800Y-95910400D02*
X154101800Y-85623400D01*
X152133300Y-83654900D02*
X154101800Y-85623400D01*
X116116100Y-88544400D02*
X116116100Y-87185500D01*
X127977900Y-83654900D02*
X152133300Y-83654900D01*
X122313700Y-89319100D02*
X127977900Y-83654900D01*
X116890800Y-89319100D02*
X122313700Y-89319100D01*
X116116100Y-88544400D02*
X116890800Y-89319100D01*
X150202900Y-108483400D02*
X151803100Y-110083600D01*
X151803100Y-110083600D02*
X156121100Y-110083600D01*
X112928400Y-88430100D02*
X115608100Y-91109800D01*
X115608100Y-91109800D02*
X123012200Y-91109800D01*
X123012200Y-91109800D02*
X129199400Y-84922600D01*
X129199400Y-84922600D02*
X150899100Y-84922600D01*
X112928400Y-87198200D02*
X112928400Y-88430100D01*
X150899100Y-84922600D02*
X152666700Y-86690200D01*
X152666700Y-93929200D02*
X152666700Y-86690200D01*
X150202900Y-96393000D02*
X152666700Y-93929200D01*
X150202900Y-108432600D02*
X150202900Y-96393000D01*
X150202900Y-108432600D02*
X150202900Y-108483400D01*
D21*
X112928400Y-82118200D02*
X119316500Y-82118200D01*
X149009100Y-92329000D02*
X145859500Y-92329000D01*
X149047200Y-92367100D02*
X149009100Y-92329000D01*
X122504200Y-82118200D02*
X122529600Y-82143600D01*
X119316500Y-82118200D02*
X122504200Y-82118200D01*
X145859500Y-89789000D02*
X148508720Y-89789000D01*
X122428000Y-84658200D02*
X119316500Y-84658200D01*
X122428000Y-84658200D02*
X122491500Y-84721700D01*
X148508720Y-89789000D02*
X148559520Y-89839800D01*
X112928400Y-84658200D02*
X119316500Y-84658200D01*
D22*
X156121100Y-105003600D02*
X154089100Y-105003600D01*
X117221000Y-121475500D02*
X118579900Y-122834400D01*
X118579900Y-122834400D02*
X119913400Y-122834400D01*
X127304800Y-122834400D02*
X119913400Y-122834400D01*
X135039100Y-115100100D02*
X127304800Y-122834400D01*
X140931900Y-115100100D02*
X135039100Y-115100100D01*
X144246600Y-111785400D02*
X140931900Y-115100100D01*
X144246600Y-107873800D02*
X144246600Y-111785400D01*
X144246600Y-107873800D02*
X141376400Y-105003600D01*
X140881100Y-105003600D02*
X141376400Y-105003600D01*
X142722600Y-108661200D02*
X141605000Y-107543600D01*
X142722600Y-108661200D02*
X142722600Y-111099600D01*
X142722600Y-111099600D02*
X140157200Y-113665000D01*
X140157200Y-113665000D02*
X131711700Y-113665000D01*
X129476500Y-115900200D02*
X131711700Y-113665000D01*
X140881100Y-107543600D02*
X141605000Y-107543600D01*
X125463300Y-109613700D02*
X125463300Y-100725800D01*
X140881100Y-110083600D02*
X138531600Y-112433100D01*
X128282700Y-112433100D02*
X138531600Y-112433100D01*
X125463300Y-109613700D02*
X128282700Y-112433100D01*
X125463300Y-100725800D02*
X117221100Y-92483600D01*
M02*
