G04 #@! TF.FileFunction,Copper,L2,Bot,Signal*
%FSLAX46Y46*%
G04 Gerber Fmt 4.6, Leading zero omitted, Abs format (unit mm)*
G04 Created by KiCad (PCBNEW 4.0.1-stable) date 2016/05/06 11:29:42*
%MOMM*%
G01*
G04 APERTURE LIST*
%ADD10C,0.100000*%
%ADD11R,2.032000X1.727200*%
%ADD12O,2.032000X1.727200*%
%ADD13C,2.000000*%
%ADD14O,2.000000X2.000000*%
%ADD15C,1.524000*%
%ADD16R,4.500000X2.000000*%
%ADD17R,2.500000X2.500000*%
%ADD18R,1.727200X2.032000*%
%ADD19O,1.727200X2.032000*%
%ADD20C,1.000000*%
%ADD21C,1.000000*%
%ADD22C,0.500000*%
G04 APERTURE END LIST*
D10*
D11*
X113957100Y-133451600D03*
D12*
X113957100Y-135991600D03*
X113957100Y-138531600D03*
D13*
X153327100Y-128879600D03*
D14*
X153327100Y-131419600D03*
X150787100Y-128879600D03*
X150787100Y-131419600D03*
D15*
X140881100Y-103479600D03*
X140881100Y-118719600D03*
X156121100Y-131419600D03*
X156121100Y-128879600D03*
X156121100Y-126339600D03*
X156121100Y-123799600D03*
X156121100Y-121259600D03*
X156121100Y-118719600D03*
X156121100Y-95859600D03*
X156121100Y-98399600D03*
X156121100Y-100939600D03*
X156121100Y-103479600D03*
X156121100Y-111099600D03*
X156121100Y-113639600D03*
X156121100Y-116179600D03*
X140881100Y-116179600D03*
X140881100Y-113639600D03*
X140881100Y-111099600D03*
X140881100Y-108559600D03*
X140881100Y-106019600D03*
X140881100Y-100939600D03*
X140881100Y-98399600D03*
X140881100Y-95859600D03*
D16*
X115227100Y-92985600D03*
X115227100Y-86985600D03*
D15*
X98971100Y-102717600D03*
X104051100Y-102717600D03*
X110401100Y-102717600D03*
X115481100Y-102717600D03*
X123101100Y-102717600D03*
X128181100Y-102717600D03*
X108623100Y-127863600D03*
X113703100Y-127863600D03*
D17*
X146255100Y-96505600D03*
X151255100Y-94705600D03*
X151255100Y-104105600D03*
D11*
X117005100Y-133451600D03*
D12*
X117005100Y-135991600D03*
X117005100Y-138531600D03*
D18*
X108877100Y-115925600D03*
D19*
X111417100Y-115925600D03*
X113957100Y-115925600D03*
D11*
X120053100Y-133451600D03*
D12*
X120053100Y-135991600D03*
X120053100Y-138531600D03*
D20*
X111417100Y-111099600D03*
X154343100Y-136499600D03*
X120053100Y-130657600D03*
X118529100Y-122783600D03*
X124879100Y-122529600D03*
X142913100Y-123037600D03*
X107861100Y-133451600D03*
X150787100Y-138531600D03*
X107099100Y-103225600D03*
X149263100Y-108305600D03*
X117513100Y-106781600D03*
X137071100Y-106019600D03*
X107607100Y-122529600D03*
D21*
X111417100Y-111099600D02*
X111417100Y-115925600D01*
X108877100Y-118719600D02*
X108877100Y-115925600D01*
X109639100Y-119481600D02*
X108877100Y-118719600D01*
X121069100Y-119481600D02*
X109639100Y-119481600D01*
X122593100Y-121005600D02*
X121069100Y-119481600D01*
X122593100Y-133959600D02*
X122593100Y-121005600D01*
X124879100Y-136245600D02*
X122593100Y-133959600D01*
X154089100Y-136245600D02*
X124879100Y-136245600D01*
X154343100Y-136499600D02*
X154089100Y-136245600D01*
X120053100Y-124307600D02*
X120053100Y-130657600D01*
X118529100Y-122783600D02*
X120053100Y-124307600D01*
X125133100Y-122783600D02*
X124879100Y-122529600D01*
X125133100Y-133197600D02*
X125133100Y-122783600D01*
X126403100Y-134467600D02*
X125133100Y-133197600D01*
X139865100Y-134467600D02*
X126403100Y-134467600D01*
X141135100Y-133197600D02*
X139865100Y-134467600D01*
X141135100Y-124815600D02*
X141135100Y-133197600D01*
X142913100Y-123037600D02*
X141135100Y-124815600D01*
X109893100Y-133451600D02*
X107861100Y-133451600D01*
X112433100Y-135991600D02*
X109893100Y-133451600D01*
X121069100Y-135991600D02*
X112433100Y-135991600D01*
X122085100Y-137007600D02*
X121069100Y-135991600D01*
X122085100Y-137515600D02*
X122085100Y-137007600D01*
X123101100Y-138531600D02*
X122085100Y-137515600D01*
X150787100Y-138531600D02*
X123101100Y-138531600D01*
X107099100Y-103225600D02*
X106591100Y-102717600D01*
X106591100Y-102717600D02*
X104051100Y-102717600D01*
X123101100Y-102717600D02*
X123101100Y-96621600D01*
X144691100Y-108305600D02*
X149263100Y-108305600D01*
X143421100Y-107035600D02*
X144691100Y-108305600D01*
X143421100Y-94335600D02*
X143421100Y-107035600D01*
X142405100Y-93319600D02*
X143421100Y-94335600D01*
X126403100Y-93319600D02*
X142405100Y-93319600D01*
X123101100Y-96621600D02*
X126403100Y-93319600D01*
X110401100Y-102717600D02*
X110401100Y-100431600D01*
X123101100Y-99923600D02*
X123101100Y-102717600D01*
X122085100Y-98907600D02*
X123101100Y-99923600D01*
X111925100Y-98907600D02*
X122085100Y-98907600D01*
X110401100Y-100431600D02*
X111925100Y-98907600D01*
X98971100Y-102717600D02*
X98971100Y-100431600D01*
X110401100Y-100939600D02*
X110401100Y-102717600D01*
X108369100Y-98907600D02*
X110401100Y-100939600D01*
X100495100Y-98907600D02*
X108369100Y-98907600D01*
X98971100Y-100431600D02*
X100495100Y-98907600D01*
X108623100Y-127863600D02*
X105575100Y-127863600D01*
X105575100Y-127863600D02*
X105067100Y-127355600D01*
X105067100Y-127355600D02*
X105067100Y-110591600D01*
X105067100Y-110591600D02*
X110401100Y-105257600D01*
X110401100Y-105257600D02*
X110401100Y-102717600D01*
D22*
X110401100Y-102717600D02*
X110807500Y-102717600D01*
X110401100Y-102717600D02*
X110401100Y-102362000D01*
X110401100Y-102717600D02*
X110299500Y-102717600D01*
D21*
X115481100Y-104749600D02*
X115481100Y-102717600D01*
X117513100Y-106781600D02*
X115481100Y-104749600D01*
X128181100Y-102717600D02*
X133769100Y-102717600D01*
X133769100Y-102717600D02*
X137071100Y-106019600D01*
X110909100Y-125069600D02*
X113703100Y-127863600D01*
X110147100Y-125069600D02*
X110909100Y-125069600D01*
X107607100Y-122529600D02*
X110147100Y-125069600D01*
M02*
