G04 #@! TF.FileFunction,Profile,NP*
%FSLAX46Y46*%
G04 Gerber Fmt 4.6, Leading zero omitted, Abs format (unit mm)*
G04 Created by KiCad (PCBNEW 4.0.1-stable) date 2016/05/06 11:29:42*
%MOMM*%
G01*
G04 APERTURE LIST*
%ADD10C,0.100000*%
G04 APERTURE END LIST*
D10*
X119941100Y-91409600D02*
X119941100Y-85869600D01*
X111441100Y-85369600D02*
X119441100Y-85369600D01*
X119941100Y-85869600D02*
X119441100Y-85369600D01*
X110941100Y-91439600D02*
X110941100Y-85869600D01*
X110941100Y-85869600D02*
X111441100Y-85369600D01*
X107111100Y-91939600D02*
X110441100Y-91939600D01*
X110441100Y-91939600D02*
X110941100Y-91439600D01*
X106601100Y-96539600D02*
X106601100Y-92439600D01*
X107101100Y-91939600D02*
X107111100Y-91939600D01*
X106601100Y-92439600D02*
X107101100Y-91939600D01*
X96611100Y-97029600D02*
X106111100Y-97029600D01*
X106111100Y-97029600D02*
X106601100Y-96539600D01*
X157411100Y-140159600D02*
X105521100Y-140159600D01*
X157411100Y-92409600D02*
X157411100Y-140159600D01*
X156911100Y-91909600D02*
X157411100Y-92409600D01*
X120441100Y-91909600D02*
X156911100Y-91909600D01*
X119941100Y-91409600D02*
X120441100Y-91909600D01*
X96611100Y-124919600D02*
X96611100Y-97029600D01*
X105521100Y-133829600D02*
X96611100Y-124919600D01*
X105521100Y-140159600D02*
X105521100Y-133829600D01*
X138761100Y-133479600D02*
X127851100Y-133479600D01*
X139251100Y-132989600D02*
X138761100Y-133479600D01*
X139251100Y-110589600D02*
X139251100Y-132989600D01*
X138751100Y-110089600D02*
X139251100Y-110589600D01*
X127851100Y-110089600D02*
X138751100Y-110089600D01*
X127361100Y-110579600D02*
X127851100Y-110089600D01*
X127361100Y-132989600D02*
X127361100Y-110579600D01*
X127851100Y-133479600D02*
X127361100Y-132989600D01*
X137860700Y-98186800D02*
G75*
G03X137860700Y-98186800I-1100000J0D01*
G01*
X110240700Y-136506800D02*
G75*
G03X110240700Y-136506800I-1100000J0D01*
G01*
M02*
