G04 #@! TF.FileFunction,Copper,L1,Top,Signal*
%FSLAX46Y46*%
G04 Gerber Fmt 4.6, Leading zero omitted, Abs format (unit mm)*
G04 Created by KiCad (PCBNEW (after 2015-may-01 BZR unknown)-product) date 2015/09/06 13:21:43*
%MOMM*%
G01*
G04 APERTURE LIST*
%ADD10C,0.100000*%
%ADD11C,2.000000*%
%ADD12O,2.000000X2.000000*%
%ADD13R,2.000000X4.500000*%
%ADD14R,4.500000X2.000000*%
%ADD15R,1.727200X2.032000*%
%ADD16O,1.727200X2.032000*%
%ADD17R,2.032000X1.727200*%
%ADD18O,2.032000X1.727200*%
%ADD19C,1.524000*%
%ADD20R,1.500000X2.200000*%
%ADD21R,1.600000X2.200000*%
%ADD22R,1.500000X2.500000*%
%ADD23C,1.000000*%
%ADD24C,1.500000*%
%ADD25C,0.500000*%
%ADD26C,1.000000*%
%ADD27C,0.254000*%
G04 APERTURE END LIST*
D10*
D11*
X143319500Y-92329000D03*
D12*
X143319500Y-89789000D03*
X145859500Y-92329000D03*
X145859500Y-89789000D03*
D13*
X110419740Y-131154320D03*
D14*
X115394740Y-134179320D03*
X115394740Y-128179320D03*
D15*
X108770420Y-105521760D03*
D16*
X111310420Y-105521760D03*
X113850420Y-105521760D03*
D17*
X119316500Y-87198200D03*
D18*
X119316500Y-84658200D03*
X119316500Y-82118200D03*
D17*
X116116100Y-87185500D03*
D18*
X116116100Y-84645500D03*
X116116100Y-82105500D03*
D17*
X112928400Y-87198200D03*
D18*
X112928400Y-84658200D03*
X112928400Y-82118200D03*
D19*
X98933000Y-118478300D03*
X104013000Y-118478300D03*
X110477300Y-118478300D03*
X115557300Y-118478300D03*
X121805700Y-118491000D03*
X126885700Y-118491000D03*
X107480100Y-92494100D03*
X112560100Y-92494100D03*
X156121100Y-117703600D03*
X156121100Y-102463600D03*
X140881100Y-89763600D03*
X140881100Y-92303600D03*
X140881100Y-94843600D03*
X140881100Y-97383600D03*
X140881100Y-99923600D03*
X140881100Y-102463600D03*
X140881100Y-125323600D03*
X140881100Y-122783600D03*
X140881100Y-120243600D03*
X140881100Y-117703600D03*
X140881100Y-110083600D03*
X140881100Y-107543600D03*
X140881100Y-105003600D03*
X156121100Y-102463600D03*
X156121100Y-105003600D03*
X156121100Y-107543600D03*
X156121100Y-110083600D03*
X156121100Y-112623600D03*
X156121100Y-115163600D03*
X156121100Y-120243600D03*
X156121100Y-122783600D03*
X156121100Y-125323600D03*
D20*
X151064600Y-124550600D03*
D21*
X146064600Y-126350600D03*
D22*
X146064600Y-116950600D03*
D23*
X115824000Y-123418600D03*
X143941800Y-115252500D03*
X111252000Y-110515400D03*
D24*
X143294100Y-87096600D03*
X122529600Y-82143600D03*
X149047200Y-92367100D03*
X148559520Y-89839800D03*
X122491500Y-84721700D03*
D23*
X154089100Y-105003600D03*
X117221000Y-121475500D03*
X129476500Y-115900200D03*
D25*
X103987600Y-114223800D02*
X104013000Y-114249200D01*
X110477300Y-118478300D02*
X110439200Y-118478300D01*
X110477300Y-118478300D02*
X110515400Y-118478300D01*
D26*
X119164100Y-127127000D02*
X119164100Y-130409960D01*
X119164100Y-130409960D02*
X115394740Y-134179320D01*
D25*
X121805700Y-118491000D02*
X121767600Y-118491000D01*
X98945700Y-118478300D02*
X98933000Y-118478300D01*
D26*
X143319500Y-92329000D02*
X143319500Y-99364800D01*
X143319500Y-99364800D02*
X146001100Y-102046400D01*
X146001100Y-102046400D02*
X146001100Y-117014100D01*
D25*
X146001100Y-117014100D02*
X146001100Y-117045100D01*
X121805700Y-118071900D02*
X121805700Y-118491000D01*
X143294100Y-92303600D02*
X143319500Y-92329000D01*
D26*
X119164100Y-126758700D02*
X119164100Y-127127000D01*
X115824000Y-123418600D02*
X119164100Y-126758700D01*
X145703400Y-117014100D02*
X143941800Y-115252500D01*
X146001100Y-117014100D02*
X145703400Y-117014100D01*
X111252000Y-110515400D02*
X106273600Y-115493800D01*
X106273600Y-115493800D02*
X106273600Y-116154200D01*
X106273600Y-120239280D02*
X114721640Y-128687320D01*
X106273600Y-116154200D02*
X106273600Y-120239280D01*
X143294100Y-89763600D02*
X143294100Y-87096600D01*
D25*
X143294100Y-89763600D02*
X143319500Y-89789000D01*
D26*
X140881100Y-89763600D02*
X143294100Y-89763600D01*
D25*
X143294100Y-89763600D02*
X143319500Y-89789000D01*
X149385100Y-122871100D02*
X151064600Y-124550600D01*
X142100300Y-117703600D02*
X147267800Y-122871100D01*
X147267800Y-122871100D02*
X149286600Y-122871100D01*
X140881100Y-117703600D02*
X142100300Y-117703600D01*
X149286600Y-122871100D02*
X149385100Y-122871100D01*
X140881100Y-122783600D02*
X141770600Y-122783600D01*
X141770600Y-122783600D02*
X145999200Y-126705360D01*
D26*
X140881100Y-92303600D02*
X143294100Y-92303600D01*
D25*
X119316500Y-87198200D02*
X122478800Y-87198200D01*
X127533400Y-82143600D02*
X153606500Y-82143600D01*
X153606500Y-82143600D02*
X156121100Y-84658200D01*
X156121100Y-84658200D02*
X156121100Y-102463600D01*
X122478800Y-87198200D02*
X127533400Y-82143600D01*
X116116100Y-88544400D02*
X116890800Y-89319100D01*
X116890800Y-89319100D02*
X122313700Y-89319100D01*
X122313700Y-89319100D02*
X127977900Y-83654900D01*
X127977900Y-83654900D02*
X152133300Y-83654900D01*
X116116100Y-88544400D02*
X116116100Y-87185500D01*
X152133300Y-83654900D02*
X154101800Y-85623400D01*
X154101800Y-95910400D02*
X154101800Y-85623400D01*
X153504900Y-107543600D02*
X152285700Y-106324400D01*
X152285700Y-106324400D02*
X152285700Y-97726500D01*
X152285700Y-97726500D02*
X154101800Y-95910400D01*
X156121100Y-107543600D02*
X153504900Y-107543600D01*
X150202900Y-108432600D02*
X150202900Y-108483400D01*
X150202900Y-108432600D02*
X150202900Y-96393000D01*
X150202900Y-96393000D02*
X152666700Y-93929200D01*
X152666700Y-93929200D02*
X152666700Y-86690200D01*
X151549100Y-85572600D02*
X152666700Y-86690200D01*
X112928400Y-87198200D02*
X112928400Y-88430100D01*
X128549400Y-85572600D02*
X151549100Y-85572600D01*
X123012200Y-91109800D02*
X128549400Y-85572600D01*
X115608100Y-91109800D02*
X123012200Y-91109800D01*
X112928400Y-88430100D02*
X115608100Y-91109800D01*
X151803100Y-110083600D02*
X156121100Y-110083600D01*
X150202900Y-108483400D02*
X151803100Y-110083600D01*
D26*
X119316500Y-82118200D02*
X122504200Y-82118200D01*
X122504200Y-82118200D02*
X122529600Y-82143600D01*
X149047200Y-92367100D02*
X149009100Y-92329000D01*
X149009100Y-92329000D02*
X145859500Y-92329000D01*
X112928400Y-82118200D02*
X119316500Y-82118200D01*
X112928400Y-84658200D02*
X119316500Y-84658200D01*
X148508720Y-89789000D02*
X148559520Y-89839800D01*
X122428000Y-84658200D02*
X122491500Y-84721700D01*
X122428000Y-84658200D02*
X119316500Y-84658200D01*
X145859500Y-89789000D02*
X148508720Y-89789000D01*
D25*
X156121100Y-105003600D02*
X154089100Y-105003600D01*
X140881100Y-105003600D02*
X141376400Y-105003600D01*
X144246600Y-107873800D02*
X141376400Y-105003600D01*
X144246600Y-107873800D02*
X144246600Y-111785400D01*
X144246600Y-111785400D02*
X140931900Y-115100100D01*
X140931900Y-115100100D02*
X135039100Y-115100100D01*
X135039100Y-115100100D02*
X127304800Y-122834400D01*
X127304800Y-122834400D02*
X119913400Y-122834400D01*
X118579900Y-122834400D02*
X119913400Y-122834400D01*
X117221000Y-121475500D02*
X118579900Y-122834400D01*
X140881100Y-107543600D02*
X141605000Y-107543600D01*
X129476500Y-115900200D02*
X131711700Y-113665000D01*
X140157200Y-113665000D02*
X131711700Y-113665000D01*
X142722600Y-111099600D02*
X140157200Y-113665000D01*
X142722600Y-108661200D02*
X142722600Y-111099600D01*
X142722600Y-108661200D02*
X141605000Y-107543600D01*
X112560100Y-92494100D02*
X116992400Y-92494100D01*
X138531600Y-112433100D02*
X140881100Y-110083600D01*
X128282700Y-112433100D02*
X138531600Y-112433100D01*
X125463300Y-109613700D02*
X128282700Y-112433100D01*
X125463300Y-100965000D02*
X125463300Y-109613700D01*
X116992400Y-92494100D02*
X125463300Y-100965000D01*
D27*
G36*
X156715700Y-128342664D02*
X156616964Y-128441400D01*
X152462040Y-128441400D01*
X152462040Y-125650600D01*
X152462040Y-123450600D01*
X152415063Y-123208477D01*
X152275273Y-122995673D01*
X152064240Y-122853223D01*
X151814600Y-122803160D01*
X150568739Y-122803160D01*
X150109200Y-122343620D01*
X150109200Y-118483700D01*
X149992355Y-117896281D01*
X149659609Y-117398291D01*
X149161619Y-117065545D01*
X148574200Y-116948700D01*
X147986781Y-117065545D01*
X147488791Y-117398291D01*
X147449600Y-117456944D01*
X147449600Y-117236350D01*
X147449600Y-116664850D01*
X147449600Y-115574291D01*
X147352927Y-115340902D01*
X147174299Y-115162273D01*
X146940910Y-115065600D01*
X146688291Y-115065600D01*
X146350350Y-115065600D01*
X146191600Y-115224350D01*
X146191600Y-116823600D01*
X147290850Y-116823600D01*
X147449600Y-116664850D01*
X147449600Y-117236350D01*
X147290850Y-117077600D01*
X146191600Y-117077600D01*
X146191600Y-118676850D01*
X146350350Y-118835600D01*
X146688291Y-118835600D01*
X146940910Y-118835600D01*
X147096387Y-118771199D01*
X147156045Y-119071119D01*
X147488791Y-119569109D01*
X147986781Y-119901855D01*
X148574200Y-120018700D01*
X149161619Y-119901855D01*
X149659609Y-119569109D01*
X149992355Y-119071119D01*
X150109200Y-118483700D01*
X150109200Y-122343620D01*
X150010890Y-122245310D01*
X149723775Y-122053467D01*
X149667584Y-122042289D01*
X149385100Y-121986099D01*
X149385094Y-121986100D01*
X149286600Y-121986100D01*
X147634379Y-121986100D01*
X145937600Y-120289320D01*
X145937600Y-118676850D01*
X145937600Y-117077600D01*
X145937600Y-116823600D01*
X145937600Y-115224350D01*
X145778850Y-115065600D01*
X145440909Y-115065600D01*
X145188290Y-115065600D01*
X144954901Y-115162273D01*
X144776273Y-115340902D01*
X144679600Y-115574291D01*
X144679600Y-116664850D01*
X144838350Y-116823600D01*
X145937600Y-116823600D01*
X145937600Y-117077600D01*
X144838350Y-117077600D01*
X144679600Y-117236350D01*
X144679600Y-118326909D01*
X144776273Y-118560298D01*
X144954901Y-118738927D01*
X145188290Y-118835600D01*
X145440909Y-118835600D01*
X145778850Y-118835600D01*
X145937600Y-118676850D01*
X145937600Y-120289320D01*
X142726090Y-117077810D01*
X142438975Y-116885967D01*
X142382784Y-116874789D01*
X142100300Y-116818599D01*
X142100294Y-116818600D01*
X141971578Y-116818600D01*
X141673470Y-116519971D01*
X141160200Y-116306843D01*
X140604439Y-116306358D01*
X140090797Y-116518590D01*
X139697471Y-116911230D01*
X139484343Y-117424500D01*
X139483858Y-117980261D01*
X139696090Y-118493903D01*
X140088730Y-118887229D01*
X140296612Y-118973549D01*
X140090797Y-119058590D01*
X139697471Y-119451230D01*
X139484343Y-119964500D01*
X139483858Y-120520261D01*
X139696090Y-121033903D01*
X140088730Y-121427229D01*
X140296612Y-121513549D01*
X140090797Y-121598590D01*
X139697471Y-121991230D01*
X139484343Y-122504500D01*
X139483858Y-123060261D01*
X139696090Y-123573903D01*
X140088730Y-123967229D01*
X140296612Y-124053549D01*
X140090797Y-124138590D01*
X139697471Y-124531230D01*
X139484343Y-125044500D01*
X139483858Y-125600261D01*
X139696090Y-126113903D01*
X140088730Y-126507229D01*
X140602000Y-126720357D01*
X141157761Y-126720842D01*
X141671403Y-126508610D01*
X142064729Y-126115970D01*
X142277857Y-125602700D01*
X142278342Y-125046939D01*
X142066110Y-124533297D01*
X141673470Y-124139971D01*
X141465587Y-124053650D01*
X141671403Y-123968610D01*
X141707745Y-123932330D01*
X144617160Y-126630628D01*
X144617160Y-127450600D01*
X144664137Y-127692723D01*
X144803927Y-127905527D01*
X145014960Y-128047977D01*
X145264600Y-128098040D01*
X146864600Y-128098040D01*
X147106723Y-128051063D01*
X147319527Y-127911273D01*
X147461977Y-127700240D01*
X147512040Y-127450600D01*
X147512040Y-126584643D01*
X147986781Y-126901855D01*
X148574200Y-127018700D01*
X149161619Y-126901855D01*
X149659609Y-126569109D01*
X149933482Y-126159227D01*
X150064960Y-126247977D01*
X150314600Y-126298040D01*
X151814600Y-126298040D01*
X152056723Y-126251063D01*
X152269527Y-126111273D01*
X152411977Y-125900240D01*
X152462040Y-125650600D01*
X152462040Y-128441400D01*
X138545700Y-128441400D01*
X138545700Y-122996400D01*
X138409825Y-122313310D01*
X138022886Y-121734214D01*
X137443790Y-121347275D01*
X136760700Y-121211400D01*
X136077610Y-121347275D01*
X135498514Y-121734214D01*
X135111575Y-122313310D01*
X134975700Y-122996400D01*
X135111575Y-123679490D01*
X135498514Y-124258586D01*
X136077610Y-124645525D01*
X136760700Y-124781400D01*
X137443790Y-124645525D01*
X138022886Y-124258586D01*
X138409825Y-123679490D01*
X138545700Y-122996400D01*
X138545700Y-128441400D01*
X120410700Y-128441400D01*
X120148562Y-128493543D01*
X119926332Y-128642032D01*
X119426332Y-129142032D01*
X119277843Y-129364262D01*
X119225700Y-129626400D01*
X119225700Y-134912664D01*
X119126964Y-135011400D01*
X118292180Y-135011400D01*
X118292180Y-129179320D01*
X118292180Y-127179320D01*
X118245203Y-126937197D01*
X118105413Y-126724393D01*
X117894380Y-126581943D01*
X117644740Y-126531880D01*
X114171332Y-126531880D01*
X111886444Y-124246992D01*
X111886444Y-118685998D01*
X111858662Y-118130932D01*
X111699697Y-117747157D01*
X111457513Y-117677692D01*
X111277908Y-117857297D01*
X111277908Y-117498087D01*
X111208443Y-117255903D01*
X110684998Y-117069156D01*
X110129932Y-117096938D01*
X109746157Y-117255903D01*
X109676692Y-117498087D01*
X110477300Y-118298695D01*
X111277908Y-117498087D01*
X111277908Y-117857297D01*
X110656905Y-118478300D01*
X111457513Y-119278908D01*
X111699697Y-119209443D01*
X111886444Y-118685998D01*
X111886444Y-124246992D01*
X111277908Y-123638456D01*
X111277908Y-119458513D01*
X110477300Y-118657905D01*
X110297695Y-118837510D01*
X110297695Y-118478300D01*
X109497087Y-117677692D01*
X109254903Y-117747157D01*
X109068156Y-118270602D01*
X109095938Y-118825668D01*
X109254903Y-119209443D01*
X109497087Y-119278908D01*
X110297695Y-118478300D01*
X110297695Y-118837510D01*
X109676692Y-119458513D01*
X109746157Y-119700697D01*
X110269602Y-119887444D01*
X110824668Y-119859662D01*
X111208443Y-119700697D01*
X111277908Y-119458513D01*
X111277908Y-123638456D01*
X107408600Y-119769148D01*
X107408600Y-116154200D01*
X107408600Y-115963932D01*
X112054152Y-111318379D01*
X112054566Y-111317966D01*
X112213645Y-111159165D01*
X112300603Y-110949745D01*
X112386803Y-110742156D01*
X112387000Y-110515400D01*
X112387197Y-110290625D01*
X112214767Y-109873314D01*
X112054566Y-109712834D01*
X111895765Y-109553755D01*
X111478756Y-109380597D01*
X111027225Y-109380203D01*
X110609914Y-109552633D01*
X110290355Y-109871635D01*
X110290157Y-109872110D01*
X105471034Y-114691234D01*
X105224997Y-115059454D01*
X105138600Y-115493800D01*
X105138600Y-116154200D01*
X105138600Y-117628483D01*
X104898001Y-117387463D01*
X104898001Y-114249200D01*
X104830633Y-113910526D01*
X104638789Y-113623410D01*
X104613390Y-113598010D01*
X104326274Y-113406167D01*
X103987600Y-113338799D01*
X103648926Y-113406167D01*
X103361810Y-113598010D01*
X103169967Y-113885126D01*
X103102599Y-114223800D01*
X103169967Y-114562474D01*
X103361810Y-114849590D01*
X103387210Y-114874989D01*
X103674326Y-115066833D01*
X104013000Y-115134201D01*
X104351674Y-115066833D01*
X104638789Y-114874989D01*
X104830633Y-114587874D01*
X104898001Y-114249200D01*
X104898001Y-117387463D01*
X104805370Y-117294671D01*
X104292100Y-117081543D01*
X103736339Y-117081058D01*
X103222697Y-117293290D01*
X102829371Y-117685930D01*
X102616243Y-118199200D01*
X102615758Y-118754961D01*
X102827990Y-119268603D01*
X103220630Y-119661929D01*
X103733900Y-119875057D01*
X104289661Y-119875542D01*
X104803303Y-119663310D01*
X105138600Y-119328597D01*
X105138600Y-120239280D01*
X105224997Y-120673626D01*
X105471034Y-121041846D01*
X112497300Y-128068112D01*
X112497300Y-129179320D01*
X112544277Y-129421443D01*
X112684067Y-129634247D01*
X112895100Y-129776697D01*
X113144740Y-129826760D01*
X117644740Y-129826760D01*
X117886863Y-129779783D01*
X118099667Y-129639993D01*
X118242117Y-129428960D01*
X118292180Y-129179320D01*
X118292180Y-135011400D01*
X118279740Y-135011400D01*
X118279740Y-134465070D01*
X118279740Y-133893570D01*
X118279740Y-133053011D01*
X118183067Y-132819622D01*
X118004439Y-132640993D01*
X117771050Y-132544320D01*
X117518431Y-132544320D01*
X115680490Y-132544320D01*
X115521740Y-132703070D01*
X115521740Y-134052320D01*
X118120990Y-134052320D01*
X118279740Y-133893570D01*
X118279740Y-134465070D01*
X118120990Y-134306320D01*
X115521740Y-134306320D01*
X115521740Y-134326320D01*
X115267740Y-134326320D01*
X115267740Y-134306320D01*
X115267740Y-134052320D01*
X115267740Y-132703070D01*
X115108990Y-132544320D01*
X113271049Y-132544320D01*
X113018430Y-132544320D01*
X112785041Y-132640993D01*
X112606413Y-132819622D01*
X112509740Y-133053011D01*
X112509740Y-133893570D01*
X112668490Y-134052320D01*
X115267740Y-134052320D01*
X115267740Y-134306320D01*
X112668490Y-134306320D01*
X112509740Y-134465070D01*
X112509740Y-135011400D01*
X111694436Y-135011400D01*
X111595700Y-134912664D01*
X111595700Y-134017620D01*
X111661863Y-134004783D01*
X111874667Y-133864993D01*
X112017117Y-133653960D01*
X112067180Y-133404320D01*
X112067180Y-128904320D01*
X112020203Y-128662197D01*
X111880413Y-128449393D01*
X111669380Y-128306943D01*
X111419740Y-128256880D01*
X109419740Y-128256880D01*
X109177617Y-128303857D01*
X108968233Y-128441400D01*
X107384436Y-128441400D01*
X107285700Y-128342664D01*
X107285700Y-124546400D01*
X107233557Y-124284262D01*
X107085068Y-124062032D01*
X106585068Y-123562032D01*
X106362838Y-123413543D01*
X106100700Y-123361400D01*
X100342144Y-123361400D01*
X100342144Y-118685998D01*
X100314362Y-118130932D01*
X100155397Y-117747157D01*
X99913213Y-117677692D01*
X99733608Y-117857297D01*
X99733608Y-117498087D01*
X99664143Y-117255903D01*
X99140698Y-117069156D01*
X98585632Y-117096938D01*
X98201857Y-117255903D01*
X98132392Y-117498087D01*
X98933000Y-118298695D01*
X99733608Y-117498087D01*
X99733608Y-117857297D01*
X99112605Y-118478300D01*
X99913213Y-119278908D01*
X100155397Y-119209443D01*
X100342144Y-118685998D01*
X100342144Y-123361400D01*
X99733608Y-123361400D01*
X99733608Y-119458513D01*
X98933000Y-118657905D01*
X98753395Y-118837510D01*
X98753395Y-118478300D01*
X97952787Y-117677692D01*
X97710603Y-117747157D01*
X97523856Y-118270602D01*
X97551638Y-118825668D01*
X97710603Y-119209443D01*
X97952787Y-119278908D01*
X98753395Y-118478300D01*
X98753395Y-118837510D01*
X98132392Y-119458513D01*
X98201857Y-119700697D01*
X98725302Y-119887444D01*
X99280368Y-119859662D01*
X99664143Y-119700697D01*
X99733608Y-119458513D01*
X99733608Y-123361400D01*
X97384436Y-123361400D01*
X97285700Y-123262664D01*
X97285700Y-96390136D01*
X105975068Y-87700768D01*
X106123557Y-87478538D01*
X106175700Y-87216400D01*
X106175700Y-81550980D01*
X111357882Y-81550980D01*
X111245055Y-82118200D01*
X111359129Y-82691689D01*
X111683985Y-83177870D01*
X111998765Y-83388200D01*
X111683985Y-83598530D01*
X111359129Y-84084711D01*
X111245055Y-84658200D01*
X111359129Y-85231689D01*
X111683985Y-85717870D01*
X111699767Y-85728415D01*
X111670277Y-85734137D01*
X111457473Y-85873927D01*
X111315023Y-86084960D01*
X111264960Y-86334600D01*
X111264960Y-88061800D01*
X111311937Y-88303923D01*
X111451727Y-88516727D01*
X111662760Y-88659177D01*
X111912400Y-88709240D01*
X112098924Y-88709240D01*
X112099589Y-88712584D01*
X112110767Y-88768775D01*
X112302610Y-89055890D01*
X114855820Y-91609100D01*
X113650578Y-91609100D01*
X113352470Y-91310471D01*
X112839200Y-91097343D01*
X112283439Y-91096858D01*
X111769797Y-91309090D01*
X111376471Y-91701730D01*
X111163343Y-92215000D01*
X111162858Y-92770761D01*
X111375090Y-93284403D01*
X111767730Y-93677729D01*
X112281000Y-93890857D01*
X112836761Y-93891342D01*
X113350403Y-93679110D01*
X113650937Y-93379100D01*
X116625820Y-93379100D01*
X124578300Y-101331579D01*
X124578300Y-109613694D01*
X124578299Y-109613700D01*
X124634489Y-109896184D01*
X124645667Y-109952375D01*
X124837510Y-110239490D01*
X127656907Y-113058886D01*
X127656910Y-113058890D01*
X127656911Y-113058890D01*
X127944025Y-113250733D01*
X127944026Y-113250733D01*
X128000215Y-113261910D01*
X128282700Y-113318101D01*
X128282700Y-113318100D01*
X128282705Y-113318100D01*
X130807020Y-113318100D01*
X129360022Y-114765097D01*
X129251725Y-114765003D01*
X128834414Y-114937433D01*
X128514855Y-115256435D01*
X128341697Y-115673444D01*
X128341303Y-116124975D01*
X128513733Y-116542286D01*
X128832735Y-116861845D01*
X129249744Y-117035003D01*
X129701275Y-117035397D01*
X130118586Y-116862967D01*
X130438145Y-116543965D01*
X130611303Y-116126956D01*
X130611399Y-116016880D01*
X132078279Y-114550000D01*
X134337620Y-114550000D01*
X128282942Y-120604678D01*
X128282942Y-118214339D01*
X128070710Y-117700697D01*
X127678070Y-117307371D01*
X127164800Y-117094243D01*
X126609039Y-117093758D01*
X126095397Y-117305990D01*
X125702071Y-117698630D01*
X125488943Y-118211900D01*
X125488458Y-118767661D01*
X125700690Y-119281303D01*
X126093330Y-119674629D01*
X126606600Y-119887757D01*
X127162361Y-119888242D01*
X127676003Y-119676010D01*
X128069329Y-119283370D01*
X128282457Y-118770100D01*
X128282942Y-118214339D01*
X128282942Y-120604678D01*
X126938220Y-121949400D01*
X123214844Y-121949400D01*
X123214844Y-118698698D01*
X123187062Y-118143632D01*
X123028097Y-117759857D01*
X122785913Y-117690392D01*
X122606308Y-117869997D01*
X122606308Y-117510787D01*
X122536843Y-117268603D01*
X122013398Y-117081856D01*
X121458332Y-117109638D01*
X121074557Y-117268603D01*
X121005092Y-117510787D01*
X121805700Y-118311395D01*
X122606308Y-117510787D01*
X122606308Y-117869997D01*
X121985305Y-118491000D01*
X122785913Y-119291608D01*
X123028097Y-119222143D01*
X123214844Y-118698698D01*
X123214844Y-121949400D01*
X122606308Y-121949400D01*
X122606308Y-119471213D01*
X121805700Y-118670605D01*
X121626095Y-118850210D01*
X121626095Y-118491000D01*
X120825487Y-117690392D01*
X120583303Y-117759857D01*
X120396556Y-118283302D01*
X120424338Y-118838368D01*
X120583303Y-119222143D01*
X120825487Y-119291608D01*
X121626095Y-118491000D01*
X121626095Y-118850210D01*
X121005092Y-119471213D01*
X121074557Y-119713397D01*
X121598002Y-119900144D01*
X122153068Y-119872362D01*
X122536843Y-119713397D01*
X122606308Y-119471213D01*
X122606308Y-121949400D01*
X119913400Y-121949400D01*
X118946479Y-121949400D01*
X118356102Y-121359022D01*
X118356197Y-121250725D01*
X118183767Y-120833414D01*
X117864765Y-120513855D01*
X117447756Y-120340697D01*
X116996225Y-120340303D01*
X116954542Y-120357526D01*
X116954542Y-118201639D01*
X116742310Y-117687997D01*
X116349670Y-117294671D01*
X115836400Y-117081543D01*
X115349020Y-117081117D01*
X115349020Y-105706505D01*
X115349020Y-105337015D01*
X115234946Y-104763526D01*
X114910090Y-104277345D01*
X114423909Y-103952489D01*
X113850420Y-103838415D01*
X113276931Y-103952489D01*
X112790750Y-104277345D01*
X112580420Y-104592125D01*
X112370090Y-104277345D01*
X111883909Y-103952489D01*
X111310420Y-103838415D01*
X110925700Y-103914940D01*
X110925700Y-84676400D01*
X110789825Y-83993310D01*
X110402886Y-83414214D01*
X109823790Y-83027275D01*
X109140700Y-82891400D01*
X108457610Y-83027275D01*
X107878514Y-83414214D01*
X107491575Y-83993310D01*
X107355700Y-84676400D01*
X107491575Y-85359490D01*
X107878514Y-85938586D01*
X108457610Y-86325525D01*
X109140700Y-86461400D01*
X109823790Y-86325525D01*
X110402886Y-85938586D01*
X110789825Y-85359490D01*
X110925700Y-84676400D01*
X110925700Y-103914940D01*
X110736931Y-103952489D01*
X110250750Y-104277345D01*
X110240204Y-104293127D01*
X110234483Y-104263637D01*
X110094693Y-104050833D01*
X109883660Y-103908383D01*
X109634020Y-103858320D01*
X108889244Y-103858320D01*
X108889244Y-92701798D01*
X108861462Y-92146732D01*
X108702497Y-91762957D01*
X108460313Y-91693492D01*
X108280708Y-91873097D01*
X108280708Y-91513887D01*
X108211243Y-91271703D01*
X107687798Y-91084956D01*
X107132732Y-91112738D01*
X106748957Y-91271703D01*
X106679492Y-91513887D01*
X107480100Y-92314495D01*
X108280708Y-91513887D01*
X108280708Y-91873097D01*
X107659705Y-92494100D01*
X108460313Y-93294708D01*
X108702497Y-93225243D01*
X108889244Y-92701798D01*
X108889244Y-103858320D01*
X108280708Y-103858320D01*
X108280708Y-93474313D01*
X107480100Y-92673705D01*
X107300495Y-92853310D01*
X107300495Y-92494100D01*
X106499887Y-91693492D01*
X106257703Y-91762957D01*
X106070956Y-92286402D01*
X106098738Y-92841468D01*
X106257703Y-93225243D01*
X106499887Y-93294708D01*
X107300495Y-92494100D01*
X107300495Y-92853310D01*
X106679492Y-93474313D01*
X106748957Y-93716497D01*
X107272402Y-93903244D01*
X107827468Y-93875462D01*
X108211243Y-93716497D01*
X108280708Y-93474313D01*
X108280708Y-103858320D01*
X107906820Y-103858320D01*
X107664697Y-103905297D01*
X107451893Y-104045087D01*
X107309443Y-104256120D01*
X107259380Y-104505760D01*
X107259380Y-106537760D01*
X107306357Y-106779883D01*
X107446147Y-106992687D01*
X107657180Y-107135137D01*
X107906820Y-107185200D01*
X109634020Y-107185200D01*
X109876143Y-107138223D01*
X110088947Y-106998433D01*
X110231397Y-106787400D01*
X110239138Y-106748797D01*
X110250750Y-106766175D01*
X110736931Y-107091031D01*
X111310420Y-107205105D01*
X111883909Y-107091031D01*
X112370090Y-106766175D01*
X112580420Y-106451394D01*
X112790750Y-106766175D01*
X113276931Y-107091031D01*
X113850420Y-107205105D01*
X114423909Y-107091031D01*
X114910090Y-106766175D01*
X115234946Y-106279994D01*
X115349020Y-105706505D01*
X115349020Y-117081117D01*
X115280639Y-117081058D01*
X114766997Y-117293290D01*
X114373671Y-117685930D01*
X114160543Y-118199200D01*
X114160058Y-118754961D01*
X114372290Y-119268603D01*
X114764930Y-119661929D01*
X115278200Y-119875057D01*
X115833961Y-119875542D01*
X116347603Y-119663310D01*
X116740929Y-119270670D01*
X116954057Y-118757400D01*
X116954542Y-118201639D01*
X116954542Y-120357526D01*
X116578914Y-120512733D01*
X116259355Y-120831735D01*
X116086197Y-121248744D01*
X116085803Y-121700275D01*
X116258233Y-122117586D01*
X116577235Y-122437145D01*
X116994244Y-122610303D01*
X117104319Y-122610399D01*
X117954107Y-123460186D01*
X117954110Y-123460190D01*
X117954111Y-123460190D01*
X118241225Y-123652033D01*
X118241226Y-123652033D01*
X118297415Y-123663210D01*
X118579900Y-123719401D01*
X118579900Y-123719400D01*
X118579905Y-123719400D01*
X119913400Y-123719400D01*
X127304794Y-123719400D01*
X127304800Y-123719401D01*
X127304800Y-123719400D01*
X127587284Y-123663210D01*
X127643474Y-123652033D01*
X127643475Y-123652033D01*
X127930590Y-123460190D01*
X135405679Y-115985100D01*
X140931894Y-115985100D01*
X140931900Y-115985101D01*
X140931900Y-115985100D01*
X141214384Y-115928910D01*
X141270574Y-115917733D01*
X141270575Y-115917733D01*
X141557690Y-115725890D01*
X144872386Y-112411192D01*
X144872390Y-112411190D01*
X144872390Y-112411189D01*
X145064233Y-112124075D01*
X145064233Y-112124074D01*
X145075410Y-112067884D01*
X145131600Y-111785400D01*
X145131601Y-111785400D01*
X145131600Y-111785394D01*
X145131600Y-107873805D01*
X145131600Y-107873800D01*
X145131601Y-107873800D01*
X145075410Y-107591315D01*
X145064233Y-107535126D01*
X145064233Y-107535125D01*
X144872390Y-107248011D01*
X144872390Y-107248010D01*
X144872386Y-107248007D01*
X142226956Y-104602576D01*
X142066110Y-104213297D01*
X141673470Y-103819971D01*
X141465587Y-103733650D01*
X141671403Y-103648610D01*
X142064729Y-103255970D01*
X142277857Y-102742700D01*
X142278342Y-102186939D01*
X142066110Y-101673297D01*
X141673470Y-101279971D01*
X141465587Y-101193650D01*
X141671403Y-101108610D01*
X142064729Y-100715970D01*
X142277857Y-100202700D01*
X142278342Y-99646939D01*
X142066110Y-99133297D01*
X141673470Y-98739971D01*
X141465587Y-98653650D01*
X141671403Y-98568610D01*
X142064729Y-98175970D01*
X142277857Y-97662700D01*
X142278342Y-97106939D01*
X142066110Y-96593297D01*
X141673470Y-96199971D01*
X141465587Y-96113650D01*
X141671403Y-96028610D01*
X142064729Y-95635970D01*
X142277857Y-95122700D01*
X142278342Y-94566939D01*
X142066110Y-94053297D01*
X141673470Y-93659971D01*
X141465587Y-93573650D01*
X141671403Y-93488610D01*
X141721500Y-93438600D01*
X142389505Y-93438600D01*
X142346573Y-93481532D01*
X142445236Y-93748387D01*
X143054961Y-93974908D01*
X143704960Y-93950856D01*
X144193764Y-93748387D01*
X144292427Y-93481532D01*
X143989000Y-93178105D01*
X144096666Y-93106166D01*
X144168605Y-92998500D01*
X144472032Y-93301927D01*
X144542229Y-93275973D01*
X144703380Y-93517152D01*
X145233813Y-93871575D01*
X145859500Y-93996032D01*
X146485187Y-93871575D01*
X147015620Y-93517152D01*
X147051134Y-93464000D01*
X148185208Y-93464000D01*
X148261636Y-93540561D01*
X148770498Y-93751859D01*
X149321485Y-93752340D01*
X149830715Y-93541931D01*
X150220661Y-93152664D01*
X150431959Y-92643802D01*
X150432440Y-92092815D01*
X150222031Y-91583585D01*
X149832764Y-91193639D01*
X149360258Y-90997437D01*
X149732981Y-90625364D01*
X149944279Y-90116502D01*
X149944760Y-89565515D01*
X149734351Y-89056285D01*
X149345084Y-88666339D01*
X148836222Y-88455041D01*
X148285235Y-88454560D01*
X147802552Y-88654000D01*
X147051134Y-88654000D01*
X147015620Y-88600848D01*
X146485187Y-88246425D01*
X145859500Y-88121968D01*
X145233813Y-88246425D01*
X144703380Y-88600848D01*
X144589500Y-88771281D01*
X144475620Y-88600848D01*
X144429100Y-88569764D01*
X144429100Y-87920558D01*
X144467561Y-87882164D01*
X144678859Y-87373302D01*
X144679340Y-86822315D01*
X144528643Y-86457600D01*
X151182520Y-86457600D01*
X151781700Y-87056779D01*
X151781700Y-93562620D01*
X149577110Y-95767210D01*
X149385267Y-96054325D01*
X149374089Y-96110515D01*
X149317899Y-96393000D01*
X149317900Y-96393005D01*
X149317900Y-108432600D01*
X149317900Y-108483394D01*
X149317899Y-108483400D01*
X149374089Y-108765884D01*
X149385267Y-108822075D01*
X149577110Y-109109190D01*
X151177307Y-110709386D01*
X151177310Y-110709390D01*
X151177311Y-110709390D01*
X151369154Y-110837575D01*
X151464425Y-110901233D01*
X151464426Y-110901234D01*
X151803100Y-110968601D01*
X151803100Y-110968600D01*
X151803105Y-110968600D01*
X155030621Y-110968600D01*
X155328730Y-111267229D01*
X155536612Y-111353549D01*
X155330797Y-111438590D01*
X154937471Y-111831230D01*
X154724343Y-112344500D01*
X154723858Y-112900261D01*
X154936090Y-113413903D01*
X155328730Y-113807229D01*
X155536612Y-113893549D01*
X155330797Y-113978590D01*
X154937471Y-114371230D01*
X154724343Y-114884500D01*
X154723858Y-115440261D01*
X154936090Y-115953903D01*
X155328730Y-116347229D01*
X155536612Y-116433549D01*
X155330797Y-116518590D01*
X154937471Y-116911230D01*
X154724343Y-117424500D01*
X154723858Y-117980261D01*
X154936090Y-118493903D01*
X155328730Y-118887229D01*
X155536612Y-118973549D01*
X155330797Y-119058590D01*
X154937471Y-119451230D01*
X154724343Y-119964500D01*
X154723858Y-120520261D01*
X154936090Y-121033903D01*
X155328730Y-121427229D01*
X155536612Y-121513549D01*
X155330797Y-121598590D01*
X154937471Y-121991230D01*
X154724343Y-122504500D01*
X154723858Y-123060261D01*
X154936090Y-123573903D01*
X155328730Y-123967229D01*
X155536612Y-124053549D01*
X155330797Y-124138590D01*
X154937471Y-124531230D01*
X154724343Y-125044500D01*
X154723858Y-125600261D01*
X154936090Y-126113903D01*
X155328730Y-126507229D01*
X155842000Y-126720357D01*
X156397761Y-126720842D01*
X156715700Y-126589472D01*
X156715700Y-128342664D01*
X156715700Y-128342664D01*
G37*
X156715700Y-128342664D02*
X156616964Y-128441400D01*
X152462040Y-128441400D01*
X152462040Y-125650600D01*
X152462040Y-123450600D01*
X152415063Y-123208477D01*
X152275273Y-122995673D01*
X152064240Y-122853223D01*
X151814600Y-122803160D01*
X150568739Y-122803160D01*
X150109200Y-122343620D01*
X150109200Y-118483700D01*
X149992355Y-117896281D01*
X149659609Y-117398291D01*
X149161619Y-117065545D01*
X148574200Y-116948700D01*
X147986781Y-117065545D01*
X147488791Y-117398291D01*
X147449600Y-117456944D01*
X147449600Y-117236350D01*
X147449600Y-116664850D01*
X147449600Y-115574291D01*
X147352927Y-115340902D01*
X147174299Y-115162273D01*
X146940910Y-115065600D01*
X146688291Y-115065600D01*
X146350350Y-115065600D01*
X146191600Y-115224350D01*
X146191600Y-116823600D01*
X147290850Y-116823600D01*
X147449600Y-116664850D01*
X147449600Y-117236350D01*
X147290850Y-117077600D01*
X146191600Y-117077600D01*
X146191600Y-118676850D01*
X146350350Y-118835600D01*
X146688291Y-118835600D01*
X146940910Y-118835600D01*
X147096387Y-118771199D01*
X147156045Y-119071119D01*
X147488791Y-119569109D01*
X147986781Y-119901855D01*
X148574200Y-120018700D01*
X149161619Y-119901855D01*
X149659609Y-119569109D01*
X149992355Y-119071119D01*
X150109200Y-118483700D01*
X150109200Y-122343620D01*
X150010890Y-122245310D01*
X149723775Y-122053467D01*
X149667584Y-122042289D01*
X149385100Y-121986099D01*
X149385094Y-121986100D01*
X149286600Y-121986100D01*
X147634379Y-121986100D01*
X145937600Y-120289320D01*
X145937600Y-118676850D01*
X145937600Y-117077600D01*
X145937600Y-116823600D01*
X145937600Y-115224350D01*
X145778850Y-115065600D01*
X145440909Y-115065600D01*
X145188290Y-115065600D01*
X144954901Y-115162273D01*
X144776273Y-115340902D01*
X144679600Y-115574291D01*
X144679600Y-116664850D01*
X144838350Y-116823600D01*
X145937600Y-116823600D01*
X145937600Y-117077600D01*
X144838350Y-117077600D01*
X144679600Y-117236350D01*
X144679600Y-118326909D01*
X144776273Y-118560298D01*
X144954901Y-118738927D01*
X145188290Y-118835600D01*
X145440909Y-118835600D01*
X145778850Y-118835600D01*
X145937600Y-118676850D01*
X145937600Y-120289320D01*
X142726090Y-117077810D01*
X142438975Y-116885967D01*
X142382784Y-116874789D01*
X142100300Y-116818599D01*
X142100294Y-116818600D01*
X141971578Y-116818600D01*
X141673470Y-116519971D01*
X141160200Y-116306843D01*
X140604439Y-116306358D01*
X140090797Y-116518590D01*
X139697471Y-116911230D01*
X139484343Y-117424500D01*
X139483858Y-117980261D01*
X139696090Y-118493903D01*
X140088730Y-118887229D01*
X140296612Y-118973549D01*
X140090797Y-119058590D01*
X139697471Y-119451230D01*
X139484343Y-119964500D01*
X139483858Y-120520261D01*
X139696090Y-121033903D01*
X140088730Y-121427229D01*
X140296612Y-121513549D01*
X140090797Y-121598590D01*
X139697471Y-121991230D01*
X139484343Y-122504500D01*
X139483858Y-123060261D01*
X139696090Y-123573903D01*
X140088730Y-123967229D01*
X140296612Y-124053549D01*
X140090797Y-124138590D01*
X139697471Y-124531230D01*
X139484343Y-125044500D01*
X139483858Y-125600261D01*
X139696090Y-126113903D01*
X140088730Y-126507229D01*
X140602000Y-126720357D01*
X141157761Y-126720842D01*
X141671403Y-126508610D01*
X142064729Y-126115970D01*
X142277857Y-125602700D01*
X142278342Y-125046939D01*
X142066110Y-124533297D01*
X141673470Y-124139971D01*
X141465587Y-124053650D01*
X141671403Y-123968610D01*
X141707745Y-123932330D01*
X144617160Y-126630628D01*
X144617160Y-127450600D01*
X144664137Y-127692723D01*
X144803927Y-127905527D01*
X145014960Y-128047977D01*
X145264600Y-128098040D01*
X146864600Y-128098040D01*
X147106723Y-128051063D01*
X147319527Y-127911273D01*
X147461977Y-127700240D01*
X147512040Y-127450600D01*
X147512040Y-126584643D01*
X147986781Y-126901855D01*
X148574200Y-127018700D01*
X149161619Y-126901855D01*
X149659609Y-126569109D01*
X149933482Y-126159227D01*
X150064960Y-126247977D01*
X150314600Y-126298040D01*
X151814600Y-126298040D01*
X152056723Y-126251063D01*
X152269527Y-126111273D01*
X152411977Y-125900240D01*
X152462040Y-125650600D01*
X152462040Y-128441400D01*
X138545700Y-128441400D01*
X138545700Y-122996400D01*
X138409825Y-122313310D01*
X138022886Y-121734214D01*
X137443790Y-121347275D01*
X136760700Y-121211400D01*
X136077610Y-121347275D01*
X135498514Y-121734214D01*
X135111575Y-122313310D01*
X134975700Y-122996400D01*
X135111575Y-123679490D01*
X135498514Y-124258586D01*
X136077610Y-124645525D01*
X136760700Y-124781400D01*
X137443790Y-124645525D01*
X138022886Y-124258586D01*
X138409825Y-123679490D01*
X138545700Y-122996400D01*
X138545700Y-128441400D01*
X120410700Y-128441400D01*
X120148562Y-128493543D01*
X119926332Y-128642032D01*
X119426332Y-129142032D01*
X119277843Y-129364262D01*
X119225700Y-129626400D01*
X119225700Y-134912664D01*
X119126964Y-135011400D01*
X118292180Y-135011400D01*
X118292180Y-129179320D01*
X118292180Y-127179320D01*
X118245203Y-126937197D01*
X118105413Y-126724393D01*
X117894380Y-126581943D01*
X117644740Y-126531880D01*
X114171332Y-126531880D01*
X111886444Y-124246992D01*
X111886444Y-118685998D01*
X111858662Y-118130932D01*
X111699697Y-117747157D01*
X111457513Y-117677692D01*
X111277908Y-117857297D01*
X111277908Y-117498087D01*
X111208443Y-117255903D01*
X110684998Y-117069156D01*
X110129932Y-117096938D01*
X109746157Y-117255903D01*
X109676692Y-117498087D01*
X110477300Y-118298695D01*
X111277908Y-117498087D01*
X111277908Y-117857297D01*
X110656905Y-118478300D01*
X111457513Y-119278908D01*
X111699697Y-119209443D01*
X111886444Y-118685998D01*
X111886444Y-124246992D01*
X111277908Y-123638456D01*
X111277908Y-119458513D01*
X110477300Y-118657905D01*
X110297695Y-118837510D01*
X110297695Y-118478300D01*
X109497087Y-117677692D01*
X109254903Y-117747157D01*
X109068156Y-118270602D01*
X109095938Y-118825668D01*
X109254903Y-119209443D01*
X109497087Y-119278908D01*
X110297695Y-118478300D01*
X110297695Y-118837510D01*
X109676692Y-119458513D01*
X109746157Y-119700697D01*
X110269602Y-119887444D01*
X110824668Y-119859662D01*
X111208443Y-119700697D01*
X111277908Y-119458513D01*
X111277908Y-123638456D01*
X107408600Y-119769148D01*
X107408600Y-116154200D01*
X107408600Y-115963932D01*
X112054152Y-111318379D01*
X112054566Y-111317966D01*
X112213645Y-111159165D01*
X112300603Y-110949745D01*
X112386803Y-110742156D01*
X112387000Y-110515400D01*
X112387197Y-110290625D01*
X112214767Y-109873314D01*
X112054566Y-109712834D01*
X111895765Y-109553755D01*
X111478756Y-109380597D01*
X111027225Y-109380203D01*
X110609914Y-109552633D01*
X110290355Y-109871635D01*
X110290157Y-109872110D01*
X105471034Y-114691234D01*
X105224997Y-115059454D01*
X105138600Y-115493800D01*
X105138600Y-116154200D01*
X105138600Y-117628483D01*
X104898001Y-117387463D01*
X104898001Y-114249200D01*
X104830633Y-113910526D01*
X104638789Y-113623410D01*
X104613390Y-113598010D01*
X104326274Y-113406167D01*
X103987600Y-113338799D01*
X103648926Y-113406167D01*
X103361810Y-113598010D01*
X103169967Y-113885126D01*
X103102599Y-114223800D01*
X103169967Y-114562474D01*
X103361810Y-114849590D01*
X103387210Y-114874989D01*
X103674326Y-115066833D01*
X104013000Y-115134201D01*
X104351674Y-115066833D01*
X104638789Y-114874989D01*
X104830633Y-114587874D01*
X104898001Y-114249200D01*
X104898001Y-117387463D01*
X104805370Y-117294671D01*
X104292100Y-117081543D01*
X103736339Y-117081058D01*
X103222697Y-117293290D01*
X102829371Y-117685930D01*
X102616243Y-118199200D01*
X102615758Y-118754961D01*
X102827990Y-119268603D01*
X103220630Y-119661929D01*
X103733900Y-119875057D01*
X104289661Y-119875542D01*
X104803303Y-119663310D01*
X105138600Y-119328597D01*
X105138600Y-120239280D01*
X105224997Y-120673626D01*
X105471034Y-121041846D01*
X112497300Y-128068112D01*
X112497300Y-129179320D01*
X112544277Y-129421443D01*
X112684067Y-129634247D01*
X112895100Y-129776697D01*
X113144740Y-129826760D01*
X117644740Y-129826760D01*
X117886863Y-129779783D01*
X118099667Y-129639993D01*
X118242117Y-129428960D01*
X118292180Y-129179320D01*
X118292180Y-135011400D01*
X118279740Y-135011400D01*
X118279740Y-134465070D01*
X118279740Y-133893570D01*
X118279740Y-133053011D01*
X118183067Y-132819622D01*
X118004439Y-132640993D01*
X117771050Y-132544320D01*
X117518431Y-132544320D01*
X115680490Y-132544320D01*
X115521740Y-132703070D01*
X115521740Y-134052320D01*
X118120990Y-134052320D01*
X118279740Y-133893570D01*
X118279740Y-134465070D01*
X118120990Y-134306320D01*
X115521740Y-134306320D01*
X115521740Y-134326320D01*
X115267740Y-134326320D01*
X115267740Y-134306320D01*
X115267740Y-134052320D01*
X115267740Y-132703070D01*
X115108990Y-132544320D01*
X113271049Y-132544320D01*
X113018430Y-132544320D01*
X112785041Y-132640993D01*
X112606413Y-132819622D01*
X112509740Y-133053011D01*
X112509740Y-133893570D01*
X112668490Y-134052320D01*
X115267740Y-134052320D01*
X115267740Y-134306320D01*
X112668490Y-134306320D01*
X112509740Y-134465070D01*
X112509740Y-135011400D01*
X111694436Y-135011400D01*
X111595700Y-134912664D01*
X111595700Y-134017620D01*
X111661863Y-134004783D01*
X111874667Y-133864993D01*
X112017117Y-133653960D01*
X112067180Y-133404320D01*
X112067180Y-128904320D01*
X112020203Y-128662197D01*
X111880413Y-128449393D01*
X111669380Y-128306943D01*
X111419740Y-128256880D01*
X109419740Y-128256880D01*
X109177617Y-128303857D01*
X108968233Y-128441400D01*
X107384436Y-128441400D01*
X107285700Y-128342664D01*
X107285700Y-124546400D01*
X107233557Y-124284262D01*
X107085068Y-124062032D01*
X106585068Y-123562032D01*
X106362838Y-123413543D01*
X106100700Y-123361400D01*
X100342144Y-123361400D01*
X100342144Y-118685998D01*
X100314362Y-118130932D01*
X100155397Y-117747157D01*
X99913213Y-117677692D01*
X99733608Y-117857297D01*
X99733608Y-117498087D01*
X99664143Y-117255903D01*
X99140698Y-117069156D01*
X98585632Y-117096938D01*
X98201857Y-117255903D01*
X98132392Y-117498087D01*
X98933000Y-118298695D01*
X99733608Y-117498087D01*
X99733608Y-117857297D01*
X99112605Y-118478300D01*
X99913213Y-119278908D01*
X100155397Y-119209443D01*
X100342144Y-118685998D01*
X100342144Y-123361400D01*
X99733608Y-123361400D01*
X99733608Y-119458513D01*
X98933000Y-118657905D01*
X98753395Y-118837510D01*
X98753395Y-118478300D01*
X97952787Y-117677692D01*
X97710603Y-117747157D01*
X97523856Y-118270602D01*
X97551638Y-118825668D01*
X97710603Y-119209443D01*
X97952787Y-119278908D01*
X98753395Y-118478300D01*
X98753395Y-118837510D01*
X98132392Y-119458513D01*
X98201857Y-119700697D01*
X98725302Y-119887444D01*
X99280368Y-119859662D01*
X99664143Y-119700697D01*
X99733608Y-119458513D01*
X99733608Y-123361400D01*
X97384436Y-123361400D01*
X97285700Y-123262664D01*
X97285700Y-96390136D01*
X105975068Y-87700768D01*
X106123557Y-87478538D01*
X106175700Y-87216400D01*
X106175700Y-81550980D01*
X111357882Y-81550980D01*
X111245055Y-82118200D01*
X111359129Y-82691689D01*
X111683985Y-83177870D01*
X111998765Y-83388200D01*
X111683985Y-83598530D01*
X111359129Y-84084711D01*
X111245055Y-84658200D01*
X111359129Y-85231689D01*
X111683985Y-85717870D01*
X111699767Y-85728415D01*
X111670277Y-85734137D01*
X111457473Y-85873927D01*
X111315023Y-86084960D01*
X111264960Y-86334600D01*
X111264960Y-88061800D01*
X111311937Y-88303923D01*
X111451727Y-88516727D01*
X111662760Y-88659177D01*
X111912400Y-88709240D01*
X112098924Y-88709240D01*
X112099589Y-88712584D01*
X112110767Y-88768775D01*
X112302610Y-89055890D01*
X114855820Y-91609100D01*
X113650578Y-91609100D01*
X113352470Y-91310471D01*
X112839200Y-91097343D01*
X112283439Y-91096858D01*
X111769797Y-91309090D01*
X111376471Y-91701730D01*
X111163343Y-92215000D01*
X111162858Y-92770761D01*
X111375090Y-93284403D01*
X111767730Y-93677729D01*
X112281000Y-93890857D01*
X112836761Y-93891342D01*
X113350403Y-93679110D01*
X113650937Y-93379100D01*
X116625820Y-93379100D01*
X124578300Y-101331579D01*
X124578300Y-109613694D01*
X124578299Y-109613700D01*
X124634489Y-109896184D01*
X124645667Y-109952375D01*
X124837510Y-110239490D01*
X127656907Y-113058886D01*
X127656910Y-113058890D01*
X127656911Y-113058890D01*
X127944025Y-113250733D01*
X127944026Y-113250733D01*
X128000215Y-113261910D01*
X128282700Y-113318101D01*
X128282700Y-113318100D01*
X128282705Y-113318100D01*
X130807020Y-113318100D01*
X129360022Y-114765097D01*
X129251725Y-114765003D01*
X128834414Y-114937433D01*
X128514855Y-115256435D01*
X128341697Y-115673444D01*
X128341303Y-116124975D01*
X128513733Y-116542286D01*
X128832735Y-116861845D01*
X129249744Y-117035003D01*
X129701275Y-117035397D01*
X130118586Y-116862967D01*
X130438145Y-116543965D01*
X130611303Y-116126956D01*
X130611399Y-116016880D01*
X132078279Y-114550000D01*
X134337620Y-114550000D01*
X128282942Y-120604678D01*
X128282942Y-118214339D01*
X128070710Y-117700697D01*
X127678070Y-117307371D01*
X127164800Y-117094243D01*
X126609039Y-117093758D01*
X126095397Y-117305990D01*
X125702071Y-117698630D01*
X125488943Y-118211900D01*
X125488458Y-118767661D01*
X125700690Y-119281303D01*
X126093330Y-119674629D01*
X126606600Y-119887757D01*
X127162361Y-119888242D01*
X127676003Y-119676010D01*
X128069329Y-119283370D01*
X128282457Y-118770100D01*
X128282942Y-118214339D01*
X128282942Y-120604678D01*
X126938220Y-121949400D01*
X123214844Y-121949400D01*
X123214844Y-118698698D01*
X123187062Y-118143632D01*
X123028097Y-117759857D01*
X122785913Y-117690392D01*
X122606308Y-117869997D01*
X122606308Y-117510787D01*
X122536843Y-117268603D01*
X122013398Y-117081856D01*
X121458332Y-117109638D01*
X121074557Y-117268603D01*
X121005092Y-117510787D01*
X121805700Y-118311395D01*
X122606308Y-117510787D01*
X122606308Y-117869997D01*
X121985305Y-118491000D01*
X122785913Y-119291608D01*
X123028097Y-119222143D01*
X123214844Y-118698698D01*
X123214844Y-121949400D01*
X122606308Y-121949400D01*
X122606308Y-119471213D01*
X121805700Y-118670605D01*
X121626095Y-118850210D01*
X121626095Y-118491000D01*
X120825487Y-117690392D01*
X120583303Y-117759857D01*
X120396556Y-118283302D01*
X120424338Y-118838368D01*
X120583303Y-119222143D01*
X120825487Y-119291608D01*
X121626095Y-118491000D01*
X121626095Y-118850210D01*
X121005092Y-119471213D01*
X121074557Y-119713397D01*
X121598002Y-119900144D01*
X122153068Y-119872362D01*
X122536843Y-119713397D01*
X122606308Y-119471213D01*
X122606308Y-121949400D01*
X119913400Y-121949400D01*
X118946479Y-121949400D01*
X118356102Y-121359022D01*
X118356197Y-121250725D01*
X118183767Y-120833414D01*
X117864765Y-120513855D01*
X117447756Y-120340697D01*
X116996225Y-120340303D01*
X116954542Y-120357526D01*
X116954542Y-118201639D01*
X116742310Y-117687997D01*
X116349670Y-117294671D01*
X115836400Y-117081543D01*
X115349020Y-117081117D01*
X115349020Y-105706505D01*
X115349020Y-105337015D01*
X115234946Y-104763526D01*
X114910090Y-104277345D01*
X114423909Y-103952489D01*
X113850420Y-103838415D01*
X113276931Y-103952489D01*
X112790750Y-104277345D01*
X112580420Y-104592125D01*
X112370090Y-104277345D01*
X111883909Y-103952489D01*
X111310420Y-103838415D01*
X110925700Y-103914940D01*
X110925700Y-84676400D01*
X110789825Y-83993310D01*
X110402886Y-83414214D01*
X109823790Y-83027275D01*
X109140700Y-82891400D01*
X108457610Y-83027275D01*
X107878514Y-83414214D01*
X107491575Y-83993310D01*
X107355700Y-84676400D01*
X107491575Y-85359490D01*
X107878514Y-85938586D01*
X108457610Y-86325525D01*
X109140700Y-86461400D01*
X109823790Y-86325525D01*
X110402886Y-85938586D01*
X110789825Y-85359490D01*
X110925700Y-84676400D01*
X110925700Y-103914940D01*
X110736931Y-103952489D01*
X110250750Y-104277345D01*
X110240204Y-104293127D01*
X110234483Y-104263637D01*
X110094693Y-104050833D01*
X109883660Y-103908383D01*
X109634020Y-103858320D01*
X108889244Y-103858320D01*
X108889244Y-92701798D01*
X108861462Y-92146732D01*
X108702497Y-91762957D01*
X108460313Y-91693492D01*
X108280708Y-91873097D01*
X108280708Y-91513887D01*
X108211243Y-91271703D01*
X107687798Y-91084956D01*
X107132732Y-91112738D01*
X106748957Y-91271703D01*
X106679492Y-91513887D01*
X107480100Y-92314495D01*
X108280708Y-91513887D01*
X108280708Y-91873097D01*
X107659705Y-92494100D01*
X108460313Y-93294708D01*
X108702497Y-93225243D01*
X108889244Y-92701798D01*
X108889244Y-103858320D01*
X108280708Y-103858320D01*
X108280708Y-93474313D01*
X107480100Y-92673705D01*
X107300495Y-92853310D01*
X107300495Y-92494100D01*
X106499887Y-91693492D01*
X106257703Y-91762957D01*
X106070956Y-92286402D01*
X106098738Y-92841468D01*
X106257703Y-93225243D01*
X106499887Y-93294708D01*
X107300495Y-92494100D01*
X107300495Y-92853310D01*
X106679492Y-93474313D01*
X106748957Y-93716497D01*
X107272402Y-93903244D01*
X107827468Y-93875462D01*
X108211243Y-93716497D01*
X108280708Y-93474313D01*
X108280708Y-103858320D01*
X107906820Y-103858320D01*
X107664697Y-103905297D01*
X107451893Y-104045087D01*
X107309443Y-104256120D01*
X107259380Y-104505760D01*
X107259380Y-106537760D01*
X107306357Y-106779883D01*
X107446147Y-106992687D01*
X107657180Y-107135137D01*
X107906820Y-107185200D01*
X109634020Y-107185200D01*
X109876143Y-107138223D01*
X110088947Y-106998433D01*
X110231397Y-106787400D01*
X110239138Y-106748797D01*
X110250750Y-106766175D01*
X110736931Y-107091031D01*
X111310420Y-107205105D01*
X111883909Y-107091031D01*
X112370090Y-106766175D01*
X112580420Y-106451394D01*
X112790750Y-106766175D01*
X113276931Y-107091031D01*
X113850420Y-107205105D01*
X114423909Y-107091031D01*
X114910090Y-106766175D01*
X115234946Y-106279994D01*
X115349020Y-105706505D01*
X115349020Y-117081117D01*
X115280639Y-117081058D01*
X114766997Y-117293290D01*
X114373671Y-117685930D01*
X114160543Y-118199200D01*
X114160058Y-118754961D01*
X114372290Y-119268603D01*
X114764930Y-119661929D01*
X115278200Y-119875057D01*
X115833961Y-119875542D01*
X116347603Y-119663310D01*
X116740929Y-119270670D01*
X116954057Y-118757400D01*
X116954542Y-118201639D01*
X116954542Y-120357526D01*
X116578914Y-120512733D01*
X116259355Y-120831735D01*
X116086197Y-121248744D01*
X116085803Y-121700275D01*
X116258233Y-122117586D01*
X116577235Y-122437145D01*
X116994244Y-122610303D01*
X117104319Y-122610399D01*
X117954107Y-123460186D01*
X117954110Y-123460190D01*
X117954111Y-123460190D01*
X118241225Y-123652033D01*
X118241226Y-123652033D01*
X118297415Y-123663210D01*
X118579900Y-123719401D01*
X118579900Y-123719400D01*
X118579905Y-123719400D01*
X119913400Y-123719400D01*
X127304794Y-123719400D01*
X127304800Y-123719401D01*
X127304800Y-123719400D01*
X127587284Y-123663210D01*
X127643474Y-123652033D01*
X127643475Y-123652033D01*
X127930590Y-123460190D01*
X135405679Y-115985100D01*
X140931894Y-115985100D01*
X140931900Y-115985101D01*
X140931900Y-115985100D01*
X141214384Y-115928910D01*
X141270574Y-115917733D01*
X141270575Y-115917733D01*
X141557690Y-115725890D01*
X144872386Y-112411192D01*
X144872390Y-112411190D01*
X144872390Y-112411189D01*
X145064233Y-112124075D01*
X145064233Y-112124074D01*
X145075410Y-112067884D01*
X145131600Y-111785400D01*
X145131601Y-111785400D01*
X145131600Y-111785394D01*
X145131600Y-107873805D01*
X145131600Y-107873800D01*
X145131601Y-107873800D01*
X145075410Y-107591315D01*
X145064233Y-107535126D01*
X145064233Y-107535125D01*
X144872390Y-107248011D01*
X144872390Y-107248010D01*
X144872386Y-107248007D01*
X142226956Y-104602576D01*
X142066110Y-104213297D01*
X141673470Y-103819971D01*
X141465587Y-103733650D01*
X141671403Y-103648610D01*
X142064729Y-103255970D01*
X142277857Y-102742700D01*
X142278342Y-102186939D01*
X142066110Y-101673297D01*
X141673470Y-101279971D01*
X141465587Y-101193650D01*
X141671403Y-101108610D01*
X142064729Y-100715970D01*
X142277857Y-100202700D01*
X142278342Y-99646939D01*
X142066110Y-99133297D01*
X141673470Y-98739971D01*
X141465587Y-98653650D01*
X141671403Y-98568610D01*
X142064729Y-98175970D01*
X142277857Y-97662700D01*
X142278342Y-97106939D01*
X142066110Y-96593297D01*
X141673470Y-96199971D01*
X141465587Y-96113650D01*
X141671403Y-96028610D01*
X142064729Y-95635970D01*
X142277857Y-95122700D01*
X142278342Y-94566939D01*
X142066110Y-94053297D01*
X141673470Y-93659971D01*
X141465587Y-93573650D01*
X141671403Y-93488610D01*
X141721500Y-93438600D01*
X142389505Y-93438600D01*
X142346573Y-93481532D01*
X142445236Y-93748387D01*
X143054961Y-93974908D01*
X143704960Y-93950856D01*
X144193764Y-93748387D01*
X144292427Y-93481532D01*
X143989000Y-93178105D01*
X144096666Y-93106166D01*
X144168605Y-92998500D01*
X144472032Y-93301927D01*
X144542229Y-93275973D01*
X144703380Y-93517152D01*
X145233813Y-93871575D01*
X145859500Y-93996032D01*
X146485187Y-93871575D01*
X147015620Y-93517152D01*
X147051134Y-93464000D01*
X148185208Y-93464000D01*
X148261636Y-93540561D01*
X148770498Y-93751859D01*
X149321485Y-93752340D01*
X149830715Y-93541931D01*
X150220661Y-93152664D01*
X150431959Y-92643802D01*
X150432440Y-92092815D01*
X150222031Y-91583585D01*
X149832764Y-91193639D01*
X149360258Y-90997437D01*
X149732981Y-90625364D01*
X149944279Y-90116502D01*
X149944760Y-89565515D01*
X149734351Y-89056285D01*
X149345084Y-88666339D01*
X148836222Y-88455041D01*
X148285235Y-88454560D01*
X147802552Y-88654000D01*
X147051134Y-88654000D01*
X147015620Y-88600848D01*
X146485187Y-88246425D01*
X145859500Y-88121968D01*
X145233813Y-88246425D01*
X144703380Y-88600848D01*
X144589500Y-88771281D01*
X144475620Y-88600848D01*
X144429100Y-88569764D01*
X144429100Y-87920558D01*
X144467561Y-87882164D01*
X144678859Y-87373302D01*
X144679340Y-86822315D01*
X144528643Y-86457600D01*
X151182520Y-86457600D01*
X151781700Y-87056779D01*
X151781700Y-93562620D01*
X149577110Y-95767210D01*
X149385267Y-96054325D01*
X149374089Y-96110515D01*
X149317899Y-96393000D01*
X149317900Y-96393005D01*
X149317900Y-108432600D01*
X149317900Y-108483394D01*
X149317899Y-108483400D01*
X149374089Y-108765884D01*
X149385267Y-108822075D01*
X149577110Y-109109190D01*
X151177307Y-110709386D01*
X151177310Y-110709390D01*
X151177311Y-110709390D01*
X151369154Y-110837575D01*
X151464425Y-110901233D01*
X151464426Y-110901234D01*
X151803100Y-110968601D01*
X151803100Y-110968600D01*
X151803105Y-110968600D01*
X155030621Y-110968600D01*
X155328730Y-111267229D01*
X155536612Y-111353549D01*
X155330797Y-111438590D01*
X154937471Y-111831230D01*
X154724343Y-112344500D01*
X154723858Y-112900261D01*
X154936090Y-113413903D01*
X155328730Y-113807229D01*
X155536612Y-113893549D01*
X155330797Y-113978590D01*
X154937471Y-114371230D01*
X154724343Y-114884500D01*
X154723858Y-115440261D01*
X154936090Y-115953903D01*
X155328730Y-116347229D01*
X155536612Y-116433549D01*
X155330797Y-116518590D01*
X154937471Y-116911230D01*
X154724343Y-117424500D01*
X154723858Y-117980261D01*
X154936090Y-118493903D01*
X155328730Y-118887229D01*
X155536612Y-118973549D01*
X155330797Y-119058590D01*
X154937471Y-119451230D01*
X154724343Y-119964500D01*
X154723858Y-120520261D01*
X154936090Y-121033903D01*
X155328730Y-121427229D01*
X155536612Y-121513549D01*
X155330797Y-121598590D01*
X154937471Y-121991230D01*
X154724343Y-122504500D01*
X154723858Y-123060261D01*
X154936090Y-123573903D01*
X155328730Y-123967229D01*
X155536612Y-124053549D01*
X155330797Y-124138590D01*
X154937471Y-124531230D01*
X154724343Y-125044500D01*
X154723858Y-125600261D01*
X154936090Y-126113903D01*
X155328730Y-126507229D01*
X155842000Y-126720357D01*
X156397761Y-126720842D01*
X156715700Y-126589472D01*
X156715700Y-128342664D01*
M02*
