G04 #@! TF.FileFunction,Copper,L1,Top,Signal*
%FSLAX46Y46*%
G04 Gerber Fmt 4.6, Leading zero omitted, Abs format (unit mm)*
G04 Created by KiCad (PCBNEW 4.0.1-stable) date 2016/07/21 14:16:58*
%MOMM*%
G01*
G04 APERTURE LIST*
%ADD10C,0.100000*%
%ADD11R,1.270000X3.302000*%
%ADD12R,1.270000X2.286000*%
%ADD13R,1.270000X2.794000*%
%ADD14R,0.889000X0.889000*%
%ADD15C,0.600000*%
%ADD16C,0.250000*%
G04 APERTURE END LIST*
D10*
D11*
X119485000Y-92979000D03*
D12*
X121517000Y-93487000D03*
D13*
X128121000Y-93233000D03*
D12*
X120501000Y-85613000D03*
X125200000Y-85613000D03*
X128248000Y-85613000D03*
D14*
X118288000Y-82400000D03*
X119812000Y-82400000D03*
X122900000Y-83912000D03*
X122900000Y-82388000D03*
D15*
X119200000Y-96150000D03*
X123300000Y-93550000D03*
X123900000Y-90950000D03*
X118300000Y-84850000D03*
D16*
X119200000Y-96150000D02*
X120900000Y-96150000D01*
X120900000Y-96150000D02*
X121517000Y-95533000D01*
X121517000Y-95533000D02*
X121517000Y-93487000D01*
X123237000Y-93487000D02*
X123300000Y-93550000D01*
X121517000Y-93487000D02*
X123237000Y-93487000D01*
X122900000Y-89950000D02*
X123900000Y-90950000D01*
X122900000Y-83912000D02*
X122900000Y-89950000D01*
X124712000Y-83912000D02*
X125200000Y-84400000D01*
X125200000Y-84400000D02*
X125200000Y-85613000D01*
X122900000Y-83912000D02*
X124712000Y-83912000D01*
X128248000Y-83148000D02*
X127488000Y-82388000D01*
X127488000Y-82388000D02*
X122900000Y-82388000D01*
X128248000Y-85613000D02*
X128248000Y-83148000D01*
X122888000Y-82400000D02*
X122900000Y-82388000D01*
X119812000Y-82400000D02*
X122888000Y-82400000D01*
X118288000Y-84838000D02*
X118300000Y-84850000D01*
X118288000Y-82400000D02*
X118288000Y-84838000D01*
M02*
