%TF.GenerationSoftware,KiCad,Pcbnew,(after 2015-may-01 BZR unknown)-product*%
%TF.CreationDate,2015-10-31T14:35:05+09:00*%
%TF.JobID,HandBoard_v1,48616E64426F6172645F76312E6B6963,rev?*%
%TF.FileFunction,Copper,L1,Top,Signal*%
%FSLAX46Y46*%
G04 Gerber Fmt 4.6, Leading zero omitted, Abs format (unit mm)*
G04 Created by KiCad (PCBNEW (after 2015-may-01 BZR unknown)-product) date 2015/10/31 14:35:05*
%MOMM*%
G01*
G04 APERTURE LIST*
%ADD10C,0.100000*%
%ADD11C,2.000000*%
%ADD12O,2.000000X2.000000*%
%ADD13C,1.524000*%
%ADD14R,4.500000X2.000000*%
%ADD15R,2.500000X2.500000*%
%ADD16R,2.032000X1.727200*%
%ADD17O,2.032000X1.727200*%
%ADD18R,1.727200X2.032000*%
%ADD19O,1.727200X2.032000*%
%ADD20C,1.000000*%
%ADD21C,1.000000*%
%ADD22C,0.500000*%
G04 APERTURE END LIST*
D10*
D11*
X-14151600Y-11545400D03*
D12*
X-14151600Y-9005400D03*
X-11611600Y-11545400D03*
X-11611600Y-9005400D03*
D13*
X-58538100Y-37694700D03*
X-53458100Y-37694700D03*
X-46993800Y-37694700D03*
X-41913800Y-37694700D03*
X-35665400Y-37707400D03*
X-30585400Y-37707400D03*
X-49991000Y-11710500D03*
X-44911000Y-11710500D03*
X-1350000Y-36920000D03*
X-1350000Y-21680000D03*
X-16590000Y-8980000D03*
X-16590000Y-11520000D03*
X-16590000Y-14060000D03*
X-16590000Y-16600000D03*
X-16590000Y-19140000D03*
X-16590000Y-21680000D03*
X-16590000Y-44540000D03*
X-16590000Y-42000000D03*
X-16590000Y-39460000D03*
X-16590000Y-36920000D03*
X-16590000Y-29300000D03*
X-16590000Y-26760000D03*
X-16590000Y-24220000D03*
X-1350000Y-24220000D03*
X-1350000Y-26760000D03*
X-1350000Y-29300000D03*
X-1350000Y-31840000D03*
X-1350000Y-34380000D03*
X-1350000Y-39460000D03*
X-1350000Y-42000000D03*
X-1350000Y-44540000D03*
D14*
X-42076360Y-53395720D03*
X-42076360Y-47395720D03*
D15*
X-6406500Y-43767000D03*
X-11406500Y-45567000D03*
X-11406500Y-36167000D03*
D16*
X-44542700Y-6414600D03*
D17*
X-44542700Y-3874600D03*
X-44542700Y-1334600D03*
D18*
X-48700680Y-24738160D03*
D19*
X-46160680Y-24738160D03*
X-43620680Y-24738160D03*
D16*
X-38154600Y-6414600D03*
D17*
X-38154600Y-3874600D03*
X-38154600Y-1334600D03*
D16*
X-41355000Y-6401900D03*
D17*
X-41355000Y-3861900D03*
X-41355000Y-1321900D03*
D20*
X-41647100Y-42635000D03*
X-11450000Y-33400000D03*
X-46219100Y-29731800D03*
X-15250000Y-5750000D03*
X-8423900Y-11583500D03*
X-34941500Y-1360000D03*
X-34979600Y-3938100D03*
X-8911580Y-9056200D03*
X-3382000Y-24220000D03*
X-40250100Y-40691900D03*
X-27994600Y-35116600D03*
X-40250000Y-11700000D03*
D21*
X-14151600Y-11545400D02*
X-14151600Y-14644602D01*
X-14151600Y-14644602D02*
X-14277000Y-14770002D01*
X-8950000Y-20097002D02*
X-14277000Y-14770002D01*
X-8950000Y-34800000D02*
X-8950000Y-20097002D01*
X-10317000Y-36167000D02*
X-8950000Y-34800000D01*
X-10317000Y-36167000D02*
X-11406500Y-36167000D01*
D22*
X-14177000Y-11520000D02*
X-14151600Y-11545400D01*
X-11470000Y-36230500D02*
X-11470000Y-36261500D01*
X-58525400Y-37694700D02*
X-58538100Y-37694700D01*
D21*
X-41647100Y-42635000D02*
X-38657000Y-45675100D01*
X-38657000Y-45675100D02*
X-38657000Y-46043400D01*
X-38657000Y-49326360D02*
X-42076360Y-53395720D01*
X-38657000Y-46043400D02*
X-38657000Y-49326360D01*
X-11406500Y-33443500D02*
X-11406500Y-36167000D01*
X-11450000Y-33400000D02*
X-11406500Y-33443500D01*
X-51197500Y-35370600D02*
X-51197500Y-39455680D01*
X-51197500Y-39455680D02*
X-42749460Y-47903720D01*
X-51197500Y-34710200D02*
X-51197500Y-35370600D01*
X-46219100Y-29731800D02*
X-51197500Y-34710200D01*
X-15250000Y-5750000D02*
X-14151600Y-6848400D01*
X-14151600Y-6848400D02*
X-14151600Y-9005400D01*
D22*
X-14177000Y-8980000D02*
X-14151600Y-9005400D01*
D21*
X-16590000Y-8980000D02*
X-14177000Y-8980000D01*
D22*
X-14177000Y-8980000D02*
X-14151600Y-9005400D01*
X-8950000Y-41750000D02*
X-11760000Y-41750000D01*
X-11760000Y-41750000D02*
X-16590000Y-36920000D01*
X-6933000Y-43767000D02*
X-8950000Y-41750000D01*
D21*
X-6406500Y-43767000D02*
X-6933000Y-43767000D01*
D22*
X-10073500Y-46900000D02*
X-11406500Y-45567000D01*
D21*
X-16590000Y-11520000D02*
X-14177000Y-11520000D01*
D22*
X-12100000Y-21100000D02*
X-12100000Y-31300000D01*
X-12100000Y-31300000D02*
X-14550000Y-33750000D01*
X-14550000Y-33750000D02*
X-14550000Y-37050000D01*
X-14550000Y-37050000D02*
X-10850000Y-40750000D01*
X-10850000Y-40750000D02*
X-5500000Y-40750000D01*
X-5500000Y-40750000D02*
X-3800000Y-42450000D01*
X-3800000Y-42450000D02*
X-3800000Y-45350000D01*
X-3800000Y-45350000D02*
X-5350000Y-46900000D01*
X-5350000Y-46900000D02*
X-10073500Y-46900000D01*
X-16590000Y-16610000D02*
X-12100000Y-21100000D01*
X-16590000Y-16600000D02*
X-16590000Y-16610000D01*
X-34992300Y-6414600D02*
X-29937700Y-1360000D01*
X-1350000Y-3874600D02*
X-1400000Y-21800000D01*
X-3864600Y-1360000D02*
X-1350000Y-3874600D01*
X-29937700Y-1360000D02*
X-3864600Y-1360000D01*
X-38154600Y-6414600D02*
X-34992300Y-6414600D01*
X-1350000Y-26760000D02*
X-3966200Y-26760000D01*
X-5185400Y-16942900D02*
X-3369300Y-15126800D01*
X-5185400Y-25540800D02*
X-5185400Y-16942900D01*
X-3966200Y-26760000D02*
X-5185400Y-25540800D01*
X-3369300Y-15126800D02*
X-3369300Y-4839800D01*
X-5337800Y-2871300D02*
X-3369300Y-4839800D01*
X-41355000Y-7760800D02*
X-41355000Y-6401900D01*
X-29493200Y-2871300D02*
X-5337800Y-2871300D01*
X-35157400Y-8535500D02*
X-29493200Y-2871300D01*
X-40580300Y-8535500D02*
X-35157400Y-8535500D01*
X-41355000Y-7760800D02*
X-40580300Y-8535500D01*
X-7268200Y-27699800D02*
X-5668000Y-29300000D01*
X-5668000Y-29300000D02*
X-1350000Y-29300000D01*
X-44542700Y-7646500D02*
X-41863000Y-10326200D01*
X-41863000Y-10326200D02*
X-34458900Y-10326200D01*
X-34458900Y-10326200D02*
X-28921700Y-4789000D01*
X-28921700Y-4789000D02*
X-5922000Y-4789000D01*
X-44542700Y-6414600D02*
X-44542700Y-7646500D01*
X-5922000Y-4789000D02*
X-4804400Y-5906600D01*
X-4804400Y-13145600D02*
X-4804400Y-5906600D01*
X-7268200Y-15609400D02*
X-4804400Y-13145600D01*
X-7268200Y-27649000D02*
X-7268200Y-15609400D01*
X-7268200Y-27649000D02*
X-7268200Y-27699800D01*
D21*
X-44542700Y-1334600D02*
X-38154600Y-1334600D01*
X-8462000Y-11545400D02*
X-11611600Y-11545400D01*
X-8423900Y-11583500D02*
X-8462000Y-11545400D01*
X-34966900Y-1334600D02*
X-34941500Y-1360000D01*
X-38154600Y-1334600D02*
X-34966900Y-1334600D01*
X-11611600Y-9005400D02*
X-8962380Y-9005400D01*
X-35043100Y-3874600D02*
X-38154600Y-3874600D01*
X-35043100Y-3874600D02*
X-34979600Y-3938100D01*
X-8962380Y-9005400D02*
X-8911580Y-9056200D01*
X-44542700Y-3874600D02*
X-38154600Y-3874600D01*
D22*
X-1350000Y-24220000D02*
X-3382000Y-24220000D01*
X-40250100Y-40691900D02*
X-38891200Y-42050800D01*
X-38891200Y-42050800D02*
X-37557700Y-42050800D01*
X-30166300Y-42050800D02*
X-37557700Y-42050800D01*
X-22432000Y-34316500D02*
X-30166300Y-42050800D01*
X-16539200Y-34316500D02*
X-22432000Y-34316500D01*
X-13224500Y-31001800D02*
X-16539200Y-34316500D01*
X-13224500Y-27090200D02*
X-13224500Y-31001800D01*
X-13224500Y-27090200D02*
X-16094700Y-24220000D01*
X-16590000Y-24220000D02*
X-16094700Y-24220000D01*
X-14748500Y-27877600D02*
X-15866100Y-26760000D01*
X-14748500Y-27877600D02*
X-14748500Y-30316000D01*
X-14748500Y-30316000D02*
X-17313900Y-32881400D01*
X-17313900Y-32881400D02*
X-25759400Y-32881400D01*
X-27994600Y-35116600D02*
X-25759400Y-32881400D01*
X-16590000Y-26760000D02*
X-15866100Y-26760000D01*
X-32007800Y-28830100D02*
X-32007800Y-19942200D01*
X-16590000Y-29300000D02*
X-18939500Y-31649500D01*
X-29188400Y-31649500D02*
X-18939500Y-31649500D01*
X-32007800Y-28830100D02*
X-29188400Y-31649500D01*
X-32007800Y-19942200D02*
X-40250000Y-11700000D01*
M02*
