M48
;DRILL file {KiCad (after 2015-may-01 BZR unknown)-product} date 2015/10/21 19:15:53
;FORMAT={2:4/ absolute / inch / suppress leading zeros}
FMAT,2
INCH,TZ
T1C0.020
T2C0.024
T3C0.030
T4C0.035
T5C0.039
T6C0.040
T7C0.055
%
G90
G05
M72
T1
X43800Y-43510
X45600Y-48590
X46150Y-47825
X48225Y-33355
X48240Y-32340
X50975Y-45630
X56415Y-34290
X56670Y-45375
X58488Y-35370
X58680Y-36365
X60665Y-41340
T3
X42315Y-36415
X43495Y-46645
X44315Y-36415
X45495Y-46645
X47955Y-46650
X49955Y-46650
X55465Y-35340
X55465Y-36340
X55465Y-37340
X55465Y-38340
X55465Y-39340
X55465Y-40340
X55465Y-41340
X55465Y-42340
X55465Y-43340
X55465Y-46340
X55465Y-47340
X55465Y-48340
X55465Y-49340
X61465Y-40340
X61465Y-40340
X61465Y-41340
X61465Y-42340
X61465Y-43340
X61465Y-44340
X61465Y-45340
X61465Y-46340
X61465Y-47340
X61465Y-48340
X61465Y-49340
T4
X38950Y-46645
X40950Y-46645
T6
X42823Y-41544
X43823Y-41544
X44460Y-32330
X44460Y-33330
X44460Y-34330
X44823Y-41544
X45715Y-32325
X45715Y-33325
X45715Y-34325
X46975Y-32330
X46975Y-33330
X46975Y-34330
T7
X56425Y-35350
X56425Y-36350
X57425Y-35350
X57425Y-36350
T2
X57506Y-45768G85X57506Y-46319
G05
X57506Y-49567G85X57506Y-49921
G05
X59474Y-48859G85X59474Y-49213
G05
T5
X43472Y-52128G85X43472Y-51143
G05
X44939Y-50464G85X45923Y-50464
G05
X44939Y-52827G85X45923Y-52827
G05
T0
M30
