G04 #@! TF.FileFunction,Copper,L1,Top,Signal*
%FSLAX46Y46*%
G04 Gerber Fmt 4.6, Leading zero omitted, Abs format (unit mm)*
G04 Created by KiCad (PCBNEW (after 2015-may-01 BZR unknown)-product) date 2015/08/08 23:04:21*
%MOMM*%
G01*
G04 APERTURE LIST*
%ADD10C,0.100000*%
%ADD11R,1.200000X0.900000*%
%ADD12R,1.600000X1.200000*%
%ADD13R,2.200000X1.500000*%
%ADD14R,2.200000X1.600000*%
%ADD15R,2.500000X1.500000*%
%ADD16C,0.500000*%
%ADD17C,0.300000*%
G04 APERTURE END LIST*
D10*
D11*
X30804940Y-179865020D03*
X33004940Y-179865020D03*
X33004940Y-187866020D03*
X30804940Y-187866020D03*
D12*
X30604940Y-184773140D03*
X33204940Y-184773140D03*
X33204940Y-182973140D03*
X30604940Y-182973140D03*
D13*
X20270040Y-186357900D03*
D14*
X18470040Y-181357900D03*
D15*
X27870040Y-181357900D03*
D16*
X28765500Y-179865020D02*
X30804940Y-179865020D01*
X27870040Y-180760480D02*
X28765500Y-179865020D01*
X27870040Y-181357900D02*
X27870040Y-180760480D01*
X30804940Y-178755220D02*
X31874460Y-177685700D01*
X31874460Y-177685700D02*
X34541460Y-177685700D01*
X34541460Y-177685700D02*
X34983420Y-178127660D01*
X34983420Y-178127660D02*
X34983420Y-185887540D01*
X34983420Y-185887540D02*
X33004940Y-187866020D01*
X30804940Y-179865020D02*
X30804940Y-178755220D01*
X31006620Y-182973140D02*
X30604940Y-182973140D01*
X33004940Y-180974820D02*
X31006620Y-182973140D01*
X33004940Y-179865020D02*
X33004940Y-180974820D01*
X30604940Y-182973140D02*
X29955060Y-182973140D01*
X15908020Y-183324500D02*
X18941420Y-186357900D01*
X18941420Y-186357900D02*
X20270040Y-186357900D01*
X29955060Y-182973140D02*
X27693620Y-185234580D01*
X15908020Y-180215540D02*
X15908020Y-182877460D01*
X16924020Y-179199540D02*
X15908020Y-180215540D01*
X19403060Y-179199540D02*
X16924020Y-179199540D01*
X25438100Y-185234580D02*
X19403060Y-179199540D01*
X27693620Y-185234580D02*
X25438100Y-185234580D01*
X15908020Y-182877460D02*
X15908020Y-183324500D01*
X33204940Y-185644000D02*
X32377380Y-186471560D01*
X32377380Y-186471560D02*
X31236920Y-186471560D01*
X31236920Y-186471560D02*
X30804940Y-186903540D01*
X30804940Y-186903540D02*
X30804940Y-187866020D01*
X33204940Y-184773140D02*
X33204940Y-185644000D01*
X31007480Y-184773140D02*
X30604940Y-184773140D01*
D17*
X32807480Y-182973140D02*
X31007480Y-184773140D01*
D16*
X33204940Y-182973140D02*
X32807480Y-182973140D01*
X19392260Y-181357900D02*
X18470040Y-181357900D01*
X24462740Y-186392820D02*
X28985260Y-186392820D01*
X30604940Y-184773140D02*
X28985260Y-186392820D01*
X24427180Y-186392820D02*
X19392260Y-181357900D01*
X24462740Y-186392820D02*
X24427180Y-186392820D01*
M02*
