%TF.GenerationSoftware,KiCad,Pcbnew,4.0.1-stable*%
%TF.CreationDate,2016-01-08T23:42:30+09:00*%
%TF.ProjectId,HandBoard_v1,48616E64426F6172645F76312E6B6963,rev?*%
%TF.FileFunction,Legend,Top*%
%FSLAX46Y46*%
G04 Gerber Fmt 4.6, Leading zero omitted, Abs format (unit mm)*
G04 Created by KiCad (PCBNEW 4.0.1-stable) date 2016/01/08 23:42:30*
%MOMM*%
G01*
G04 APERTURE LIST*
%ADD10C,0.100000*%
%ADD11C,0.300000*%
%ADD12C,0.150000*%
%ADD13R,4.700000X2.200000*%
%ADD14C,2.200000*%
%ADD15O,2.200000X2.200000*%
%ADD16C,1.724000*%
%ADD17R,2.700000X2.700000*%
%ADD18R,2.232000X1.927200*%
%ADD19O,2.232000X1.927200*%
%ADD20R,1.927200X2.232000*%
%ADD21O,1.927200X2.232000*%
G04 APERTURE END LIST*
D10*
D11*
X-36942857Y-47278571D02*
X-36942857Y-45778571D01*
X-36942857Y-46492857D02*
X-36085714Y-46492857D01*
X-36085714Y-47278571D02*
X-36085714Y-45778571D01*
X-34728571Y-47278571D02*
X-34728571Y-46492857D01*
X-34800000Y-46350000D01*
X-34942857Y-46278571D01*
X-35228571Y-46278571D01*
X-35371428Y-46350000D01*
X-34728571Y-47207143D02*
X-34871428Y-47278571D01*
X-35228571Y-47278571D01*
X-35371428Y-47207143D01*
X-35442857Y-47064286D01*
X-35442857Y-46921429D01*
X-35371428Y-46778571D01*
X-35228571Y-46707143D01*
X-34871428Y-46707143D01*
X-34728571Y-46635714D01*
X-34014285Y-46278571D02*
X-34014285Y-47278571D01*
X-34014285Y-46421429D02*
X-33942857Y-46350000D01*
X-33799999Y-46278571D01*
X-33585714Y-46278571D01*
X-33442857Y-46350000D01*
X-33371428Y-46492857D01*
X-33371428Y-47278571D01*
X-32014285Y-47278571D02*
X-32014285Y-45778571D01*
X-32014285Y-47207143D02*
X-32157142Y-47278571D01*
X-32442856Y-47278571D01*
X-32585714Y-47207143D01*
X-32657142Y-47135714D01*
X-32728571Y-46992857D01*
X-32728571Y-46564286D01*
X-32657142Y-46421429D01*
X-32585714Y-46350000D01*
X-32442856Y-46278571D01*
X-32157142Y-46278571D01*
X-32014285Y-46350000D01*
X-30799999Y-46492857D02*
X-30585713Y-46564286D01*
X-30514285Y-46635714D01*
X-30442856Y-46778571D01*
X-30442856Y-46992857D01*
X-30514285Y-47135714D01*
X-30585713Y-47207143D01*
X-30728571Y-47278571D01*
X-31299999Y-47278571D01*
X-31299999Y-45778571D01*
X-30799999Y-45778571D01*
X-30657142Y-45850000D01*
X-30585713Y-45921429D01*
X-30514285Y-46064286D01*
X-30514285Y-46207143D01*
X-30585713Y-46350000D01*
X-30657142Y-46421429D01*
X-30799999Y-46492857D01*
X-31299999Y-46492857D01*
X-29585713Y-47278571D02*
X-29728571Y-47207143D01*
X-29799999Y-47135714D01*
X-29871428Y-46992857D01*
X-29871428Y-46564286D01*
X-29799999Y-46421429D01*
X-29728571Y-46350000D01*
X-29585713Y-46278571D01*
X-29371428Y-46278571D01*
X-29228571Y-46350000D01*
X-29157142Y-46421429D01*
X-29085713Y-46564286D01*
X-29085713Y-46992857D01*
X-29157142Y-47135714D01*
X-29228571Y-47207143D01*
X-29371428Y-47278571D01*
X-29585713Y-47278571D01*
X-27799999Y-47278571D02*
X-27799999Y-46492857D01*
X-27871428Y-46350000D01*
X-28014285Y-46278571D01*
X-28299999Y-46278571D01*
X-28442856Y-46350000D01*
X-27799999Y-47207143D02*
X-27942856Y-47278571D01*
X-28299999Y-47278571D01*
X-28442856Y-47207143D01*
X-28514285Y-47064286D01*
X-28514285Y-46921429D01*
X-28442856Y-46778571D01*
X-28299999Y-46707143D01*
X-27942856Y-46707143D01*
X-27799999Y-46635714D01*
X-27085713Y-47278571D02*
X-27085713Y-46278571D01*
X-27085713Y-46564286D02*
X-27014285Y-46421429D01*
X-26942856Y-46350000D01*
X-26799999Y-46278571D01*
X-26657142Y-46278571D01*
X-25514285Y-47278571D02*
X-25514285Y-45778571D01*
X-25514285Y-47207143D02*
X-25657142Y-47278571D01*
X-25942856Y-47278571D01*
X-26085714Y-47207143D01*
X-26157142Y-47135714D01*
X-26228571Y-46992857D01*
X-26228571Y-46564286D01*
X-26157142Y-46421429D01*
X-26085714Y-46350000D01*
X-25942856Y-46278571D01*
X-25657142Y-46278571D01*
X-25514285Y-46350000D01*
X-25157142Y-47421429D02*
X-24014285Y-47421429D01*
X-23799999Y-46278571D02*
X-23442856Y-47278571D01*
X-23085714Y-46278571D01*
X-21728571Y-47278571D02*
X-22585714Y-47278571D01*
X-22157142Y-47278571D02*
X-22157142Y-45778571D01*
X-22299999Y-45992857D01*
X-22442857Y-46135714D01*
X-22585714Y-46207143D01*
X-6992857Y-14828571D02*
X-6992857Y-13328571D01*
X-6278571Y-14828571D02*
X-6278571Y-13328571D01*
X-5421428Y-14828571D01*
X-5421428Y-13328571D01*
X-4707142Y-14257143D02*
X-3564285Y-14257143D01*
X-33942857Y-7128571D02*
X-33942857Y-5628571D01*
X-33371429Y-5628571D01*
X-33228571Y-5700000D01*
X-33157143Y-5771429D01*
X-33085714Y-5914286D01*
X-33085714Y-6128571D01*
X-33157143Y-6271429D01*
X-33228571Y-6342857D01*
X-33371429Y-6414286D01*
X-33942857Y-6414286D01*
X-32585714Y-5628571D02*
X-32228571Y-7128571D01*
X-31942857Y-6057143D01*
X-31657143Y-7128571D01*
X-31300000Y-5628571D01*
X-30728571Y-7128571D02*
X-30728571Y-5628571D01*
X-30228571Y-6700000D01*
X-29728571Y-5628571D01*
X-29728571Y-7128571D01*
X-34157143Y-3078571D02*
X-33657143Y-4578571D01*
X-33157143Y-3078571D01*
X-32657143Y-4007143D02*
X-31514286Y-4007143D01*
X-32085715Y-4578571D02*
X-32085715Y-3435714D01*
X-33157143Y-600000D02*
X-33300000Y-528571D01*
X-33514286Y-528571D01*
X-33728571Y-600000D01*
X-33871429Y-742857D01*
X-33942857Y-885714D01*
X-34014286Y-1171429D01*
X-34014286Y-1385714D01*
X-33942857Y-1671429D01*
X-33871429Y-1814286D01*
X-33728571Y-1957143D01*
X-33514286Y-2028571D01*
X-33371429Y-2028571D01*
X-33157143Y-1957143D01*
X-33085714Y-1885714D01*
X-33085714Y-1385714D01*
X-33371429Y-1385714D01*
X-32442857Y-2028571D02*
X-32442857Y-528571D01*
X-31585714Y-2028571D01*
X-31585714Y-528571D01*
X-30871428Y-2028571D02*
X-30871428Y-528571D01*
X-30514285Y-528571D01*
X-30300000Y-600000D01*
X-30157142Y-742857D01*
X-30085714Y-885714D01*
X-30014285Y-1171429D01*
X-30014285Y-1385714D01*
X-30085714Y-1671429D01*
X-30157142Y-1814286D01*
X-30300000Y-1957143D01*
X-30514285Y-2028571D01*
X-30871428Y-2028571D01*
X-6992857Y-7228571D02*
X-6992857Y-5728571D01*
X-6278571Y-7228571D02*
X-6278571Y-5728571D01*
X-5421428Y-7228571D01*
X-5421428Y-5728571D01*
X-4707142Y-6657143D02*
X-3564285Y-6657143D01*
X-4135714Y-7228571D02*
X-4135714Y-6085714D01*
D10*
X-11600000Y-14150000D02*
X-13200000Y-12550000D01*
X-7350000Y-14150000D02*
X-11600000Y-14150000D01*
X-11650000Y-6550000D02*
X-13200000Y-8100000D01*
X-7350000Y-6550000D02*
X-11650000Y-6550000D01*
D11*
X-6707143Y-10778571D02*
X-6421429Y-10778571D01*
X-6278571Y-10850000D01*
X-6135714Y-10992857D01*
X-6064286Y-11278571D01*
X-6064286Y-11778571D01*
X-6135714Y-12064286D01*
X-6278571Y-12207143D01*
X-6421429Y-12278571D01*
X-6707143Y-12278571D01*
X-6850000Y-12207143D01*
X-6992857Y-12064286D01*
X-7064286Y-11778571D01*
X-7064286Y-11278571D01*
X-6992857Y-10992857D01*
X-6850000Y-10850000D01*
X-6707143Y-10778571D01*
X-5421428Y-10778571D02*
X-5421428Y-11992857D01*
X-5350000Y-12135714D01*
X-5278571Y-12207143D01*
X-5135714Y-12278571D01*
X-4850000Y-12278571D01*
X-4707142Y-12207143D01*
X-4635714Y-12135714D01*
X-4564285Y-11992857D01*
X-4564285Y-10778571D01*
X-4064285Y-10778571D02*
X-3207142Y-10778571D01*
X-3635713Y-12278571D02*
X-3635713Y-10778571D01*
X-2707142Y-11707143D02*
X-1564285Y-11707143D01*
X-6707143Y-8228571D02*
X-6421429Y-8228571D01*
X-6278571Y-8300000D01*
X-6135714Y-8442857D01*
X-6064286Y-8728571D01*
X-6064286Y-9228571D01*
X-6135714Y-9514286D01*
X-6278571Y-9657143D01*
X-6421429Y-9728571D01*
X-6707143Y-9728571D01*
X-6850000Y-9657143D01*
X-6992857Y-9514286D01*
X-7064286Y-9228571D01*
X-7064286Y-8728571D01*
X-6992857Y-8442857D01*
X-6850000Y-8300000D01*
X-6707143Y-8228571D01*
X-5421428Y-8228571D02*
X-5421428Y-9442857D01*
X-5350000Y-9585714D01*
X-5278571Y-9657143D01*
X-5135714Y-9728571D01*
X-4850000Y-9728571D01*
X-4707142Y-9657143D01*
X-4635714Y-9585714D01*
X-4564285Y-9442857D01*
X-4564285Y-8228571D01*
X-4064285Y-8228571D02*
X-3207142Y-8228571D01*
X-3635713Y-9728571D02*
X-3635713Y-8228571D01*
X-2707142Y-9157143D02*
X-1564285Y-9157143D01*
X-2135714Y-9728571D02*
X-2135714Y-8585714D01*
D10*
X-10350000Y-11600000D02*
X-7350000Y-11600000D01*
X-10350000Y-9050000D02*
X-7350000Y-9050000D01*
D11*
X-34471429Y-18021429D02*
X-35971429Y-18021429D01*
X-35471429Y-17307143D02*
X-34471429Y-17307143D01*
X-35328571Y-17307143D02*
X-35400000Y-17235715D01*
X-35471429Y-17092857D01*
X-35471429Y-16878572D01*
X-35400000Y-16735715D01*
X-35257143Y-16664286D01*
X-34471429Y-16664286D01*
X-34471429Y-15307143D02*
X-35971429Y-15307143D01*
X-34542857Y-15307143D02*
X-34471429Y-15450000D01*
X-34471429Y-15735714D01*
X-34542857Y-15878572D01*
X-34614286Y-15950000D01*
X-34757143Y-16021429D01*
X-35185714Y-16021429D01*
X-35328571Y-15950000D01*
X-35400000Y-15878572D01*
X-35471429Y-15735714D01*
X-35471429Y-15450000D01*
X-35400000Y-15307143D01*
X-34542857Y-14021429D02*
X-34471429Y-14164286D01*
X-34471429Y-14450000D01*
X-34542857Y-14592857D01*
X-34685714Y-14664286D01*
X-35257143Y-14664286D01*
X-35400000Y-14592857D01*
X-35471429Y-14450000D01*
X-35471429Y-14164286D01*
X-35400000Y-14021429D01*
X-35257143Y-13950000D01*
X-35114286Y-13950000D01*
X-34971429Y-14664286D01*
X-34471429Y-13450000D02*
X-35471429Y-12664286D01*
X-35471429Y-13450000D02*
X-34471429Y-12664286D01*
X-37671429Y-19307143D02*
X-39171429Y-19307143D01*
X-38100000Y-18807143D01*
X-39171429Y-18307143D01*
X-37671429Y-18307143D01*
X-37671429Y-17592857D02*
X-38671429Y-17592857D01*
X-39171429Y-17592857D02*
X-39100000Y-17664286D01*
X-39028571Y-17592857D01*
X-39100000Y-17521429D01*
X-39171429Y-17592857D01*
X-39028571Y-17592857D01*
X-37671429Y-16235714D02*
X-39171429Y-16235714D01*
X-37742857Y-16235714D02*
X-37671429Y-16378571D01*
X-37671429Y-16664285D01*
X-37742857Y-16807143D01*
X-37814286Y-16878571D01*
X-37957143Y-16950000D01*
X-38385714Y-16950000D01*
X-38528571Y-16878571D01*
X-38600000Y-16807143D01*
X-38671429Y-16664285D01*
X-38671429Y-16378571D01*
X-38600000Y-16235714D01*
X-37671429Y-14878571D02*
X-39171429Y-14878571D01*
X-37742857Y-14878571D02*
X-37671429Y-15021428D01*
X-37671429Y-15307142D01*
X-37742857Y-15450000D01*
X-37814286Y-15521428D01*
X-37957143Y-15592857D01*
X-38385714Y-15592857D01*
X-38528571Y-15521428D01*
X-38600000Y-15450000D01*
X-38671429Y-15307142D01*
X-38671429Y-15021428D01*
X-38600000Y-14878571D01*
X-37671429Y-13949999D02*
X-37742857Y-14092857D01*
X-37885714Y-14164285D01*
X-39171429Y-14164285D01*
X-37742857Y-12807143D02*
X-37671429Y-12950000D01*
X-37671429Y-13235714D01*
X-37742857Y-13378571D01*
X-37885714Y-13450000D01*
X-38457143Y-13450000D01*
X-38600000Y-13378571D01*
X-38671429Y-13235714D01*
X-38671429Y-12950000D01*
X-38600000Y-12807143D01*
X-38457143Y-12735714D01*
X-38314286Y-12735714D01*
X-38171429Y-13450000D01*
X-42371429Y-19521429D02*
X-42371429Y-18664286D01*
X-40871429Y-19092857D02*
X-42371429Y-19092857D01*
X-40871429Y-18164286D02*
X-42371429Y-18164286D01*
X-40871429Y-17521429D02*
X-41657143Y-17521429D01*
X-41800000Y-17592858D01*
X-41871429Y-17735715D01*
X-41871429Y-17950000D01*
X-41800000Y-18092858D01*
X-41728571Y-18164286D01*
X-41871429Y-16164286D02*
X-40871429Y-16164286D01*
X-41871429Y-16807143D02*
X-41085714Y-16807143D01*
X-40942857Y-16735715D01*
X-40871429Y-16592857D01*
X-40871429Y-16378572D01*
X-40942857Y-16235715D01*
X-41014286Y-16164286D01*
X-40871429Y-15450000D02*
X-41871429Y-15450000D01*
X-41728571Y-15450000D02*
X-41800000Y-15378572D01*
X-41871429Y-15235714D01*
X-41871429Y-15021429D01*
X-41800000Y-14878572D01*
X-41657143Y-14807143D01*
X-40871429Y-14807143D01*
X-41657143Y-14807143D02*
X-41800000Y-14735714D01*
X-41871429Y-14592857D01*
X-41871429Y-14378572D01*
X-41800000Y-14235714D01*
X-41657143Y-14164286D01*
X-40871429Y-14164286D01*
X-40871429Y-13450000D02*
X-42371429Y-13450000D01*
X-41800000Y-13450000D02*
X-41871429Y-13307143D01*
X-41871429Y-13021429D01*
X-41800000Y-12878572D01*
X-41728571Y-12807143D01*
X-41585714Y-12735714D01*
X-41157143Y-12735714D01*
X-41014286Y-12807143D01*
X-40942857Y-12878572D01*
X-40871429Y-13021429D01*
X-40871429Y-13307143D01*
X-40942857Y-13450000D01*
D10*
X-35150000Y-10950000D02*
X-35150000Y-12450000D01*
X-38350000Y-10950000D02*
X-38350000Y-12450000D01*
X-38150000Y-7950000D02*
X-35150000Y-10950000D01*
X-41350000Y-7950000D02*
X-38350000Y-10950000D01*
X-41550000Y-10950000D02*
X-41550000Y-12450000D01*
X-44550000Y-7950000D02*
X-41550000Y-10950000D01*
D12*
X-14151600Y-13095400D02*
X-15701600Y-13095400D01*
X-15701600Y-11545400D02*
X-15701600Y-13095400D01*
X-12881600Y-12815400D02*
X-12881600Y-10275400D01*
X-12881600Y-10275400D02*
X-15421600Y-10275400D01*
X-15421600Y-10275400D02*
X-15421600Y-7735400D01*
X-15421600Y-7735400D02*
X-10341600Y-7735400D01*
X-10341600Y-7735400D02*
X-10341600Y-12815400D01*
X-10341600Y-12815400D02*
X-12881600Y-12815400D01*
X-52188100Y-37694700D02*
G75*
G03X-52188100Y-37694700I-3810000J0D01*
G01*
X-40643800Y-37694700D02*
G75*
G03X-40643800Y-37694700I-3810000J0D01*
G01*
X-29315400Y-37707400D02*
G75*
G03X-29315400Y-37707400I-3810000J0D01*
G01*
X-43641000Y-11710500D02*
G75*
G03X-43641000Y-11710500I-3810000J0D01*
G01*
X-17860000Y-48350000D02*
X-17860000Y-90000D01*
X-17860000Y-90000D02*
X-80000Y-90000D01*
X-80000Y-90000D02*
X-80000Y-48350000D01*
X-80000Y-48350000D02*
X-17860000Y-48350000D01*
X-5006500Y-47667000D02*
X-5006500Y-33667000D01*
X-5006500Y-33667000D02*
X-12906500Y-33667000D01*
X-12906500Y-33667000D02*
X-12906500Y-47667000D01*
X-12906500Y-47667000D02*
X-5006500Y-47667000D01*
X-11406500Y-50667000D02*
X-11406500Y-47667000D01*
X-6406500Y-50667000D02*
X-11406500Y-50667000D01*
X-6406500Y-47667000D02*
X-6406500Y-50667000D01*
X-8081879Y-37667000D02*
G75*
G03X-8081879Y-37667000I-824621J0D01*
G01*
X-8081879Y-44667000D02*
G75*
G03X-8081879Y-44667000I-824621J0D01*
G01*
X-43272700Y-5144600D02*
X-43272700Y-64600D01*
X-43272700Y-64600D02*
X-45812700Y-64600D01*
X-45812700Y-64600D02*
X-45812700Y-5144600D01*
X-46092700Y-7964600D02*
X-46092700Y-6414600D01*
X-45812700Y-5144600D02*
X-43272700Y-5144600D01*
X-42992700Y-6414600D02*
X-42992700Y-7964600D01*
X-42992700Y-7964600D02*
X-46092700Y-7964600D01*
X-47430680Y-26008160D02*
X-42350680Y-26008160D01*
X-42350680Y-26008160D02*
X-42350680Y-23468160D01*
X-42350680Y-23468160D02*
X-47430680Y-23468160D01*
X-50250680Y-23188160D02*
X-48700680Y-23188160D01*
X-47430680Y-23468160D02*
X-47430680Y-26008160D01*
X-48700680Y-26288160D02*
X-50250680Y-26288160D01*
X-50250680Y-26288160D02*
X-50250680Y-23188160D01*
X-36884600Y-5144600D02*
X-36884600Y-64600D01*
X-36884600Y-64600D02*
X-39424600Y-64600D01*
X-39424600Y-64600D02*
X-39424600Y-5144600D01*
X-39704600Y-7964600D02*
X-39704600Y-6414600D01*
X-39424600Y-5144600D02*
X-36884600Y-5144600D01*
X-36604600Y-6414600D02*
X-36604600Y-7964600D01*
X-36604600Y-7964600D02*
X-39704600Y-7964600D01*
X-40085000Y-5131900D02*
X-40085000Y-51900D01*
X-40085000Y-51900D02*
X-42625000Y-51900D01*
X-42625000Y-51900D02*
X-42625000Y-5131900D01*
X-42905000Y-7951900D02*
X-42905000Y-6401900D01*
X-42625000Y-5131900D02*
X-40085000Y-5131900D01*
X-39805000Y-6401900D02*
X-39805000Y-7951900D01*
X-39805000Y-7951900D02*
X-42905000Y-7951900D01*
%LPC*%
D13*
X-42076360Y-53395720D03*
X-42076360Y-47395720D03*
D14*
X-14151600Y-11545400D03*
D15*
X-14151600Y-9005400D03*
X-11611600Y-11545400D03*
X-11611600Y-9005400D03*
D16*
X-58538100Y-37694700D03*
X-53458100Y-37694700D03*
X-46993800Y-37694700D03*
X-41913800Y-37694700D03*
X-35665400Y-37707400D03*
X-30585400Y-37707400D03*
X-49991000Y-11710500D03*
X-44911000Y-11710500D03*
X-1350000Y-36920000D03*
X-1350000Y-21680000D03*
X-16590000Y-8980000D03*
X-16590000Y-11520000D03*
X-16590000Y-14060000D03*
X-16590000Y-16600000D03*
X-16590000Y-19140000D03*
X-16590000Y-21680000D03*
X-16590000Y-44540000D03*
X-16590000Y-42000000D03*
X-16590000Y-39460000D03*
X-16590000Y-36920000D03*
X-16590000Y-29300000D03*
X-16590000Y-26760000D03*
X-16590000Y-24220000D03*
X-1350000Y-24220000D03*
X-1350000Y-26760000D03*
X-1350000Y-29300000D03*
X-1350000Y-31840000D03*
X-1350000Y-34380000D03*
X-1350000Y-39460000D03*
X-1350000Y-42000000D03*
X-1350000Y-44540000D03*
D17*
X-6406500Y-43767000D03*
X-11406500Y-45567000D03*
X-11406500Y-36167000D03*
D18*
X-44542700Y-6414600D03*
D19*
X-44542700Y-3874600D03*
X-44542700Y-1334600D03*
D20*
X-48700680Y-24738160D03*
D21*
X-46160680Y-24738160D03*
X-43620680Y-24738160D03*
D18*
X-38154600Y-6414600D03*
D19*
X-38154600Y-3874600D03*
X-38154600Y-1334600D03*
D18*
X-41355000Y-6401900D03*
D19*
X-41355000Y-3861900D03*
X-41355000Y-1321900D03*
M02*
