M48
;DRILL file {KiCad (after 2015-may-01 BZR unknown)-product} date 2015/07/22 22:59:42
;FORMAT={3:3/ absolute / metric / suppress leading zeros}
FMAT,2
METRIC,TZ
T1C0.500
T2C0.762
T3C1.000
T4C1.016
T5C1.200
T6C1.400
T7C1.500
%
G90
G05
M71
T1
X105474Y-121552
X111252Y-110515
X115824Y-123419
X117221Y-121476
X122492Y-84722
X122530Y-82144
X129476Y-115900
X140856Y-87109
X143942Y-115253
X148560Y-89840
X149047Y-92367
X154102Y-106350
T2
X98933Y-118478
X104013Y-118478
X107480Y-92494
X110477Y-118478
X112560Y-92494
X115557Y-118478
X121806Y-118491
X126886Y-118491
X140881Y-89764
X140881Y-92304
X140881Y-94844
X140881Y-97384
X140881Y-99924
X140881Y-102464
X140881Y-105004
X140881Y-107544
X140881Y-110084
X140881Y-117704
X140881Y-120244
X140881Y-122784
X140881Y-125324
X156121Y-105004
X156121Y-107544
X156121Y-110084
X156121Y-112624
X156121Y-115164
X156121Y-117704
X156121Y-120244
X156121Y-122784
X156121Y-125324
T4
X108770Y-105522
X111310Y-105522
X112928Y-82118
X112928Y-84658
X112928Y-87198
X113850Y-105522
X116116Y-82106
X116116Y-84646
X116116Y-87186
X119317Y-82118
X119317Y-84658
X119317Y-87198
T5
X145999Y-126385
X151028Y-124465
T6
X143320Y-89789
X143320Y-92329
X145860Y-89789
X145860Y-92329
T7
X146001Y-117014
T3
X110420Y-132404G85X110420Y-129904
G05
X114145Y-128179G85X116645Y-128179
G05
X114145Y-134179G85X116645Y-134179
G05
T0
M30
