G04 #@! TF.FileFunction,Copper,L2,Bot,Signal*
%FSLAX46Y46*%
G04 Gerber Fmt 4.6, Leading zero omitted, Abs format (unit mm)*
G04 Created by KiCad (PCBNEW 4.0.1-stable) date 2016/01/11 12:11:08*
%MOMM*%
G01*
G04 APERTURE LIST*
%ADD10C,0.100000*%
%ADD11R,4.500000X2.000000*%
%ADD12C,2.000000*%
%ADD13O,2.000000X2.000000*%
%ADD14C,1.524000*%
%ADD15R,2.500000X2.500000*%
%ADD16R,2.032000X1.727200*%
%ADD17O,2.032000X1.727200*%
%ADD18R,1.727200X2.032000*%
%ADD19O,1.727200X2.032000*%
%ADD20C,1.000000*%
%ADD21C,0.500000*%
%ADD22C,1.000000*%
G04 APERTURE END LIST*
D10*
D11*
X115394740Y-134179320D03*
X115394740Y-128179320D03*
D12*
X143319500Y-92329000D03*
D13*
X143319500Y-89789000D03*
X145859500Y-92329000D03*
X145859500Y-89789000D03*
D14*
X98933000Y-118478300D03*
X104013000Y-118478300D03*
X110477300Y-118478300D03*
X115557300Y-118478300D03*
X121805700Y-118491000D03*
X126885700Y-118491000D03*
X107480100Y-92494100D03*
X112560100Y-92494100D03*
X156121100Y-117703600D03*
X156121100Y-102463600D03*
X140881100Y-89763600D03*
X140881100Y-92303600D03*
X140881100Y-94843600D03*
X140881100Y-97383600D03*
X140881100Y-99923600D03*
X140881100Y-102463600D03*
X140881100Y-125323600D03*
X140881100Y-122783600D03*
X140881100Y-120243600D03*
X140881100Y-117703600D03*
X140881100Y-110083600D03*
X140881100Y-107543600D03*
X140881100Y-105003600D03*
X156121100Y-105003600D03*
X156121100Y-107543600D03*
X156121100Y-110083600D03*
X156121100Y-112623600D03*
X156121100Y-115163600D03*
X156121100Y-120243600D03*
X156121100Y-122783600D03*
X156121100Y-125323600D03*
D15*
X151064600Y-124550600D03*
X146064600Y-126350600D03*
X146064600Y-116950600D03*
D16*
X112928400Y-87198200D03*
D17*
X112928400Y-84658200D03*
X112928400Y-82118200D03*
D18*
X108770420Y-105521760D03*
D19*
X111310420Y-105521760D03*
X113850420Y-105521760D03*
D16*
X119316500Y-87198200D03*
D17*
X119316500Y-84658200D03*
X119316500Y-82118200D03*
D16*
X116116100Y-87185500D03*
D17*
X116116100Y-84645500D03*
X116116100Y-82105500D03*
D20*
X115824000Y-123418600D03*
X146021100Y-114183600D03*
X111252000Y-110515400D03*
X142221100Y-86533600D03*
X149047200Y-92367100D03*
X122529600Y-82143600D03*
X122491500Y-84721700D03*
X148559520Y-89839800D03*
X154089100Y-105003600D03*
X117221000Y-121475500D03*
X129476500Y-115900200D03*
X117221100Y-92483600D03*
D21*
X110477300Y-118478300D02*
X110883700Y-118478300D01*
D22*
X110883700Y-118478300D02*
X115824000Y-123418600D01*
D21*
X110477300Y-118478300D02*
X110477300Y-118122700D01*
X110477300Y-118122700D02*
X112547400Y-116052600D01*
X119367300Y-116052600D02*
X121805700Y-118491000D01*
X112547400Y-116052600D02*
X119367300Y-116052600D01*
X110477300Y-118478300D02*
X110375700Y-118478300D01*
X110375700Y-118478300D02*
X108839000Y-120015000D01*
X98933000Y-120383300D02*
X100101400Y-121551700D01*
X100101400Y-121551700D02*
X105473500Y-121551700D01*
X108839000Y-120015000D02*
X107365800Y-121551700D01*
X105473500Y-121551700D02*
X107365800Y-121551700D01*
X98933000Y-118478300D02*
X98933000Y-120383300D01*
X107480100Y-92494100D02*
X107480100Y-96583500D01*
X98933000Y-105130600D02*
X98933000Y-118478300D01*
X107480100Y-96583500D02*
X98933000Y-105130600D01*
D22*
X129755900Y-123348800D02*
X138921100Y-114183600D01*
X129755900Y-123418600D02*
X129755900Y-123348800D01*
X115824000Y-123418600D02*
X129755900Y-123418600D01*
X138921100Y-114183600D02*
X146021100Y-114183600D01*
X111310420Y-105521760D02*
X111310420Y-110456980D01*
X111310420Y-110456980D02*
X111252000Y-110515400D01*
X108770420Y-105521760D02*
X108770420Y-104034280D01*
X108770420Y-104034280D02*
X126271100Y-86533600D01*
X126271100Y-86533600D02*
X142221100Y-86533600D01*
X151345900Y-90068400D02*
X149047200Y-92367100D01*
X151345900Y-86271100D02*
X151345900Y-90068400D01*
X147218400Y-82143600D02*
X151345900Y-86271100D01*
X122529600Y-82143600D02*
X147218400Y-82143600D01*
X122491500Y-84721700D02*
X122516900Y-84696300D01*
X122516900Y-84696300D02*
X147281900Y-84696300D01*
X147281900Y-84696300D02*
X149110700Y-86525100D01*
X149110700Y-86525100D02*
X149110700Y-88239600D01*
X149110700Y-89288620D02*
X149110700Y-88239600D01*
X148559520Y-89839800D02*
X149110700Y-89288620D01*
D21*
X153238200Y-104990900D02*
X154101800Y-104990900D01*
X105791000Y-112420400D02*
X103987600Y-114223800D01*
X104013000Y-114249200D02*
X103987600Y-114223800D01*
X104013000Y-114249200D02*
X104013000Y-118478300D01*
X153238200Y-104990900D02*
X145808700Y-112420400D01*
X145808700Y-112420400D02*
X105791000Y-112420400D01*
X154101800Y-104990900D02*
X154089100Y-105003600D01*
X115557300Y-118478300D02*
X115557300Y-119811800D01*
X115557300Y-119811800D02*
X117221000Y-121475500D01*
X126885700Y-118491000D02*
X129476500Y-115900200D01*
X117210600Y-92494100D02*
X112560100Y-92494100D01*
X117221100Y-92483600D02*
X117210600Y-92494100D01*
M02*
