G04 #@! TF.FileFunction,Profile,NP*
%FSLAX46Y46*%
G04 Gerber Fmt 4.6, Leading zero omitted, Abs format (unit mm)*
G04 Created by KiCad (PCBNEW 4.0.1-stable) date 2016/01/11 12:11:08*
%MOMM*%
G01*
G04 APERTURE LIST*
%ADD10C,0.100000*%
G04 APERTURE END LIST*
D10*
X119941100Y-129773600D02*
X119941100Y-135313600D01*
X111441100Y-135813600D02*
X119441100Y-135813600D01*
X119941100Y-135313600D02*
X119441100Y-135813600D01*
X110941100Y-129743600D02*
X110941100Y-135313600D01*
X110941100Y-135313600D02*
X111441100Y-135813600D01*
X107111100Y-129243600D02*
X110441100Y-129243600D01*
X110441100Y-129243600D02*
X110941100Y-129743600D01*
X106601100Y-124643600D02*
X106601100Y-128743600D01*
X107101100Y-129243600D02*
X107111100Y-129243600D01*
X106601100Y-128743600D02*
X107101100Y-129243600D01*
X96611100Y-124153600D02*
X106111100Y-124153600D01*
X106111100Y-124153600D02*
X106601100Y-124643600D01*
X157411100Y-81023600D02*
X105521100Y-81023600D01*
X157411100Y-128773600D02*
X157411100Y-81023600D01*
X156911100Y-129273600D02*
X157411100Y-128773600D01*
X120441100Y-129273600D02*
X156911100Y-129273600D01*
X119941100Y-129773600D02*
X120441100Y-129273600D01*
X96611100Y-96263600D02*
X96611100Y-124153600D01*
X105521100Y-87353600D02*
X96611100Y-96263600D01*
X105521100Y-81023600D02*
X105521100Y-87353600D01*
X138761100Y-87703600D02*
X127851100Y-87703600D01*
X139251100Y-88193600D02*
X138761100Y-87703600D01*
X139251100Y-110593600D02*
X139251100Y-88193600D01*
X138751100Y-111093600D02*
X139251100Y-110593600D01*
X127851100Y-111093600D02*
X138751100Y-111093600D01*
X127361100Y-110603600D02*
X127851100Y-111093600D01*
X127361100Y-88193600D02*
X127361100Y-110603600D01*
X127851100Y-87703600D02*
X127361100Y-88193600D01*
X137860700Y-122996400D02*
G75*
G03X137860700Y-122996400I-1100000J0D01*
G01*
X110240700Y-84676400D02*
G75*
G03X110240700Y-84676400I-1100000J0D01*
G01*
M02*
