M48
;DRILL file {KiCad (after 2015-may-01 BZR unknown)-product} date 2015/11/16 19:53:34
;FORMAT={3:3/ absolute / metric / suppress leading zeros}
FMAT,2
METRIC,TZ
T1C0.400
T2C1.000
T3C2.000
%
G90
G05
M71
T1
X-46219Y-29732
X-41647Y-42635
X-40250Y-40692
X-40250Y-11700
X-34980Y-3938
X-34942Y-1360
X-27995Y-35117
X-15250Y-5750
X-11450Y-33400
X-8912Y-9056
X-8424Y-11584
X-3382Y-24220
T2
X-58538Y-37695
X-53458Y-37695
X-49991Y-11711
X-48701Y-24738
X-46994Y-37695
X-46161Y-24738
X-44911Y-11711
X-44543Y-1335
X-44543Y-3875
X-44543Y-6415
X-43621Y-24738
X-41914Y-37695
X-41355Y-1322
X-41355Y-3862
X-41355Y-6402
X-38155Y-1335
X-38155Y-3875
X-38155Y-6415
X-35665Y-37707
X-30585Y-37707
X-16590Y-8980
X-16590Y-11520
X-16590Y-14060
X-16590Y-16600
X-16590Y-19140
X-16590Y-21680
X-16590Y-24220
X-16590Y-26760
X-16590Y-29300
X-16590Y-36920
X-16590Y-39460
X-16590Y-42000
X-16590Y-44540
X-14152Y-9005
X-14152Y-11545
X-11612Y-9005
X-11612Y-11545
X-1350Y-21680
X-1350Y-24220
X-1350Y-26760
X-1350Y-29300
X-1350Y-31840
X-1350Y-34380
X-1350Y-36920
X-1350Y-39460
X-1350Y-42000
X-1350Y-44540
T2
X-43326Y-47396G85X-40826Y-47396
G05
X-43326Y-53396G85X-40826Y-53396
G05
T3
X-11407Y-36167G85X-11407Y-36167
G05
X-11407Y-45567G85X-11407Y-45567
G05
X-6407Y-43767G85X-6407Y-43767
G05
T0
M30
