%TF.GenerationSoftware,KiCad,Pcbnew,(after 2015-may-01 BZR unknown)-product*%
%TF.CreationDate,2015-11-16T19:53:27+09:00*%
%TF.JobID,HandBoard_v1,48616E64426F6172645F76312E6B6963,rev?*%
%TF.FileFunction,Profile,NP*%
%FSLAX46Y46*%
G04 Gerber Fmt 4.6, Leading zero omitted, Abs format (unit mm)*
G04 Created by KiCad (PCBNEW (after 2015-may-01 BZR unknown)-product) date 2015/11/16 19:53:27*
%MOMM*%
G01*
G04 APERTURE LIST*
%ADD10C,0.100000*%
G04 APERTURE END LIST*
D10*
X-37530000Y-48990000D02*
X-37530000Y-54530000D01*
X-46030000Y-55030000D02*
X-38030000Y-55030000D01*
X-37530000Y-54530000D02*
X-38030000Y-55030000D01*
X-46530000Y-48960000D02*
X-46530000Y-54530000D01*
X-46530000Y-54530000D02*
X-46030000Y-55030000D01*
X-50360000Y-48460000D02*
X-47030000Y-48460000D01*
X-47030000Y-48460000D02*
X-46530000Y-48960000D01*
X-50870000Y-43860000D02*
X-50870000Y-47960000D01*
X-50370000Y-48460000D02*
X-50360000Y-48460000D01*
X-50870000Y-47960000D02*
X-50370000Y-48460000D01*
X-60860000Y-43370000D02*
X-51360000Y-43370000D01*
X-51360000Y-43370000D02*
X-50870000Y-43860000D01*
X-60000Y-240000D02*
X-51950000Y-240000D01*
X-60000Y-47990000D02*
X-60000Y-240000D01*
X-560000Y-48490000D02*
X-60000Y-47990000D01*
X-37030000Y-48490000D02*
X-560000Y-48490000D01*
X-37530000Y-48990000D02*
X-37030000Y-48490000D01*
X-60860000Y-15480000D02*
X-60860000Y-43370000D01*
X-51950000Y-6570000D02*
X-60860000Y-15480000D01*
X-51950000Y-240000D02*
X-51950000Y-6570000D01*
X-18710000Y-6920000D02*
X-29620000Y-6920000D01*
X-18220000Y-7410000D02*
X-18710000Y-6920000D01*
X-18220000Y-29810000D02*
X-18220000Y-7410000D01*
X-18720000Y-30310000D02*
X-18220000Y-29810000D01*
X-29620000Y-30310000D02*
X-18720000Y-30310000D01*
X-30110000Y-29820000D02*
X-29620000Y-30310000D01*
X-30110000Y-7410000D02*
X-30110000Y-29820000D01*
X-29620000Y-6920000D02*
X-30110000Y-7410000D01*
X-19610400Y-42212800D02*
G75*
G03X-19610400Y-42212800I-1100000J0D01*
G01*
X-47230400Y-3892800D02*
G75*
G03X-47230400Y-3892800I-1100000J0D01*
G01*
M02*
